<mxfile host="app.diagrams.net" modified="2020-12-20T13:49:49.138Z" agent="5.0 (Windows NT 10.0; Win64; x64) AppleWebKit/537.36 (KHTML, like Gecko) Chrome/87.0.4280.88 Safari/537.36" etag="b5V30-uYZanrxKMwYR_j" version="14.1.1" type="github">
  <diagram id="C5RBs43oDa-KdzZeNtuy" name="Page-1">
    <mxGraphModel dx="944" dy="885" grid="0" gridSize="10" guides="1" tooltips="1" connect="1" arrows="1" fold="1" page="1" pageScale="1" pageWidth="827" pageHeight="1169" math="0" shadow="0">
      <root>
        <mxCell id="WIyWlLk6GJQsqaUBKTNV-0" />
        <mxCell id="WIyWlLk6GJQsqaUBKTNV-1" parent="WIyWlLk6GJQsqaUBKTNV-0" />
        <mxCell id="i8nNrYU4gZV8eUPDtYtz-2" value="&lt;div style=&quot;text-align: left&quot;&gt;&lt;/div&gt;&lt;div&gt;&lt;span&gt;&lt;font face=&quot;맑은 고딕&quot;&gt;중앙의 방 1부터 시작해서 이웃하는 &lt;br&gt;방에 돌아가면서 1씩 증가하는 번호를 &lt;br&gt;주소로 매길 수 있다. 숫자 N이 &lt;br&gt;주어졌을 때, 벌집의 중앙 1에서 &lt;br&gt;N번 방까지 최소 개수의 방을 지나서 &lt;br&gt;갈 때 몇 개의 방을 지나가는지&lt;br&gt;(시작과 끝을 포함하여)를 계산하는 &lt;br&gt;프로그램을 작성하시오. &lt;br&gt;예를 들면, 13까지는 3개, 58까지는 &lt;br&gt;5개를 지난다.&lt;/font&gt;&lt;/span&gt;&lt;/div&gt;" style="rounded=1;whiteSpace=wrap;html=1;fontSize=12;glass=0;strokeWidth=1;shadow=0;fillColor=#f5f5f5;strokeColor=#666666;fontColor=#333333;" vertex="1" parent="WIyWlLk6GJQsqaUBKTNV-1">
          <mxGeometry x="1234" y="770" width="240" height="195" as="geometry" />
        </mxCell>
        <mxCell id="a0PelQOWETDK6hBLnf5e-57" value="&lt;div&gt;2~9단 곱하기 출력&lt;/div&gt;" style="rounded=1;whiteSpace=wrap;html=1;fontSize=12;glass=0;strokeWidth=1;shadow=0;fillColor=#f5f5f5;strokeColor=#666666;fontColor=#333333;" parent="WIyWlLk6GJQsqaUBKTNV-1" vertex="1">
          <mxGeometry x="930" y="70" width="240" height="80" as="geometry" />
        </mxCell>
        <mxCell id="a0PelQOWETDK6hBLnf5e-5" value="&lt;span style=&quot;color: rgb(51 , 51 , 51) ; font-family: &amp;#34;맑은 고딕&amp;#34;&quot;&gt;1&lt;/span&gt;&lt;span style=&quot;color: rgb(51 , 51 , 51) ; font-family: &amp;#34;맑은 고딕&amp;#34;&quot;&gt;부터&amp;nbsp;&lt;/span&gt;&lt;span style=&quot;color: rgb(51 , 51 , 51) ; font-family: &amp;#34;맑은 고딕&amp;#34;&quot;&gt;100&lt;/span&gt;&lt;span style=&quot;color: rgb(51 , 51 , 51) ; font-family: &amp;#34;맑은 고딕&amp;#34;&quot;&gt;까지의 합을 구하되&lt;/span&gt;&lt;span style=&quot;color: rgb(51 , 51 , 51) ; font-family: &amp;#34;맑은 고딕&amp;#34;&quot;&gt;, &lt;br&gt;3&lt;/span&gt;&lt;span style=&quot;color: rgb(51 , 51 , 51) ; font-family: &amp;#34;맑은 고딕&amp;#34;&quot;&gt;의 배수에 해당하는 것만 구해주세요&lt;/span&gt;" style="rounded=1;whiteSpace=wrap;html=1;fontSize=12;glass=0;strokeWidth=1;shadow=0;fillColor=#f5f5f5;strokeColor=#666666;fontColor=#333333;" parent="WIyWlLk6GJQsqaUBKTNV-1" vertex="1">
          <mxGeometry x="30" y="70" width="240" height="80" as="geometry" />
        </mxCell>
        <mxCell id="a0PelQOWETDK6hBLnf5e-2" value="문제&lt;br&gt;1번" style="ellipse;whiteSpace=wrap;html=1;aspect=fixed;fillColor=#d5e8d4;strokeColor=#82b366;" parent="WIyWlLk6GJQsqaUBKTNV-1" vertex="1">
          <mxGeometry x="125" y="30" width="50" height="50" as="geometry" />
        </mxCell>
        <mxCell id="a0PelQOWETDK6hBLnf5e-6" value="" style="group" parent="WIyWlLk6GJQsqaUBKTNV-1" vertex="1" connectable="0">
          <mxGeometry x="30" y="180" width="220" height="290" as="geometry" />
        </mxCell>
        <mxCell id="WIyWlLk6GJQsqaUBKTNV-3" value="1&amp;lt;i&amp;lt;100" style="rounded=1;whiteSpace=wrap;html=1;fontSize=12;glass=0;strokeWidth=1;shadow=0;" parent="a0PelQOWETDK6hBLnf5e-6" vertex="1">
          <mxGeometry x="60" width="120" height="40" as="geometry" />
        </mxCell>
        <mxCell id="WIyWlLk6GJQsqaUBKTNV-5" value="No" style="edgeStyle=orthogonalEdgeStyle;rounded=0;html=1;jettySize=auto;orthogonalLoop=1;fontSize=11;endArrow=block;endFill=0;endSize=8;strokeWidth=1;shadow=0;labelBackgroundColor=none;" parent="a0PelQOWETDK6hBLnf5e-6" source="WIyWlLk6GJQsqaUBKTNV-6" edge="1">
          <mxGeometry x="-0.2" y="10" relative="1" as="geometry">
            <mxPoint as="offset" />
            <mxPoint x="190" y="250" as="targetPoint" />
            <Array as="points">
              <mxPoint x="120" y="190" />
              <mxPoint x="190" y="190" />
            </Array>
          </mxGeometry>
        </mxCell>
        <mxCell id="WIyWlLk6GJQsqaUBKTNV-6" value="i%3==0" style="rhombus;whiteSpace=wrap;html=1;shadow=0;fontFamily=Helvetica;fontSize=12;align=center;strokeWidth=1;spacing=6;spacingTop=-4;" parent="a0PelQOWETDK6hBLnf5e-6" vertex="1">
          <mxGeometry x="70" y="90" width="100" height="80" as="geometry" />
        </mxCell>
        <mxCell id="WIyWlLk6GJQsqaUBKTNV-2" value="" style="rounded=0;html=1;jettySize=auto;orthogonalLoop=1;fontSize=11;endArrow=block;endFill=0;endSize=8;strokeWidth=1;shadow=0;labelBackgroundColor=none;edgeStyle=orthogonalEdgeStyle;" parent="a0PelQOWETDK6hBLnf5e-6" source="WIyWlLk6GJQsqaUBKTNV-3" target="WIyWlLk6GJQsqaUBKTNV-6" edge="1">
          <mxGeometry relative="1" as="geometry" />
        </mxCell>
        <mxCell id="WIyWlLk6GJQsqaUBKTNV-7" value="더하지 않는다." style="rounded=1;whiteSpace=wrap;html=1;fontSize=12;glass=0;strokeWidth=1;shadow=0;" parent="a0PelQOWETDK6hBLnf5e-6" vertex="1">
          <mxGeometry x="140" y="250" width="100" height="40" as="geometry" />
        </mxCell>
        <mxCell id="WIyWlLk6GJQsqaUBKTNV-10" value="sum += (i+1)" style="rounded=1;whiteSpace=wrap;html=1;fontSize=12;glass=0;strokeWidth=1;shadow=0;" parent="a0PelQOWETDK6hBLnf5e-6" vertex="1">
          <mxGeometry y="250" width="100" height="40" as="geometry" />
        </mxCell>
        <mxCell id="WIyWlLk6GJQsqaUBKTNV-4" value="Yes" style="rounded=0;html=1;jettySize=auto;orthogonalLoop=1;fontSize=11;endArrow=block;endFill=0;endSize=8;strokeWidth=1;shadow=0;labelBackgroundColor=none;edgeStyle=orthogonalEdgeStyle;" parent="a0PelQOWETDK6hBLnf5e-6" source="WIyWlLk6GJQsqaUBKTNV-6" target="WIyWlLk6GJQsqaUBKTNV-10" edge="1">
          <mxGeometry x="-0.2" y="-10" relative="1" as="geometry">
            <mxPoint as="offset" />
            <Array as="points">
              <mxPoint x="120" y="190" />
              <mxPoint x="50" y="190" />
            </Array>
          </mxGeometry>
        </mxCell>
        <mxCell id="a0PelQOWETDK6hBLnf5e-9" value="" style="group" parent="WIyWlLk6GJQsqaUBKTNV-1" vertex="1" connectable="0">
          <mxGeometry x="320" y="180" width="258" height="302" as="geometry" />
        </mxCell>
        <mxCell id="a0PelQOWETDK6hBLnf5e-10" value="int i = num" style="rounded=1;whiteSpace=wrap;html=1;fontSize=12;glass=0;strokeWidth=1;shadow=0;" parent="a0PelQOWETDK6hBLnf5e-9" vertex="1">
          <mxGeometry x="60" width="120" height="40" as="geometry" />
        </mxCell>
        <mxCell id="a0PelQOWETDK6hBLnf5e-12" value="num/60" style="rhombus;whiteSpace=wrap;html=1;shadow=0;fontFamily=Helvetica;fontSize=12;align=center;strokeWidth=1;spacing=6;spacingTop=-4;" parent="a0PelQOWETDK6hBLnf5e-9" vertex="1">
          <mxGeometry x="17" y="108" width="100" height="80" as="geometry" />
        </mxCell>
        <mxCell id="a0PelQOWETDK6hBLnf5e-13" value="" style="rounded=0;html=1;jettySize=auto;orthogonalLoop=1;fontSize=11;endArrow=block;endFill=0;endSize=8;strokeWidth=1;shadow=0;labelBackgroundColor=none;edgeStyle=orthogonalEdgeStyle;" parent="a0PelQOWETDK6hBLnf5e-9" source="a0PelQOWETDK6hBLnf5e-10" target="a0PelQOWETDK6hBLnf5e-12" edge="1">
          <mxGeometry relative="1" as="geometry" />
        </mxCell>
        <mxCell id="a0PelQOWETDK6hBLnf5e-15" value="n분" style="rounded=1;whiteSpace=wrap;html=1;fontSize=12;glass=0;strokeWidth=1;shadow=0;" parent="a0PelQOWETDK6hBLnf5e-9" vertex="1">
          <mxGeometry x="17" y="233" width="100" height="40" as="geometry" />
        </mxCell>
        <mxCell id="a0PelQOWETDK6hBLnf5e-29" value="" style="endArrow=block;html=1;exitX=0.5;exitY=1;exitDx=0;exitDy=0;rounded=0;shadow=0;strokeWidth=1;labelBackgroundColor=none;endFill=0;endSize=8;" parent="a0PelQOWETDK6hBLnf5e-9" source="a0PelQOWETDK6hBLnf5e-12" target="a0PelQOWETDK6hBLnf5e-15" edge="1">
          <mxGeometry width="50" height="50" relative="1" as="geometry">
            <mxPoint x="57" y="206" as="sourcePoint" />
            <mxPoint x="117" y="138" as="targetPoint" />
          </mxGeometry>
        </mxCell>
        <mxCell id="a0PelQOWETDK6hBLnf5e-21" value="num%60" style="rhombus;whiteSpace=wrap;html=1;shadow=0;fontFamily=Helvetica;fontSize=12;align=center;strokeWidth=1;spacing=6;spacingTop=-4;" parent="a0PelQOWETDK6hBLnf5e-9" vertex="1">
          <mxGeometry x="133" y="108" width="100" height="80" as="geometry" />
        </mxCell>
        <mxCell id="a0PelQOWETDK6hBLnf5e-22" value="" style="edgeStyle=orthogonalEdgeStyle;rounded=0;orthogonalLoop=1;jettySize=auto;html=1;shadow=0;strokeWidth=1;labelBackgroundColor=none;endFill=0;endArrow=block;endSize=8;" parent="a0PelQOWETDK6hBLnf5e-9" source="a0PelQOWETDK6hBLnf5e-10" target="a0PelQOWETDK6hBLnf5e-21" edge="1">
          <mxGeometry relative="1" as="geometry" />
        </mxCell>
        <mxCell id="a0PelQOWETDK6hBLnf5e-32" value="" style="endArrow=block;html=1;exitX=0.5;exitY=1;exitDx=0;exitDy=0;rounded=0;shadow=0;strokeWidth=1;labelBackgroundColor=none;endFill=0;endSize=8;" parent="a0PelQOWETDK6hBLnf5e-9" target="a0PelQOWETDK6hBLnf5e-33" edge="1">
          <mxGeometry width="50" height="50" relative="1" as="geometry">
            <mxPoint x="183" y="188" as="sourcePoint" />
            <mxPoint x="-97" y="-42" as="targetPoint" />
          </mxGeometry>
        </mxCell>
        <mxCell id="a0PelQOWETDK6hBLnf5e-33" value="(나머지)초" style="rounded=1;whiteSpace=wrap;html=1;fontSize=12;glass=0;strokeWidth=1;shadow=0;" parent="a0PelQOWETDK6hBLnf5e-9" vertex="1">
          <mxGeometry x="133" y="233" width="100" height="40" as="geometry" />
        </mxCell>
        <mxCell id="a0PelQOWETDK6hBLnf5e-35" value="int i=0; i &amp;lt; floor(입력값); i++" style="rounded=1;whiteSpace=wrap;html=1;fontSize=12;glass=0;strokeWidth=1;shadow=0;" parent="WIyWlLk6GJQsqaUBKTNV-1" vertex="1">
          <mxGeometry x="661" y="180" width="180" height="40" as="geometry" />
        </mxCell>
        <mxCell id="a0PelQOWETDK6hBLnf5e-36" value="in j = floor; &lt;br&gt;j&amp;gt;i; j--" style="rhombus;whiteSpace=wrap;html=1;shadow=0;fontFamily=Helvetica;fontSize=12;align=center;strokeWidth=1;spacing=6;spacingTop=-4;" parent="WIyWlLk6GJQsqaUBKTNV-1" vertex="1">
          <mxGeometry x="648" y="288" width="100" height="72" as="geometry" />
        </mxCell>
        <mxCell id="a0PelQOWETDK6hBLnf5e-37" value="" style="rounded=0;html=1;jettySize=auto;orthogonalLoop=1;fontSize=11;endArrow=block;endFill=0;endSize=8;strokeWidth=1;shadow=0;labelBackgroundColor=none;edgeStyle=orthogonalEdgeStyle;" parent="WIyWlLk6GJQsqaUBKTNV-1" source="a0PelQOWETDK6hBLnf5e-35" target="a0PelQOWETDK6hBLnf5e-36" edge="1">
          <mxGeometry relative="1" as="geometry" />
        </mxCell>
        <mxCell id="a0PelQOWETDK6hBLnf5e-46" value="yes" style="edgeLabel;html=1;align=center;verticalAlign=middle;resizable=0;points=[];" parent="a0PelQOWETDK6hBLnf5e-37" vertex="1" connectable="0">
          <mxGeometry x="-0.2397" relative="1" as="geometry">
            <mxPoint x="-13" y="-14" as="offset" />
          </mxGeometry>
        </mxCell>
        <mxCell id="a0PelQOWETDK6hBLnf5e-39" value="" style="endArrow=block;html=1;exitX=0.5;exitY=1;exitDx=0;exitDy=0;rounded=0;shadow=0;strokeWidth=1;labelBackgroundColor=none;endFill=0;endSize=8;" parent="WIyWlLk6GJQsqaUBKTNV-1" source="a0PelQOWETDK6hBLnf5e-36" edge="1">
          <mxGeometry width="50" height="50" relative="1" as="geometry">
            <mxPoint x="358" y="206" as="sourcePoint" />
            <mxPoint x="698" y="390" as="targetPoint" />
          </mxGeometry>
        </mxCell>
        <mxCell id="a0PelQOWETDK6hBLnf5e-40" value="종료" style="rounded=1;whiteSpace=wrap;html=1;fontSize=12;glass=0;strokeWidth=1;shadow=0;" parent="WIyWlLk6GJQsqaUBKTNV-1" vertex="1">
          <mxGeometry x="764" y="288" width="100" height="42" as="geometry" />
        </mxCell>
        <mxCell id="a0PelQOWETDK6hBLnf5e-41" value="" style="edgeStyle=orthogonalEdgeStyle;rounded=0;orthogonalLoop=1;jettySize=auto;html=1;shadow=0;strokeWidth=1;labelBackgroundColor=none;endFill=0;endArrow=block;endSize=8;" parent="WIyWlLk6GJQsqaUBKTNV-1" source="a0PelQOWETDK6hBLnf5e-35" target="a0PelQOWETDK6hBLnf5e-40" edge="1">
          <mxGeometry relative="1" as="geometry" />
        </mxCell>
        <mxCell id="a0PelQOWETDK6hBLnf5e-47" value="no" style="edgeLabel;html=1;align=center;verticalAlign=middle;resizable=0;points=[];" parent="a0PelQOWETDK6hBLnf5e-41" vertex="1" connectable="0">
          <mxGeometry x="0.2519" y="1" relative="1" as="geometry">
            <mxPoint x="-23" y="-13" as="offset" />
          </mxGeometry>
        </mxCell>
        <mxCell id="a0PelQOWETDK6hBLnf5e-44" value="&lt;div&gt;입력 : 5&lt;/div&gt;&lt;div&gt;출력 : 5층의 피라미드 별쌓기&lt;/div&gt;" style="rounded=1;whiteSpace=wrap;html=1;fontSize=12;glass=0;strokeWidth=1;shadow=0;fillColor=#f5f5f5;strokeColor=#666666;fontColor=#333333;" parent="WIyWlLk6GJQsqaUBKTNV-1" vertex="1">
          <mxGeometry x="631" y="70" width="240" height="80" as="geometry" />
        </mxCell>
        <mxCell id="a0PelQOWETDK6hBLnf5e-45" value="" style="group" parent="WIyWlLk6GJQsqaUBKTNV-1" vertex="1" connectable="0">
          <mxGeometry x="330" y="30" width="240" height="120" as="geometry" />
        </mxCell>
        <mxCell id="a0PelQOWETDK6hBLnf5e-8" value="&lt;font face=&quot;맑은 고딕&quot;&gt;숫자를 입력받고 다음과 같은 &lt;br&gt;출력을 보여주세요.&amp;nbsp;&lt;br&gt;입력 : 123 / 출력 : 2분 3초&lt;/font&gt;" style="rounded=1;whiteSpace=wrap;html=1;fontSize=12;glass=0;strokeWidth=1;shadow=0;fillColor=#f5f5f5;strokeColor=#666666;fontColor=#333333;" parent="a0PelQOWETDK6hBLnf5e-45" vertex="1">
          <mxGeometry y="40" width="240" height="80" as="geometry" />
        </mxCell>
        <mxCell id="a0PelQOWETDK6hBLnf5e-7" value="문제&lt;br&gt;2번" style="ellipse;whiteSpace=wrap;html=1;aspect=fixed;fillColor=#d5e8d4;strokeColor=#82b366;" parent="a0PelQOWETDK6hBLnf5e-45" vertex="1">
          <mxGeometry x="95" width="50" height="50" as="geometry" />
        </mxCell>
        <mxCell id="a0PelQOWETDK6hBLnf5e-34" value="문제&lt;br&gt;3번" style="ellipse;whiteSpace=wrap;html=1;aspect=fixed;fillColor=#d5e8d4;strokeColor=#82b366;" parent="WIyWlLk6GJQsqaUBKTNV-1" vertex="1">
          <mxGeometry x="726" y="30" width="50" height="50" as="geometry" />
        </mxCell>
        <mxCell id="a0PelQOWETDK6hBLnf5e-48" value="공백출력" style="rounded=1;whiteSpace=wrap;html=1;fontSize=12;glass=0;strokeWidth=1;shadow=0;" parent="WIyWlLk6GJQsqaUBKTNV-1" vertex="1">
          <mxGeometry x="648" y="390" width="100" height="42" as="geometry" />
        </mxCell>
        <mxCell id="a0PelQOWETDK6hBLnf5e-50" value="int k=0;&lt;br&gt;k =&amp;nbsp; (2*i)+1&lt;br&gt;k++" style="rhombus;whiteSpace=wrap;html=1;shadow=0;fontFamily=Helvetica;fontSize=12;align=center;strokeWidth=1;spacing=6;spacingTop=-4;" parent="WIyWlLk6GJQsqaUBKTNV-1" vertex="1">
          <mxGeometry x="648" y="460" width="100" height="67" as="geometry" />
        </mxCell>
        <mxCell id="a0PelQOWETDK6hBLnf5e-55" value="*출력" style="rounded=1;whiteSpace=wrap;html=1;fontSize=12;glass=0;strokeWidth=1;shadow=0;" parent="WIyWlLk6GJQsqaUBKTNV-1" vertex="1">
          <mxGeometry x="648" y="550" width="100" height="42" as="geometry" />
        </mxCell>
        <mxCell id="a0PelQOWETDK6hBLnf5e-56" value="문제&lt;br&gt;4번" style="ellipse;whiteSpace=wrap;html=1;aspect=fixed;fillColor=#d5e8d4;strokeColor=#82b366;" parent="WIyWlLk6GJQsqaUBKTNV-1" vertex="1">
          <mxGeometry x="1025" y="30" width="50" height="50" as="geometry" />
        </mxCell>
        <mxCell id="a0PelQOWETDK6hBLnf5e-61" value="" style="endArrow=block;html=1;exitX=0.5;exitY=1;exitDx=0;exitDy=0;rounded=0;shadow=0;strokeWidth=1;labelBackgroundColor=none;endFill=0;endSize=8;entryX=0.5;entryY=0;entryDx=0;entryDy=0;" parent="WIyWlLk6GJQsqaUBKTNV-1" source="a0PelQOWETDK6hBLnf5e-50" target="a0PelQOWETDK6hBLnf5e-55" edge="1">
          <mxGeometry width="50" height="50" relative="1" as="geometry">
            <mxPoint x="704" y="521" as="sourcePoint" />
            <mxPoint x="704" y="551" as="targetPoint" />
          </mxGeometry>
        </mxCell>
        <mxCell id="a0PelQOWETDK6hBLnf5e-62" value="" style="endArrow=block;html=1;exitX=0.5;exitY=1;exitDx=0;exitDy=0;rounded=0;shadow=0;strokeWidth=1;labelBackgroundColor=none;endFill=0;endSize=8;entryX=0.5;entryY=0;entryDx=0;entryDy=0;" parent="WIyWlLk6GJQsqaUBKTNV-1" target="a0PelQOWETDK6hBLnf5e-50" edge="1">
          <mxGeometry width="50" height="50" relative="1" as="geometry">
            <mxPoint x="697.58" y="432" as="sourcePoint" />
            <mxPoint x="698" y="450" as="targetPoint" />
          </mxGeometry>
        </mxCell>
        <mxCell id="a0PelQOWETDK6hBLnf5e-64" value="줄바꿈" style="rounded=1;whiteSpace=wrap;html=1;fontSize=12;glass=0;strokeWidth=1;shadow=0;" parent="WIyWlLk6GJQsqaUBKTNV-1" vertex="1">
          <mxGeometry x="648" y="630" width="100" height="42" as="geometry" />
        </mxCell>
        <mxCell id="a0PelQOWETDK6hBLnf5e-65" value="" style="endArrow=block;html=1;exitX=0.5;exitY=1;exitDx=0;exitDy=0;rounded=0;shadow=0;strokeWidth=1;labelBackgroundColor=none;endFill=0;endSize=8;entryX=0.5;entryY=0;entryDx=0;entryDy=0;" parent="WIyWlLk6GJQsqaUBKTNV-1" source="a0PelQOWETDK6hBLnf5e-55" edge="1">
          <mxGeometry width="50" height="50" relative="1" as="geometry">
            <mxPoint x="698" y="608" as="sourcePoint" />
            <mxPoint x="698" y="631" as="targetPoint" />
          </mxGeometry>
        </mxCell>
        <mxCell id="a0PelQOWETDK6hBLnf5e-66" value="" style="rounded=0;html=1;jettySize=auto;orthogonalLoop=1;fontSize=11;endArrow=block;endFill=0;endSize=8;strokeWidth=1;shadow=0;labelBackgroundColor=none;edgeStyle=orthogonalEdgeStyle;" parent="WIyWlLk6GJQsqaUBKTNV-1" source="a0PelQOWETDK6hBLnf5e-72" target="a0PelQOWETDK6hBLnf5e-70" edge="1">
          <mxGeometry relative="1" as="geometry" />
        </mxCell>
        <mxCell id="a0PelQOWETDK6hBLnf5e-67" value="yes" style="edgeLabel;html=1;align=center;verticalAlign=middle;resizable=0;points=[];" parent="a0PelQOWETDK6hBLnf5e-66" vertex="1" connectable="0">
          <mxGeometry x="-0.2397" relative="1" as="geometry">
            <mxPoint x="-13" y="23.33" as="offset" />
          </mxGeometry>
        </mxCell>
        <mxCell id="a0PelQOWETDK6hBLnf5e-76" value="" style="rounded=0;html=1;jettySize=auto;orthogonalLoop=1;fontSize=11;endArrow=block;endFill=0;endSize=8;strokeWidth=1;shadow=0;labelBackgroundColor=none;edgeStyle=orthogonalEdgeStyle;" parent="WIyWlLk6GJQsqaUBKTNV-1" source="a0PelQOWETDK6hBLnf5e-70" target="a0PelQOWETDK6hBLnf5e-71" edge="1">
          <mxGeometry relative="1" as="geometry" />
        </mxCell>
        <mxCell id="a0PelQOWETDK6hBLnf5e-70" value="in j = 1; &lt;br&gt;j&amp;gt;10; j++" style="rhombus;whiteSpace=wrap;html=1;shadow=0;fontFamily=Helvetica;fontSize=12;align=center;strokeWidth=1;spacing=6;spacingTop=-4;" parent="WIyWlLk6GJQsqaUBKTNV-1" vertex="1">
          <mxGeometry x="994" y="290" width="100" height="72" as="geometry" />
        </mxCell>
        <mxCell id="a0PelQOWETDK6hBLnf5e-71" value="i*j=(i*j)&lt;br&gt;i&amp;lt;10 &amp;amp;&amp;amp; j &amp;lt;10&lt;br&gt;i++, j++&lt;br&gt;&lt;br&gt;2*1=2&lt;br&gt;...&lt;br&gt;2*9=18&lt;br&gt;&lt;br&gt;9*1=9&lt;br&gt;....&lt;br&gt;9*9=81&lt;br&gt;" style="rounded=1;whiteSpace=wrap;html=1;fontSize=12;glass=0;strokeWidth=1;shadow=0;" parent="WIyWlLk6GJQsqaUBKTNV-1" vertex="1">
          <mxGeometry x="994" y="410" width="100" height="190" as="geometry" />
        </mxCell>
        <mxCell id="a0PelQOWETDK6hBLnf5e-74" value="" style="rounded=0;html=1;jettySize=auto;orthogonalLoop=1;fontSize=11;endArrow=block;endFill=0;endSize=8;strokeWidth=1;shadow=0;labelBackgroundColor=none;edgeStyle=orthogonalEdgeStyle;" parent="WIyWlLk6GJQsqaUBKTNV-1" source="a0PelQOWETDK6hBLnf5e-72" target="a0PelQOWETDK6hBLnf5e-73" edge="1">
          <mxGeometry relative="1" as="geometry">
            <Array as="points">
              <mxPoint x="1044" y="250" />
              <mxPoint x="1194" y="250" />
            </Array>
          </mxGeometry>
        </mxCell>
        <mxCell id="a0PelQOWETDK6hBLnf5e-75" value="no" style="edgeLabel;html=1;align=center;verticalAlign=middle;resizable=0;points=[];" parent="a0PelQOWETDK6hBLnf5e-74" vertex="1" connectable="0">
          <mxGeometry x="-0.1622" y="3" relative="1" as="geometry">
            <mxPoint x="64.33" y="23" as="offset" />
          </mxGeometry>
        </mxCell>
        <mxCell id="a0PelQOWETDK6hBLnf5e-72" value="int i=2; i &amp;lt; 10; i++" style="rounded=1;whiteSpace=wrap;html=1;fontSize=12;glass=0;strokeWidth=1;shadow=0;" parent="WIyWlLk6GJQsqaUBKTNV-1" vertex="1">
          <mxGeometry x="954" y="180" width="180" height="40" as="geometry" />
        </mxCell>
        <mxCell id="a0PelQOWETDK6hBLnf5e-73" value="&lt;span&gt;종료&lt;/span&gt;" style="rounded=1;whiteSpace=wrap;html=1;fontSize=12;glass=0;strokeWidth=1;shadow=0;" parent="WIyWlLk6GJQsqaUBKTNV-1" vertex="1">
          <mxGeometry x="1134" y="313" width="120" height="36" as="geometry" />
        </mxCell>
        <mxCell id="a0PelQOWETDK6hBLnf5e-77" value="&lt;font face=&quot;맑은 고딕&quot;&gt;현재의 달을 입력받고, 계절을 &lt;br&gt;출력하는 프로그램을 작성하시오.&lt;/font&gt;" style="rounded=1;whiteSpace=wrap;html=1;fontSize=12;glass=0;strokeWidth=1;shadow=0;fillColor=#f5f5f5;strokeColor=#666666;fontColor=#333333;" parent="WIyWlLk6GJQsqaUBKTNV-1" vertex="1">
          <mxGeometry x="30" y="770" width="240" height="80" as="geometry" />
        </mxCell>
        <mxCell id="a0PelQOWETDK6hBLnf5e-78" value="문제&lt;br&gt;5번" style="ellipse;whiteSpace=wrap;html=1;aspect=fixed;fillColor=#d5e8d4;strokeColor=#82b366;" parent="WIyWlLk6GJQsqaUBKTNV-1" vertex="1">
          <mxGeometry x="125" y="730" width="50" height="50" as="geometry" />
        </mxCell>
        <mxCell id="a0PelQOWETDK6hBLnf5e-79" value="" style="group" parent="WIyWlLk6GJQsqaUBKTNV-1" vertex="1" connectable="0">
          <mxGeometry x="30" y="880" width="329" height="290" as="geometry" />
        </mxCell>
        <mxCell id="a0PelQOWETDK6hBLnf5e-80" value="int month = 1~12;" style="rounded=1;whiteSpace=wrap;html=1;fontSize=12;glass=0;strokeWidth=1;shadow=0;" parent="a0PelQOWETDK6hBLnf5e-79" vertex="1">
          <mxGeometry x="60" width="120" height="40" as="geometry" />
        </mxCell>
        <mxCell id="a0PelQOWETDK6hBLnf5e-82" value="case 12:&lt;br&gt;case 1:&lt;br&gt;case 2:" style="rhombus;whiteSpace=wrap;html=1;shadow=0;fontFamily=Helvetica;fontSize=12;align=center;strokeWidth=1;spacing=6;spacingTop=-4;" parent="a0PelQOWETDK6hBLnf5e-79" vertex="1">
          <mxGeometry x="70" y="71" width="100" height="80" as="geometry" />
        </mxCell>
        <mxCell id="a0PelQOWETDK6hBLnf5e-83" value="" style="rounded=0;html=1;jettySize=auto;orthogonalLoop=1;fontSize=11;endArrow=block;endFill=0;endSize=8;strokeWidth=1;shadow=0;labelBackgroundColor=none;edgeStyle=orthogonalEdgeStyle;" parent="a0PelQOWETDK6hBLnf5e-79" source="a0PelQOWETDK6hBLnf5e-80" target="a0PelQOWETDK6hBLnf5e-82" edge="1">
          <mxGeometry relative="1" as="geometry" />
        </mxCell>
        <mxCell id="a0PelQOWETDK6hBLnf5e-85" value="겨울" style="rounded=1;whiteSpace=wrap;html=1;fontSize=12;glass=0;strokeWidth=1;shadow=0;" parent="a0PelQOWETDK6hBLnf5e-79" vertex="1">
          <mxGeometry x="235" y="91" width="100" height="40" as="geometry" />
        </mxCell>
        <mxCell id="a0PelQOWETDK6hBLnf5e-90" value="" style="rounded=0;html=1;jettySize=auto;orthogonalLoop=1;fontSize=11;endArrow=block;endFill=0;endSize=8;strokeWidth=1;shadow=0;labelBackgroundColor=none;edgeStyle=orthogonalEdgeStyle;exitX=1;exitY=0.5;exitDx=0;exitDy=0;" parent="a0PelQOWETDK6hBLnf5e-79" source="a0PelQOWETDK6hBLnf5e-82" target="a0PelQOWETDK6hBLnf5e-85" edge="1">
          <mxGeometry relative="1" as="geometry">
            <mxPoint x="200" y="991" as="sourcePoint" />
            <mxPoint x="294" y="979" as="targetPoint" />
          </mxGeometry>
        </mxCell>
        <mxCell id="a0PelQOWETDK6hBLnf5e-102" value="" style="rounded=0;html=1;jettySize=auto;orthogonalLoop=1;fontSize=11;endArrow=block;endFill=0;endSize=8;strokeWidth=1;shadow=0;labelBackgroundColor=none;edgeStyle=orthogonalEdgeStyle;exitX=1;exitY=0.5;exitDx=0;exitDy=0;" parent="WIyWlLk6GJQsqaUBKTNV-1" source="a0PelQOWETDK6hBLnf5e-103" target="a0PelQOWETDK6hBLnf5e-104" edge="1">
          <mxGeometry relative="1" as="geometry">
            <mxPoint x="200" y="1102" as="sourcePoint" />
            <mxPoint x="294" y="1090" as="targetPoint" />
          </mxGeometry>
        </mxCell>
        <mxCell id="a0PelQOWETDK6hBLnf5e-103" value="case 3:&lt;br&gt;case 4:&lt;br&gt;case 5:" style="rhombus;whiteSpace=wrap;html=1;shadow=0;fontFamily=Helvetica;fontSize=12;align=center;strokeWidth=1;spacing=6;spacingTop=-4;" parent="WIyWlLk6GJQsqaUBKTNV-1" vertex="1">
          <mxGeometry x="100" y="1062" width="100" height="80" as="geometry" />
        </mxCell>
        <mxCell id="a0PelQOWETDK6hBLnf5e-104" value="봄" style="rounded=1;whiteSpace=wrap;html=1;fontSize=12;glass=0;strokeWidth=1;shadow=0;" parent="WIyWlLk6GJQsqaUBKTNV-1" vertex="1">
          <mxGeometry x="265" y="1082" width="100" height="40" as="geometry" />
        </mxCell>
        <mxCell id="a0PelQOWETDK6hBLnf5e-105" value="" style="rounded=0;html=1;jettySize=auto;orthogonalLoop=1;fontSize=11;endArrow=block;endFill=0;endSize=8;strokeWidth=1;shadow=0;labelBackgroundColor=none;edgeStyle=orthogonalEdgeStyle;" parent="WIyWlLk6GJQsqaUBKTNV-1" target="a0PelQOWETDK6hBLnf5e-103" edge="1">
          <mxGeometry relative="1" as="geometry">
            <mxPoint x="150" y="1031" as="sourcePoint" />
          </mxGeometry>
        </mxCell>
        <mxCell id="a0PelQOWETDK6hBLnf5e-106" value="" style="rounded=0;html=1;jettySize=auto;orthogonalLoop=1;fontSize=11;endArrow=block;endFill=0;endSize=8;strokeWidth=1;shadow=0;labelBackgroundColor=none;edgeStyle=orthogonalEdgeStyle;exitX=1;exitY=0.5;exitDx=0;exitDy=0;" parent="WIyWlLk6GJQsqaUBKTNV-1" source="a0PelQOWETDK6hBLnf5e-107" target="a0PelQOWETDK6hBLnf5e-108" edge="1">
          <mxGeometry relative="1" as="geometry">
            <mxPoint x="200" y="1212" as="sourcePoint" />
            <mxPoint x="294" y="1200" as="targetPoint" />
          </mxGeometry>
        </mxCell>
        <mxCell id="a0PelQOWETDK6hBLnf5e-107" value="case 6:&lt;br&gt;case 7:&lt;br&gt;case 8:" style="rhombus;whiteSpace=wrap;html=1;shadow=0;fontFamily=Helvetica;fontSize=12;align=center;strokeWidth=1;spacing=6;spacingTop=-4;" parent="WIyWlLk6GJQsqaUBKTNV-1" vertex="1">
          <mxGeometry x="100" y="1172" width="100" height="80" as="geometry" />
        </mxCell>
        <mxCell id="a0PelQOWETDK6hBLnf5e-108" value="여름" style="rounded=1;whiteSpace=wrap;html=1;fontSize=12;glass=0;strokeWidth=1;shadow=0;" parent="WIyWlLk6GJQsqaUBKTNV-1" vertex="1">
          <mxGeometry x="265" y="1192" width="100" height="40" as="geometry" />
        </mxCell>
        <mxCell id="a0PelQOWETDK6hBLnf5e-109" value="" style="rounded=0;html=1;jettySize=auto;orthogonalLoop=1;fontSize=11;endArrow=block;endFill=0;endSize=8;strokeWidth=1;shadow=0;labelBackgroundColor=none;edgeStyle=orthogonalEdgeStyle;" parent="WIyWlLk6GJQsqaUBKTNV-1" target="a0PelQOWETDK6hBLnf5e-107" edge="1">
          <mxGeometry relative="1" as="geometry">
            <mxPoint x="150" y="1141" as="sourcePoint" />
          </mxGeometry>
        </mxCell>
        <mxCell id="a0PelQOWETDK6hBLnf5e-110" value="" style="rounded=0;html=1;jettySize=auto;orthogonalLoop=1;fontSize=11;endArrow=block;endFill=0;endSize=8;strokeWidth=1;shadow=0;labelBackgroundColor=none;edgeStyle=orthogonalEdgeStyle;exitX=1;exitY=0.5;exitDx=0;exitDy=0;" parent="WIyWlLk6GJQsqaUBKTNV-1" source="a0PelQOWETDK6hBLnf5e-111" target="a0PelQOWETDK6hBLnf5e-112" edge="1">
          <mxGeometry relative="1" as="geometry">
            <mxPoint x="200" y="1322" as="sourcePoint" />
            <mxPoint x="294" y="1310" as="targetPoint" />
          </mxGeometry>
        </mxCell>
        <mxCell id="a0PelQOWETDK6hBLnf5e-111" value="case 9:&lt;br&gt;case 10:&lt;br&gt;case 11:" style="rhombus;whiteSpace=wrap;html=1;shadow=0;fontFamily=Helvetica;fontSize=12;align=center;strokeWidth=1;spacing=6;spacingTop=-4;" parent="WIyWlLk6GJQsqaUBKTNV-1" vertex="1">
          <mxGeometry x="100" y="1282" width="100" height="80" as="geometry" />
        </mxCell>
        <mxCell id="a0PelQOWETDK6hBLnf5e-112" value="가을" style="rounded=1;whiteSpace=wrap;html=1;fontSize=12;glass=0;strokeWidth=1;shadow=0;" parent="WIyWlLk6GJQsqaUBKTNV-1" vertex="1">
          <mxGeometry x="265" y="1302" width="100" height="40" as="geometry" />
        </mxCell>
        <mxCell id="a0PelQOWETDK6hBLnf5e-113" value="" style="rounded=0;html=1;jettySize=auto;orthogonalLoop=1;fontSize=11;endArrow=block;endFill=0;endSize=8;strokeWidth=1;shadow=0;labelBackgroundColor=none;edgeStyle=orthogonalEdgeStyle;" parent="WIyWlLk6GJQsqaUBKTNV-1" target="a0PelQOWETDK6hBLnf5e-111" edge="1">
          <mxGeometry relative="1" as="geometry">
            <mxPoint x="150" y="1251" as="sourcePoint" />
          </mxGeometry>
        </mxCell>
        <mxCell id="a0PelQOWETDK6hBLnf5e-114" value="" style="rounded=0;html=1;jettySize=auto;orthogonalLoop=1;fontSize=11;endArrow=block;endFill=0;endSize=8;strokeWidth=1;shadow=0;labelBackgroundColor=none;edgeStyle=orthogonalEdgeStyle;" parent="WIyWlLk6GJQsqaUBKTNV-1" target="a0PelQOWETDK6hBLnf5e-116" edge="1">
          <mxGeometry relative="1" as="geometry">
            <mxPoint x="150" y="1363" as="sourcePoint" />
          </mxGeometry>
        </mxCell>
        <mxCell id="a0PelQOWETDK6hBLnf5e-115" value="" style="rounded=0;html=1;jettySize=auto;orthogonalLoop=1;fontSize=11;endArrow=block;endFill=0;endSize=8;strokeWidth=1;shadow=0;labelBackgroundColor=none;edgeStyle=orthogonalEdgeStyle;exitX=1;exitY=0.5;exitDx=0;exitDy=0;" parent="WIyWlLk6GJQsqaUBKTNV-1" source="a0PelQOWETDK6hBLnf5e-116" target="a0PelQOWETDK6hBLnf5e-117" edge="1">
          <mxGeometry relative="1" as="geometry">
            <mxPoint x="200" y="1434" as="sourcePoint" />
            <mxPoint x="294" y="1422" as="targetPoint" />
          </mxGeometry>
        </mxCell>
        <mxCell id="a0PelQOWETDK6hBLnf5e-116" value="default:" style="rhombus;whiteSpace=wrap;html=1;shadow=0;fontFamily=Helvetica;fontSize=12;align=center;strokeWidth=1;spacing=6;spacingTop=-4;" parent="WIyWlLk6GJQsqaUBKTNV-1" vertex="1">
          <mxGeometry x="100" y="1394" width="100" height="80" as="geometry" />
        </mxCell>
        <mxCell id="a0PelQOWETDK6hBLnf5e-117" value="잘못된 값입니다." style="rounded=1;whiteSpace=wrap;html=1;fontSize=12;glass=0;strokeWidth=1;shadow=0;" parent="WIyWlLk6GJQsqaUBKTNV-1" vertex="1">
          <mxGeometry x="265" y="1414" width="100" height="40" as="geometry" />
        </mxCell>
        <mxCell id="a0PelQOWETDK6hBLnf5e-119" value="&lt;div style=&quot;text-align: left&quot;&gt;&lt;span style=&quot;font-family: &amp;#34;맑은 고딕&amp;#34;&quot;&gt;출력 1:&amp;nbsp;&lt;/span&gt;&lt;font face=&quot;맑은 고딕&quot;&gt;int x,&lt;/font&gt;&lt;span style=&quot;font-family: &amp;#34;맑은 고딕&amp;#34;&quot;&gt;int&amp;nbsp;&lt;/span&gt;&lt;font face=&quot;맑은 고딕&quot;&gt;y&amp;gt;0;&amp;nbsp;&lt;/font&gt;&lt;/div&gt;&lt;span style=&quot;font-family: &amp;#34;맑은 고딕&amp;#34;&quot;&gt;&lt;div style=&quot;text-align: left&quot;&gt;&lt;span&gt;출력 2:&amp;nbsp;&lt;/span&gt;&lt;font face=&quot;맑은 고딕&quot;&gt;int x&amp;lt;0,&lt;/font&gt;&lt;span&gt;int&amp;nbsp;&lt;/span&gt;&lt;font face=&quot;맑은 고딕&quot;&gt;y&amp;gt;0;&amp;nbsp;&lt;/font&gt;&lt;/div&gt;&lt;/span&gt;&lt;span style=&quot;font-family: &amp;#34;맑은 고딕&amp;#34;&quot;&gt;&lt;div style=&quot;text-align: left&quot;&gt;&lt;span&gt;출력 3:&amp;nbsp;&lt;/span&gt;&lt;font face=&quot;맑은 고딕&quot;&gt;int x&amp;lt;0,&lt;/font&gt;&lt;span&gt;int&amp;nbsp;&lt;/span&gt;&lt;font face=&quot;맑은 고딕&quot;&gt;y&lt;/font&gt;&amp;lt;0&lt;font face=&quot;맑은 고딕&quot;&gt;;&amp;nbsp;&lt;/font&gt;&lt;/div&gt;&lt;/span&gt;&lt;span style=&quot;font-family: &amp;#34;맑은 고딕&amp;#34;&quot;&gt;&lt;div style=&quot;text-align: left&quot;&gt;&lt;span&gt;출력 4:&amp;nbsp;&lt;/span&gt;&lt;font face=&quot;맑은 고딕&quot;&gt;int x&amp;gt;0,&lt;/font&gt;&lt;span&gt;int&amp;nbsp;&lt;/span&gt;&lt;font face=&quot;맑은 고딕&quot;&gt;y&amp;lt;0;&lt;/font&gt;&lt;/div&gt;&lt;div style=&quot;text-align: left&quot;&gt;&lt;font face=&quot;맑은 고딕&quot;&gt;&lt;br&gt;&lt;/font&gt;&lt;/div&gt;&lt;div style=&quot;text-align: left&quot;&gt;&lt;font face=&quot;맑은 고딕&quot;&gt;출력 0: int x, y ==0&amp;nbsp;&lt;/font&gt;&lt;/div&gt;&lt;/span&gt;" style="rounded=1;whiteSpace=wrap;html=1;fontSize=12;glass=0;strokeWidth=1;shadow=0;fillColor=#f5f5f5;strokeColor=#666666;fontColor=#333333;" parent="WIyWlLk6GJQsqaUBKTNV-1" vertex="1">
          <mxGeometry x="454" y="770" width="240" height="108" as="geometry" />
        </mxCell>
        <mxCell id="a0PelQOWETDK6hBLnf5e-118" value="문제&lt;br&gt;6번" style="ellipse;whiteSpace=wrap;html=1;aspect=fixed;fillColor=#d5e8d4;strokeColor=#82b366;" parent="WIyWlLk6GJQsqaUBKTNV-1" vertex="1">
          <mxGeometry x="549" y="730" width="50" height="50" as="geometry" />
        </mxCell>
        <mxCell id="a0PelQOWETDK6hBLnf5e-125" value="int x &amp;gt;0,&lt;br&gt;int y &amp;gt;0" style="rhombus;whiteSpace=wrap;html=1;shadow=0;fontFamily=Helvetica;fontSize=12;align=center;strokeWidth=1;spacing=6;spacingTop=-4;" parent="WIyWlLk6GJQsqaUBKTNV-1" vertex="1">
          <mxGeometry x="525" y="990" width="100" height="80" as="geometry" />
        </mxCell>
        <mxCell id="a0PelQOWETDK6hBLnf5e-126" value="" style="rounded=0;html=1;jettySize=auto;orthogonalLoop=1;fontSize=11;endArrow=block;endFill=0;endSize=8;strokeWidth=1;shadow=0;labelBackgroundColor=none;edgeStyle=orthogonalEdgeStyle;" parent="WIyWlLk6GJQsqaUBKTNV-1" source="a0PelQOWETDK6hBLnf5e-145" target="a0PelQOWETDK6hBLnf5e-125" edge="1">
          <mxGeometry relative="1" as="geometry" />
        </mxCell>
        <mxCell id="a0PelQOWETDK6hBLnf5e-127" value="1" style="rounded=1;whiteSpace=wrap;html=1;fontSize=12;glass=0;strokeWidth=1;shadow=0;" parent="WIyWlLk6GJQsqaUBKTNV-1" vertex="1">
          <mxGeometry x="690" y="1010" width="100" height="40" as="geometry" />
        </mxCell>
        <mxCell id="a0PelQOWETDK6hBLnf5e-128" value="" style="rounded=0;html=1;jettySize=auto;orthogonalLoop=1;fontSize=11;endArrow=block;endFill=0;endSize=8;strokeWidth=1;shadow=0;labelBackgroundColor=none;edgeStyle=orthogonalEdgeStyle;exitX=1;exitY=0.5;exitDx=0;exitDy=0;" parent="WIyWlLk6GJQsqaUBKTNV-1" source="a0PelQOWETDK6hBLnf5e-125" target="a0PelQOWETDK6hBLnf5e-127" edge="1">
          <mxGeometry relative="1" as="geometry">
            <mxPoint x="625" y="1030" as="sourcePoint" />
            <mxPoint x="719" y="1018" as="targetPoint" />
          </mxGeometry>
        </mxCell>
        <mxCell id="a0PelQOWETDK6hBLnf5e-129" value="" style="rounded=0;html=1;jettySize=auto;orthogonalLoop=1;fontSize=11;endArrow=block;endFill=0;endSize=8;strokeWidth=1;shadow=0;labelBackgroundColor=none;edgeStyle=orthogonalEdgeStyle;exitX=1;exitY=0.5;exitDx=0;exitDy=0;" parent="WIyWlLk6GJQsqaUBKTNV-1" source="a0PelQOWETDK6hBLnf5e-130" target="a0PelQOWETDK6hBLnf5e-131" edge="1">
          <mxGeometry relative="1" as="geometry">
            <mxPoint x="625" y="1141" as="sourcePoint" />
            <mxPoint x="719" y="1129" as="targetPoint" />
          </mxGeometry>
        </mxCell>
        <mxCell id="a0PelQOWETDK6hBLnf5e-130" value="int x&amp;lt;0,&lt;br&gt;int y&amp;gt;0&amp;nbsp;" style="rhombus;whiteSpace=wrap;html=1;shadow=0;fontFamily=Helvetica;fontSize=12;align=center;strokeWidth=1;spacing=6;spacingTop=-4;" parent="WIyWlLk6GJQsqaUBKTNV-1" vertex="1">
          <mxGeometry x="525" y="1101" width="100" height="80" as="geometry" />
        </mxCell>
        <mxCell id="a0PelQOWETDK6hBLnf5e-131" value="2" style="rounded=1;whiteSpace=wrap;html=1;fontSize=12;glass=0;strokeWidth=1;shadow=0;" parent="WIyWlLk6GJQsqaUBKTNV-1" vertex="1">
          <mxGeometry x="690" y="1121" width="100" height="40" as="geometry" />
        </mxCell>
        <mxCell id="a0PelQOWETDK6hBLnf5e-132" value="" style="rounded=0;html=1;jettySize=auto;orthogonalLoop=1;fontSize=11;endArrow=block;endFill=0;endSize=8;strokeWidth=1;shadow=0;labelBackgroundColor=none;edgeStyle=orthogonalEdgeStyle;" parent="WIyWlLk6GJQsqaUBKTNV-1" target="a0PelQOWETDK6hBLnf5e-130" edge="1">
          <mxGeometry relative="1" as="geometry">
            <mxPoint x="574.9999999999998" y="1070" as="sourcePoint" />
          </mxGeometry>
        </mxCell>
        <mxCell id="a0PelQOWETDK6hBLnf5e-133" value="" style="rounded=0;html=1;jettySize=auto;orthogonalLoop=1;fontSize=11;endArrow=block;endFill=0;endSize=8;strokeWidth=1;shadow=0;labelBackgroundColor=none;edgeStyle=orthogonalEdgeStyle;exitX=1;exitY=0.5;exitDx=0;exitDy=0;" parent="WIyWlLk6GJQsqaUBKTNV-1" source="a0PelQOWETDK6hBLnf5e-134" target="a0PelQOWETDK6hBLnf5e-135" edge="1">
          <mxGeometry relative="1" as="geometry">
            <mxPoint x="625" y="1251" as="sourcePoint" />
            <mxPoint x="719" y="1239" as="targetPoint" />
          </mxGeometry>
        </mxCell>
        <mxCell id="a0PelQOWETDK6hBLnf5e-134" value="int x&amp;lt;0,&lt;br&gt;int y&amp;lt;0" style="rhombus;whiteSpace=wrap;html=1;shadow=0;fontFamily=Helvetica;fontSize=12;align=center;strokeWidth=1;spacing=6;spacingTop=-4;" parent="WIyWlLk6GJQsqaUBKTNV-1" vertex="1">
          <mxGeometry x="525" y="1211" width="100" height="80" as="geometry" />
        </mxCell>
        <mxCell id="a0PelQOWETDK6hBLnf5e-135" value="3" style="rounded=1;whiteSpace=wrap;html=1;fontSize=12;glass=0;strokeWidth=1;shadow=0;" parent="WIyWlLk6GJQsqaUBKTNV-1" vertex="1">
          <mxGeometry x="690" y="1231" width="100" height="40" as="geometry" />
        </mxCell>
        <mxCell id="a0PelQOWETDK6hBLnf5e-136" value="" style="rounded=0;html=1;jettySize=auto;orthogonalLoop=1;fontSize=11;endArrow=block;endFill=0;endSize=8;strokeWidth=1;shadow=0;labelBackgroundColor=none;edgeStyle=orthogonalEdgeStyle;" parent="WIyWlLk6GJQsqaUBKTNV-1" target="a0PelQOWETDK6hBLnf5e-134" edge="1">
          <mxGeometry relative="1" as="geometry">
            <mxPoint x="574.9999999999998" y="1180" as="sourcePoint" />
          </mxGeometry>
        </mxCell>
        <mxCell id="a0PelQOWETDK6hBLnf5e-137" value="" style="rounded=0;html=1;jettySize=auto;orthogonalLoop=1;fontSize=11;endArrow=block;endFill=0;endSize=8;strokeWidth=1;shadow=0;labelBackgroundColor=none;edgeStyle=orthogonalEdgeStyle;exitX=1;exitY=0.5;exitDx=0;exitDy=0;" parent="WIyWlLk6GJQsqaUBKTNV-1" source="a0PelQOWETDK6hBLnf5e-138" target="a0PelQOWETDK6hBLnf5e-139" edge="1">
          <mxGeometry relative="1" as="geometry">
            <mxPoint x="625" y="1361" as="sourcePoint" />
            <mxPoint x="719" y="1349" as="targetPoint" />
          </mxGeometry>
        </mxCell>
        <mxCell id="a0PelQOWETDK6hBLnf5e-138" value="int x&amp;gt;0,&lt;br&gt;int y&amp;lt;0" style="rhombus;whiteSpace=wrap;html=1;shadow=0;fontFamily=Helvetica;fontSize=12;align=center;strokeWidth=1;spacing=6;spacingTop=-4;" parent="WIyWlLk6GJQsqaUBKTNV-1" vertex="1">
          <mxGeometry x="525" y="1321" width="100" height="80" as="geometry" />
        </mxCell>
        <mxCell id="a0PelQOWETDK6hBLnf5e-139" value="4" style="rounded=1;whiteSpace=wrap;html=1;fontSize=12;glass=0;strokeWidth=1;shadow=0;" parent="WIyWlLk6GJQsqaUBKTNV-1" vertex="1">
          <mxGeometry x="690" y="1341" width="100" height="40" as="geometry" />
        </mxCell>
        <mxCell id="a0PelQOWETDK6hBLnf5e-140" value="" style="rounded=0;html=1;jettySize=auto;orthogonalLoop=1;fontSize=11;endArrow=block;endFill=0;endSize=8;strokeWidth=1;shadow=0;labelBackgroundColor=none;edgeStyle=orthogonalEdgeStyle;" parent="WIyWlLk6GJQsqaUBKTNV-1" target="a0PelQOWETDK6hBLnf5e-138" edge="1">
          <mxGeometry relative="1" as="geometry">
            <mxPoint x="574.9999999999998" y="1290" as="sourcePoint" />
          </mxGeometry>
        </mxCell>
        <mxCell id="a0PelQOWETDK6hBLnf5e-141" value="" style="rounded=0;html=1;jettySize=auto;orthogonalLoop=1;fontSize=11;endArrow=block;endFill=0;endSize=8;strokeWidth=1;shadow=0;labelBackgroundColor=none;edgeStyle=orthogonalEdgeStyle;" parent="WIyWlLk6GJQsqaUBKTNV-1" target="a0PelQOWETDK6hBLnf5e-143" edge="1">
          <mxGeometry relative="1" as="geometry">
            <mxPoint x="574.9999999999998" y="1402" as="sourcePoint" />
          </mxGeometry>
        </mxCell>
        <mxCell id="a0PelQOWETDK6hBLnf5e-142" value="" style="rounded=0;html=1;jettySize=auto;orthogonalLoop=1;fontSize=11;endArrow=block;endFill=0;endSize=8;strokeWidth=1;shadow=0;labelBackgroundColor=none;edgeStyle=orthogonalEdgeStyle;exitX=1;exitY=0.5;exitDx=0;exitDy=0;" parent="WIyWlLk6GJQsqaUBKTNV-1" source="a0PelQOWETDK6hBLnf5e-143" target="a0PelQOWETDK6hBLnf5e-144" edge="1">
          <mxGeometry relative="1" as="geometry">
            <mxPoint x="625" y="1473" as="sourcePoint" />
            <mxPoint x="719" y="1461" as="targetPoint" />
          </mxGeometry>
        </mxCell>
        <mxCell id="a0PelQOWETDK6hBLnf5e-143" value="default:" style="rhombus;whiteSpace=wrap;html=1;shadow=0;fontFamily=Helvetica;fontSize=12;align=center;strokeWidth=1;spacing=6;spacingTop=-4;" parent="WIyWlLk6GJQsqaUBKTNV-1" vertex="1">
          <mxGeometry x="525" y="1433" width="100" height="80" as="geometry" />
        </mxCell>
        <mxCell id="a0PelQOWETDK6hBLnf5e-144" value="0" style="rounded=1;whiteSpace=wrap;html=1;fontSize=12;glass=0;strokeWidth=1;shadow=0;" parent="WIyWlLk6GJQsqaUBKTNV-1" vertex="1">
          <mxGeometry x="690" y="1453" width="100" height="40" as="geometry" />
        </mxCell>
        <mxCell id="a0PelQOWETDK6hBLnf5e-145" value="int x, int y입력" style="rounded=1;whiteSpace=wrap;html=1;fontSize=12;glass=0;strokeWidth=1;shadow=0;" parent="WIyWlLk6GJQsqaUBKTNV-1" vertex="1">
          <mxGeometry x="515" y="919" width="120" height="40" as="geometry" />
        </mxCell>
        <mxCell id="a0PelQOWETDK6hBLnf5e-146" value="&lt;div style=&quot;text-align: left&quot;&gt;&lt;/div&gt;&lt;span style=&quot;font-family: &amp;#34;맑은 고딕&amp;#34; ; text-align: left&quot;&gt;각 값을 읽어들이는&amp;nbsp;&lt;/span&gt;&lt;span style=&quot;font-family: &amp;#34;맑은 고딕&amp;#34; ; text-align: left&quot;&gt;프로그램을 만들어&amp;nbsp;&lt;/span&gt;&lt;span style=&quot;font-family: &amp;#34;맑은 고딕&amp;#34; ; text-align: left&quot;&gt;&lt;br&gt;&lt;/span&gt;&lt;div style=&quot;text-align: left&quot;&gt;&lt;font face=&quot;맑은 고딕&quot;&gt;기본값이 1로 시작하는 개미수열의&lt;br&gt;20번째 숫자를 구하시오.&amp;nbsp;&lt;/font&gt;&lt;/div&gt;" style="rounded=1;whiteSpace=wrap;html=1;fontSize=12;glass=0;strokeWidth=1;shadow=0;fillColor=#f5f5f5;strokeColor=#666666;fontColor=#333333;" parent="WIyWlLk6GJQsqaUBKTNV-1" vertex="1">
          <mxGeometry x="923" y="770" width="240" height="108" as="geometry" />
        </mxCell>
        <mxCell id="a0PelQOWETDK6hBLnf5e-147" value="문제&lt;br&gt;7번" style="ellipse;whiteSpace=wrap;html=1;aspect=fixed;fillColor=#d5e8d4;strokeColor=#82b366;" parent="WIyWlLk6GJQsqaUBKTNV-1" vertex="1">
          <mxGeometry x="1018" y="730" width="50" height="50" as="geometry" />
        </mxCell>
        <mxCell id="i8nNrYU4gZV8eUPDtYtz-0" value="문제는 이해했는데&lt;br&gt;변수값으로 치환한 &lt;br&gt;내용이 이해가 안됨" style="rounded=1;whiteSpace=wrap;html=1;fontSize=12;glass=0;strokeWidth=1;shadow=0;fillColor=#f8cecc;strokeColor=#b85450;" vertex="1" parent="WIyWlLk6GJQsqaUBKTNV-1">
          <mxGeometry x="943.5" y="919" width="213" height="187" as="geometry" />
        </mxCell>
        <mxCell id="i8nNrYU4gZV8eUPDtYtz-1" value="문제&lt;br&gt;8번" style="ellipse;whiteSpace=wrap;html=1;aspect=fixed;fillColor=#d5e8d4;strokeColor=#82b366;" vertex="1" parent="WIyWlLk6GJQsqaUBKTNV-1">
          <mxGeometry x="1329" y="730" width="50" height="50" as="geometry" />
        </mxCell>
        <mxCell id="i8nNrYU4gZV8eUPDtYtz-3" value="" style="shape=image;verticalLabelPosition=bottom;labelBackgroundColor=#ffffff;verticalAlign=top;aspect=fixed;imageAspect=0;image=data:image/png,iVBORw0KGgoAAAANSUhEUgAAAWsAAAGNCAYAAADXW1DnAAAgAElEQVR4Aezdd688SXU3cL8x/rIsGeOwC9o1uyzLBryAsRdsg22wwQlwxjnnnHPOOWJeknUffebRWR2XqqurZ6qq5yfulUbd011ddeL3hO6e+3kPj3+PEniUwKMEHiVw9xL4vLun8JHARwk8SuBRAo8SePi8z372sw+Pn7YMfvd3f/fhe7/3ex8+9alPNT8//dM//fCzP/uzD9/5nd/ZHOf8r/7qrz4Rcv/N3/zNJi9k8l3f9V0PP/MzP/PwEz/xEw/f/d3fvTv+j//4jx/++7//+675/4//+I+HX/u1X9vlhV3QO9737OPTn/70wx/+4R/eNd+BBT/yIz+ya8f4JaMf/uEf3uX9+7//+x/++q//+ongPWRwxvZ///d/N8PSI1h3BKs/+qM/evixH/uxhx/6oR9qfn7lV37lAsKMtzXW+d/5nd95Igz393//95u84JNj4/0XfuEXLvst3p378z//84fPfOYzd83/f/7nf150tMfLj//4j194/8Vf/MVdOf3kT/7kw5/+6Z/eNd8BUJKOPTsmG4mMsXtyEsz+7u/+7ongPWRwxvYRrDsAuaUYGYEMUxbR+sgY/+RP/uTh13/915vjnAdYrTXv5dxf/uVfNnkhj9/4jd+48C1rtN+SkXN///d/f/dg/V//9V8XHe3xwi7oHe97Y3/rt37r4W//9m+fCL3/3u/93i4/+P2rv/qrh56xeP+Xf/mXJ4L3M33vEawPgrUS+M/+7M8u5e0///M/X4BF2b73kS367I1zPsbJOO4FuP/nf/7nQUYJeGTKMqGgs8WTMa7tGWseY//mb/7mkpH90z/90104MJr+9V//9UEV9XM/93MP//7v/36hs8V3nMP3Ed7/4i/+4gKE9wLceP+3f/u3N5IMgeoIP71jyYuty8TJ90xQvNe1H8H6IFjLjn/5l3/5YlQzswHGC6z1r++hPAbUeFfSy/7/4R/+YZpDASqgKDO1TxZnOhDeZYh4F6gE7Fn0AGstI1XIPbQGgDM9/PzP//yDDHiWLoA63n/qp37qIuuZ9jVLd7PnfQTrg2DNaPXggOjMDIDxclr9cNnGbEPYm19miR6861XPDFQcVUCwlv49sNyjb+Z5maXAiZ4/+IM/eABgs9ZTVUR/X4CYtU7vvHj/nu/5nstNYi0ddtl77ZFx5sW7IP2jP/qjlyrmyPWfC2MfwfogWLvL/YlPfGJqZhmGF9m1J0Ti2Fnbf/zHf7w8zcFxAfcKOj75yU9eAhXAWLHe1hraMR//+McvoLU1ZuRx90E8IQG0R857zVxafe973/suFcWsrDrTJVB/x3d8x6UVlI8/7n/24RGsO8FaFv3bv/3bFyfyONYKwOIcHNYjYFoQM8vvljMAK5mux8vQs4oOmayMVq94Zja7xbt+rQpCNbUSPLU/8K0lALjPqizcIPylX/qlS3LiXsWsrDrLn6193/d93yWTdwM7n/tc338E606wZkTKM49YaQOscCDO4fEnayoP0XCGwXIa4OEjaKwCTv1hvOsVn5FdA2vAqZrQisL7CvnLZvWs8X7mkxLaMAK0YOXeAXnM5p+erSdQeaJk9npP0vyPYN0J1pz227/92y891FVgxZBk9EDi277t2057cUCvUrbjRtNK4+a4bubKarVhVq5tLeAkUH3TN33T5QmgVesL0nhXxUgQPM64au28jmDJ7mben8jr2cc7fr1IJVCU5z+Xvz+CdQdYyyq0AWRYgGtF7y6MkvG6S/6N3/iNlyx7peMAK7zLdLzcohQOulZsrQ+s3SPQCtF+WZHd4Y3cAbU2gDbU6jfsrA+svfVJ7jNvZtd0Sd4ye4FydVWjxajVSO+Ae0UVW5PBvR17BOsOsGa4jIfzyLA50ipFAidZJbDUDlj5GB8+8a794ekXwL2K71jH+kri1bJXPXkSxdM4WhJaE0HTqq0nT8hehrta9rkVsRosraf95w1Qsj+r/bdKz73rPIL1DlgDS72zH/iBH7iUwitbIKFEa3phIF7djuOztyoIvP/gD/7gJbs/g3dZlgClDbOyqpHFAyzromFlgA69WlfPGmjhPY7P3rJ51YQ+vURhVTUTfJG14Bg988cbjf//94kewboB1oxUGcZZ/CDR6uwmjNdWKap/6AmJfHzWPmDGL94B1pm8e5zr67/+6y9Z1oqAASy8pSpIeVRzlox75gVY2gHacD3jbx0jSHne+Vu/9VsvfeNVT/6UdPM9OvjQhz60vP1W0nIv3x/BugHWMkvZhVJYhinTOUtxSkNPhOgjKs9n981lVFoPeAcYq/uWWc7kjm/8a4vMBmz94XhsUGabaVm9r1eObx/3Lmbz7nE9P9LkBp8b27PtbEuekSjRg/sG9/KzC1v0rjj+CNYbYM1YZBUyatklIz7LcBmCbE87QGku45vZR8Q7ft2NB9ZK0jN5B1CAAy1Aa+bNNrzj95u/+Zsva53dL3VD2Q1GNihhmMk7GxMMPf0iQAuS5LECiGpr4FWwpHd9+9qYz6Vjj2C9AdbAiaMqgwHEmZllGCTQ8nTE133d10112gBH7Q+8x/pnb9EjeM58Igbvsllgvar1sCdX/HoqQ8Y7k3fJiRt7H/3oRy8yOBOoQyZaYHTunlEc+1zdPoL1BlgDZ6WXEkxWNzOT7TW+yK49ITAz2wUInkTwBAjee+mbPc6TAYLVrJtekVXLLj15cy83toAo3uOpFHYwQ9aedJJRq97Y14w1js7JD1UUAic53EMAOcrDqPFPPFhTppIdqHCyER/zuaHmRos+oQx7loMcUSRDBVR4xDe6ZIEjeDYHGQIovJvX/tltgCwfNNEH3mVc9j0lMYJ/85g/eDf3zCw287W3r8pDG7tEExuQSIzgO/TO1n2sYe57SE7IRaWDJh96F1BG8q61SOcCwZ4ezj7/RIM18KJEN0M8aqRlMeLjuV5GfM8K5MDulmtTjODZHF76cSMPaN9DcGo5h3JdhaFEHsG/edxQBQStdc8+B7D0sL3ZOIJvc/AdlYQnn+5Z73j3Fu1I3rVX9MMFgbN1u7f+EwnWHIpjiYoMTFZEicqlER9ALdrKYJRfwOseMg2OhGcgJbNkYL6P4NkcymxAYF6ZHJnifc+IVp2PNgido0+rhn5G8G8ewQ/vZKv9JbtexVtrHUkDXaCRXfr4fZoRfIfe8R7VCt+6tzYIOlV5qr2RvHuyCp7gHY64oWm/pY+zzj2RYK2v5oZLZL8MiwOHId+6NZ870SK5Jy/0SWfehe9VvmzaL//5jRLlMCe2vZXfuB5QcQi8qlju7S68IOXFoKDRNmg/shWAMvDFtaF38/pZWo7cq5uZ4+LRRW/RSiDoxzbovnXLd6zBngCW57rNeQ/9YbqIH1CTMKFzNO/hS4CafQlcM/V57dxPFFgzHgalbFG+MaxrGe+5Tr/MOloDDORM47U2MJH1fOQjH5kePGSunr7AOyc5k3cVhcApQPtw2NCfACYDFlyi72rLyXM1ZJxjkUHJnPForpI3zkvGxuQ5Ys2VW3QDzniMMvM+gw4JkN+hUbGx/xlr9M5J73SrTQOwe6+7dpwArh0mGST3a+eZdd0TBdYcVvST7erVMuJZgjEvhenlyWhktNafuV5rbqARz1jLMGc7EmATFPHOgc+sLACU+whR5QjYIStZ4Zvf/OaHp5566uEd73jHwwsvvHD5eNtTmySAWNUg8H74wx++ALF/bPCud73rwl/Jm/k918zGlNyx1hlbAcWLWXhng5n3GfQIdOwr2kBngRa90S2+ZbvaQDP4zXMKUPEbQOSez93D/hMF1gDEs6Z+iQxQzwYsBiObjRuYHP4spQkU2h+y3RVZPie1Dt45zJm8y4Zle6oK+/kmGJt46aWXLs/hAmeBxYez5eDKVgCRTE3fUyYuY2NPgCnr1fyu1wZy0zWfW70vWAgsAnWtChhNDznRe6w5Ozhs0c/3tCMEVxnv7IoCHXhlO+zCY6sR6LdoXH38iQFrRsTR3L3lYCuNiDMrj9yIyECxSlmAE7j4d0cAZOW6eAdYAO6MLIueOa236mSWZYAWTF999dWLXIzz0cYox2WZcUKVipaKQAQI83n71pXN69/aP0PvMn5ApX+uoixpnPkd31pgguFq0LKeQOuJH3qf3e7MchTQgTWboPfVvGdayv0nBqw5JYNlQJ4KWAkc8VOZMjdGtFqBsgotCeXpSqcl4+Cdw+RMtTSkWd9luJ4EUAoL1iVoApN3vvOdl9aGqgOweaLF8S2aInv0Jqjfnqi1OoyxrsSAA5/RuxaggYbSXKKwxc+M45ICa9dkPmO9PCe7s64WJH8n/3x+5r7KjbwlKdowraA/k47a3E8MWAMLPUd9xBXlYBaWQCHKa0OsvvkgMHDUr/mar7msvRIwrQ30PA0j25DZZrms2Nf6+JZv+ZZLdlUDTFm0FonsX8sGrR/4wAcuutLnLAOr78bIxp999tkLX7LxkhfjOK7EwC/QAY9yzMzv1ter1o5Qmtd4n7k+gIzKgoxnrlXOzcbdM6B39rcSMMlZi9UNTYF69n2xkvfW9ycCrCkrHtdbnVUTnvU5K8eR2SpPSxBoCfmWc9birH6rAmivrCjQzXgFKk8jAD/rr+Kd0wJrLSjgUWbVoRv9RfYBdGXisrH4HZHaNeQIDGJM7UkDPJK9JAFoeNxvlezRjHdgre0nw67xcYtd7V1rfZmtdkh5n2Dv2lvO49P9EYFCAOZ7K3m3Fr3LrlVdZ8h+S353D9acxg0PIE2AK/tXWWhoAFh6iKuMF+8iuwCht6osyzSt2gduAE1bQJa1ynn0yaMUPpLdqbzYyuuvv94EWFmbtonfyq7JkvwFCRWdVskRGmrz9R7TK40WiGDF9nqvHTlOJaWiov9V/VvgLDkRqFRKI/k5MpcEQOsN3uD9yLWzxt49WMvslK2y2ugZzxJGa17RVvamNNLLW3F3WianT+0xNKDBkFs0zjoH1GTVeNc7X2W8dG7NoxWFAAesv+EbvqEJ1uQrCH7sYx+ryhVY0zP7Q4ftLBnneVUHbn7qG0sMztI7mwNanr4CWiuCNH7ZO/2dlZzQhURBwKB3j/Rl/Zy1f9dgzZkoT4RlMGeWJAxVZiXaKqH1sWcqLbJqpRjQApArnKXGE7CIR9noQuCqjRt1TIAWINwjUA7bJ49yfhmnjFe5LPNHW/R5tQ/y41fGGuMjABorYyZbOi3nju9skN2pqgBIHJ+1pWc3SNk7Xsi+xvus9fO8aKF3PfvZ92rwaD3tJuu5wccOMj0r99m4ykKrrHYDeiUtsdZdgzWBieh6kBzsrHIwhGWLFs59NNvLc/TsA2btjwCYnmtmjhGoAJxAJXOdme0JhABLCa71wolrvLEHIKKVwakEtghubkTnzMxYWVK8BQnM9WNlr3uvlcuuI0gLHDODJjrxjL4VL4LU5JqP4d0jo2hC26zAYV6JmXXoyH2STMcZ+wIHPWh96uHP1HsPf3cN1pQnu5BdKUvOjLQhTL1zgIWmmT1MYHhPvwQncAIPwUPGSjchk9FbN3O1JziJm009TiIDBPBaZVvgjk7z6Ymau5duvOud410rpDV/75xb49AWMs7BZmv87ON4lSix+Zk391UweBd0BWCBYTZve/OzKfiDd7Y1U+97tDh/92CtPyzaUuasqN4jqBgjYHjqQIYty4rjo7fAWimsBMP76PmPzkf2eGe0AGvmI00B1pylB6jxQkZktpfxm8+YI4Ef7zJMvKsuZjotwNJuYWO9vB/V5ZHxeBesBGj3K/bke2TuPDbAWpBWWd0D72hCC95VXzP1nmWxtT8ErJUIomHrA3SUFTJk2U9rrHPGmTeu2WLgjONRpjNi2U8PP9omQIgc9niPx9Rksme+5l2TrYwHkKgqAPYeL/jFt2t6eDe/rJ1zAMgaDWccAx5oA6b0Tkd7vAN3esf73ljzmp892WdjZ/C5tSZ/jADCJ/f4cZ6MesaSE3vCu/bHrICwxVvrOMDGu8QBjb26dJ+DHvfkhPdefm8Ca4wwYk6rb9j6yBKVd8pJvcjWWOdk1OYW2X1aAl19Dj0R+RmX0m2PHxmZPqrWRmus8yoJPAX/q/lrrRe82+qpt3hxLm6UqUTcCNwb7x4F4w35tmhZfS54l2Fpo+zxwi7oHe97Y/VGOW6sYbuav9Z69BE60effs2P8kpFe/x7vbt4C9uC9Rcfqc0GTrSRC+3OPH9UBnKPTvbHGSEqyfLd4vBqslZFAN6IigGl9KE6UEZn0vlpjneO0Mg0lyD3cbAgBclTZgj6WNoiIKwPu4cd15NAa63zcvGTo5BVrn7llrHiXHbtTz7lkHC1enKNrfLOTHr3LrswL4Oj/TJ5jbbzLqvCuRWGfjvZ4ZxfsGO97YwU+SQ99azORb6x/5hbvwEQLBF0CKT/e48d52WXPWLzTNd6BocrlTJ5jbckoH8e3J0Oiit7jXVXIPlyzNxbvsJStWKfVnrsKrLUnECNTkupjCiN7H4xTvAi1N5ZDKAU5uCzbOvegRA7rRQVZMhrR1MuP8Xt8O09GZAqwACNnDwM6a8uI0IFvOuFc7GCPH7IJXYacgLcA7MOh8xwCAqCyDoAA3GRxFt/WxTunQhPno3M6ynTX9jPvtfP5GHniHb/sneNKBM7kO3hHC96BTwBYpn1rn5z4/Nb5OE5OwTubB1wz74n0yhR9kie8C7rsHSYF3VtbumQftltj4rgxsmoA72am9bZw7jBYi7SMCIhoawDtXuaPjiMc/WAKxMg99PFkVsocBsXAjvLUO54CAYOSU7bRe92scYyP0Xo0Dmj7bi1AxtnYARCWHfkAYY4aQBuZOScE0pFxRAUlYzPGnAwYMCgRgeRMOffIC69snd7xGDyhGT949+IEvu0DXDzU5sYjOzZOUGLjeZx7FMDRY4YcOJ87Yx/vnkfXzsFjtEJG02JevMMVvPP70WscnQ+/dM7u6Yq+j87RO57tRIuYP4Uv5OsPg3WAiFd0GWVpbHnyEfvAgPFquYhGI+a8ZQ6GG7+XcMs8PdcCBY9N6Xv1jJ85BvjoP6umAqitB3T0HN/97ndffhgp/gGAV70FmtAZQwfMfuPEr9199KMfvXy+6qu+6uKcQK8EAi+sCNKzbWxPboLOxz/+8QvvMZYzcWDHX3755Ydnnnnm8k8P/EMDvGthlQ7nu8AD+FzjB6hUKTFnbCVDnjVWwcWxs7YCy/ve975LlRNBaiYtgCqe6565Ts/cEgY/0Sqx6Bl/6xiAzSbov7Qdcx8CaxNwPg7kVV6GVzrYrQSX13NyGQZAILytjKW8bvR3AEVp6BBpM2CNXivm4xyirRtVMo2t8ijGz9rSuYAp0y1fNwfWQFkG4v6CbMTTH4CMo4eDAzz9S1kTgHLehy3JWs2vXZJ5MNa9Aa0nQTufW7HP3tGtmsI7GmNd59DvRhs6yQXfEhjOVqsCBR1lrmDvx6EEoxpYyzBVkz7mPKuysDZbx6NAO9vXyZbc+BiZs6WQ9+qtCortsetVdLAbsuZHNcA+DNZKWJkBA62h/2ihMhAOYE2GAxxGr9EznyCBZ0bEcFeAB961HPCuFQI4emgdPYbTAmS82w8Atk6ANdkwMvcWjCmDGaDSGmE/wJ/t4E87ydxAu+TPOXzr4ZbzjeaxNh8aZfwcSHmOrxgXYK3aQD+w5uCcrFYJsBeZEwBWnQEkQbgG1nglJ/IG7jXgDzpmbtGARnrdKs1Hry8hERTpPQfH0evszUfuWn54X5Ugsn88q6YlNmVwPATWLpYFcSxGucfwqPOya5kl4TGgUfMemUe247cqZPkze1clTYwXCPhxm5Uyz3QITpwWeObj9oG1kh8A+WiTAC/AthfM98Aa6DFeLYFVDpP5Q79EQSkMaMtzMuvgO3iXUGRQj2vQH49zsWPjBLgaWJML3rVB+Fu0kmKuVVsBiN2VFc/M9fGOXwmKgDZzrdbcME41JVi3xo08JwkSqPkQ3Zc40w3WhMjg9BoZ2Ugie+YCWPHMrgi0BwQ9c/aO4ZQiLMACXDmz7J3j2nH45PzuEWgDrcyyrC1ARKtC1lzyETeFACrQDifzv/MYHdmV1/gOAFQNH/rQhy6lZplVxzXAWg9TKwSArdI7exeIOA3QqPHBH2RBeOcTKgD3F/AOvM2BD06HfvKQsQGjuJFWA2vX4NPa5gveQyYrttZUBQCsWqUwkwbrqSokR8ByRRUb/FibnUe1p6KIc6u22mQCukQh23s3WEN8PVs9nC0Dm8kMoYn0wECWvRIwrcdwoyTKApzJs7mtBcgYLzAAcLPXjPmBDadluLLqmuHK/AE6A9fbY2CRicdz+GXPlQOyIUCn3BWItxxSRovvqOYCAIPGWVsAi2eZrZK01obBF0DHL961eQRUQV3rBChzfucBj5upkh296q/92q+93Lhzg1K1WANEcmHvgL0WLGbxbl7rsrnVlaS1yZ49WZ/P1+xuFu8CsCDJ3uj0jPtEcJb80ZFxrhusOZjM1kSMcpawtublzIAgephbzr11/bXHgQOQll3JcLPwrp3z6HWMF++irVL66PXXjBckyJizCNDWP8I7gJVxevQugM71MmpADQSdNy/+rFULgkAMYMtKOfARGq7hO66xrlaFgMNhe4MEXvHOV9At0OLXv2V773vfewFo2xdeeOHy9MxXfuVXXoABSMTasUUD8CerVUGaDsiYvAHW6ioW72hgJxIFga/WVgoZjdxaV1DkZwLkEb2PpIMt8DsBP+NcN1jLDl566aWLc40k7MhcmAAcnLzM1o7M0zuW8mRH7goT3Mr+VUkjx9U/ZEjluRnfASh+8c5hjvIuqHJ4Dhe60jJRVssyASEgkDUBIuPwWOPFGG0goIeu2piRxwAzoGVr2hlH5gYyeHcdxw/e8xz40d7Z6lnnsbJ6ZbH2ST4+ax+96Pab0rK7Gv2z1s7z8j060CZbFajYH3nTHf2gIdO0cl+w+OAHP/h/MvsusJbRxF3slSVJKRyRTlnGGWRstWykvOaW7zIMpbrMRoZzRkkU9AMpBoR31c3sDFOQUobiXaDe4l1mDNAFUGO1TOwDGDYD5MPxVCcvvvjiJavUEgDADNKz1+bY0icnilYIZ5oN2NaTUaNfCyx0kLd4AmoCEr6Cd9+1OfBTVgu+a20Ifq+99trlv7LLuDnm1r0I8nNeluva2bzTJ/qU4EerqSyfEfvsgf+hhQ2OmLM1B10LoGRNt62xs88JVME7WthbF1hzFEYIJLayn9nEmx9Ayc60AoACY5q1LuEAKBk1xyOw3lJ4Bk3W1h+lC0CSy6PR6+GdbIEug1Hab/GuXy0DY+Q+UfmQWe71KmWBn+fzPfgvc1MpAGq2JRDJSmu8ACi8A0QBZCtw1K49egzvMn50kfUWTeaNSkG146Nq8MG7pMJceX06wwfb9YSJYOXmqax5ax3+BqTxTkYzeadjWSzaAJe1Sx4yP7P3ZfXkiPfZ7T+80wNbvIe3ZtkgXQj8tvSwC9YGibQe4p+tnN75CZWjzyyPBAYCUxIp2c8MUiGXyK69ATjTaa0TGSDeY/2tLRvhWIBIO0Ngm5EBskPBcwvYtug7chzdAhCw7mk94J1tCEaARTY4mnf8CpyC4Uze6dDNTjdByQBvR2Q3Y6xKns4FwRnzmzPsVwUjEWL7s9Y6Mi99fPVXf/UlSRZMmmAto/KJMuzIQjPHyvpkGRxktGME3fhWiqgmgNCsdWK9ni2FoSVu/MyiCSDIrPSIrddDG4NHn88sJ9eKAqAc2Do9dB0Zg24BGu/0DrB6ri95H81/ZJgyPvTNaoEJsqohN7fYfw/vs8cIhJ7KwbsEZbRs0U+e2k3sKwLubL565keXSlILiE82wVrZ5gMce522h4hbxyDcEyn6fIzXIzYyAgod8RFZOaoy19Z6M8DhqBwYKlroghEDLQFlBM/mYKgMg9PinQFb7yids8ajCW2cFm1o5WAj+DcPuZpfv972XgCL0+Ldhz5sVZUj+A69451Mfdj8rETgqG0EkKKLzaNtJO8qwcw73QuOR+mcMR7moE21BoebYD2DgJFzAi/K01t0k8fjUiM+erCA4F6UVpMZI1ZZuPkygmdzaDOI5ALAPQSnGt9xjJO52apsHcG/eVSQZBpr3OMWYLFNffERfJtDi0WlCqjuWe94F1xG8q61pIrC+z3qO9P0RIM1RmQaMmFKJPQRH0+/yFoBYhbWPe0LVFFVjODZHNoeshaRfEa5OVJ+kV1qi4zg3zyCFJmOpHP0XDJetilYjeDbHNoMMjhgeM96x7vkbCTvqkkBGu+jdTV6vi6wBoZ6WaMXv3Y+jooepZGSmKA5GZAZ8VH+xryAW0l8D8At68EzUBWkgsYRPJuDDPGuovCd3vF+rZ5GX4cewQTvaETrKN7Nw47I1PwA4V6yLSCFdxn1DN7pHd8+eOZb9kfr75r56JkP+gSNZDBK71qpoXe2rqVq/mtoHX0NzJFEaPmisQus3XBQcuqb3EPkjTKQAc/qrQFGYKAlIvreQ0uE8tz8UrZysFsCCD263qfUqWMyGC0WvI82wmvn8/gWfXDUkmZ2EPdYynPlenu8m9/jYgCivPaM70AK7z70PqtVQX6qC60B2fueHFfIAnB6IoktzsQf9iNAa6my/RW87a2BJo8SCp7dYK2P6SJMzALHPcLzedFm9qN71sOrdeJZ40zDGfvo0Vsc8egeQOYIPrVA5KayHxHC+xm81tZsPboHYNmnLARvtevjGDkG7zV7lm15c46s45ozt2hd8egeHiUDXtTRGrgHsBY0Zj+6F7qVlMZzzXHszC2/7H50LwhVHuhredZRZI/jq7eIF/38uptMf3YE5PQyOWtZtwZqq2QAVPxGCd5lPhlklK5+GMjvTXgzMD6ejed0UdIyfDdnBCBj3vOe91zmq/3Wi7GymbjheCbv6Hfzj/2hKfiRbei1eibaG5Oc2j5g83RHBhv8eGHHM8T+88nzzz9/uc/heKlD8wNkK0sAACAASURBVHvJRZaleivPr/yu5Yd3tGt/ZT3oN/ttkVdfffUNndMrHdNp2IgKgew4Pt7DPthBOafr8M7W+NesLL5HhrBGsoAevPZcc8sYcrIeeZP7LXPdei275ntufOsksOWuNgjjxYi3zs7s38owgKcMS+9Sm+JWobSuJyA9LGt6+0721ho/8xwn9cSLj+wnZ48M6wMf+MDlFeYYY4tuYBROS15uxHpOG7i5RrlfewKCzgGVOZShZwZpa3s5iQ7QFLwriwUqx4G4TBi9ANk2Aw3eVWScURDzb8gAQM0pycujoIK0z0y97s2NX7rEI/AM3l0nExRwvRWa9U7HbDXG4kVl/JGPfOSSOQpmYR/aHmEf5uRj7EtwkKDlc3u0jjzP9wQOmCNoqvRGzl+bi68IXhIirYcc7GvjZx6jQ3ZKB3TZDdaIIiyvxzKeyGxmElubm2MyOhlUzjBqY0ceA1Z+fKiWgY5cpzUXsPEasEBVjmNkFEs2ACo+LWMD0JyWI9TA2hqcHbArDc+60YgHN1UFFtneHngY7/dGZJIBVqW8BHotHuBdA2vj2ZdARq4tOZZzj/6uQvAzqoC5nJtDC0yCTkvnwFo1xo7pkQxzICvn9V2FIkNXvdTOzz6GPgmiagBwzl4v5ufj7J2s9mQU14zesjfr+3XGLP+uzBoxIi5n8bsGDGg0gXvz6SMyThmG6LfliHvzXHPeTTZ8yzgIb7XzAmrOKiskg5IHQUyP9f3vf/8lYwLodFUr8ePaXrAO3pVi2XBintlb2SQwku2gueVAbIRt6LkC2q2xPWAN0KwL5ACcLH42r+X8gEMwVQ4ri8vz6ANmAJvOtQsAc2mjjgnMqhMfY9lSq1pi7xHIt+RY0jPqO9+mazdU+fvKRIHPkLdWCL/aSw5G8Zzn0XKVJNFBXr8brAmQ0JQlBJgnX7FPeYxReYuOlQYUgGH91S+MCAz4ldlzTllmKW9lkvPKXE7oo9el1FUR1SqhHrC2Nt45rXaAllC59uzvykDgYguMtwIlvXAyQcsN2LINkunsAWv2BSABhkBRk3uec/Q+PukbyArQeC/XAMIyYJkgnQtQwJi+6C0cPZ6e8gKM4AME4ge3JF61KhVgkKexNfspaRn53XrAUqXI5iQrI+dvzSXQyehhHBpaAa01zy3n+C1dSg4zznWDtcUpn3EoMVcqEMEIV7oS4MxHeGpCxiuDd0OGca/MsgRJrScghIZwwEwnY2ZcHFFp7wPg6CoyhDzefg9YG8d4ZavAH2BugWU5/4jveFcOShDQ6/vWvMAFAL3++uuXTBPQbFUWPWCNT9UkQPzYxz52AY3sOFt0jDhubXoWcLT8BI0a745zarwCdLomK9fQVYAc4GYTbETFJQjYZ1PAmJxKvUoAZHdsHmCV50fwWZvDOtbTgpGA8L1VckcPOQuM1odzZLeSd3rXepMglAH6EFgTGgXKslY5LkExOuW47IGj1ZQ8+xiDDsDixCsUGIarZ2ftrf5qybvrZEsCi5tPMoVyTC9Yuy6eveXw5l3Bu3XxC4AASmm4JT/5O0MnL9uao/eAtfnwyVn9jKlrahloXnfUPodVgrtpyt+2gk65Hl6Bm2xcVtqqBvAmgyMjga6WgPBxwK+yqyUJ5fojvgNLtilI8/cRc14zB7sjGwFxFe90QNbx9EsZoA+BNQWbjBGJejVHuEYwrWsIStbAAAH2GWUJ+mSYMhIR13ZFZUFZZA14AG7vmvQC3GTEbk7JzEsZHwFrYCEj4zx0UHPscv4R3xktoFZVHVlT60LGOQKs2ZsMVyaK9xF87c0hSJG1NbWxeoMEX6ErGaFPK7jzZUCsGtNqqAESG9FSIUv7K/ydvFWFqgVAuSerWef5DBokpiueRMGHexTaWPAFztJR5u8QWLsQYMiwpOoArET/PPmt+4iVxQIsLRAZ3hGnvXX9fD1jJkzGTYHoyudn7ANcgOMxO/s1WTtGscp1YKJVIgsErgILp3cefXQH9IE4INTbpUc8ycJlczX5us68aOG8veBxrUwiQ5TR4kGGWAMKdDmHd4CON1miwA5gGH0YvLHOkQsw0C7hGOaXDNBnTb7kES0WvF/LU+91aGDnAjQ742M13lWbwIzO0Uc/KjC+Qp8eY4xqBGgb4zzbICv6ZlcAaUu+ridT41xTo6OXr55xeAeMWi9kvcLHtujSBmIrgh4ZbI0bdRy+0I1/zGE9eg/bjTUOgzWFUbwyC3iZNCYbvcUAoJFhMF5gMnqNo/MBLM4QjnD0+t7xFMUZGYtAVbsugpmSkZL1IAEQkLOv18oRA1yjpPdixDPPPPPwhV/4hQ9f+qVfevnHrV6qAW5blQt+AZvPTJ3jE73o5rTaAFvrsQ2g5JFSQQff+vReFCG3rCO8e/TxlVdeeXjb29728AVf8AUPTz/99MPb3/72y2OBHCTkVMoaaAgAeC/Pjf6OV8GHzgHv1vwyXXZIz/iid/1qQQidADqCjyeJyMUNaBUxWbmOfKO1tbWOoGB+4B7zbY295ThbxjtsQRdbvGW+EdcCTzhHHyPma83B7yRR2pZbffLDYG1BClQ6UfzMZyCVdIBIhgG4allfSwAzzjFupbmMZGbkF6gYCofdewqDoRsvmDF2wGOfczkXcrAv2Dru45r4+O5cHh/X2cpMGVNkrL191DxH7z4gir4d0EZb7Vq0+jgvswQo7ATolllg5j14tnWtzxbfwTs94B3wbYF6jcajx/DBvqyz18bAI58gL3pXurPJGu94dQ4AGWtux1p8ox2vwF+Fpoe9pYujfJbjQ4eCInCcaV/l2lvfgaZkAe+tYL51/ZHj9M2+2DBfq117FVgTrDIheqm1iUccC7DW7K8Z4Yg1js4BPAhUtp8zt6Pz7I3nSB61ihJ9bzyn41j0IkqPDmx0zsEFqz0g2aN17zzw8WQH8GG4e4BiProQoCQSPeP3aMjn8Y4mvEseZoI1UGBb2g5bTptpwyue6Z2PoDWfj33jnGMbxuKhR06u0ZYRrLQF2GXMOXJrHbyriFRMM2XcS7dMP3iXlM6kSYVI73jf0uFVYI1ZShN19JhMzlD2PphngHvjnDeOYSmHZmbvvYrL44CWm1joBIqcZY8n/PTyzijIVMuFseS1z96nbxkWYMT7Ht+hS7rvGcuuZDSqKaByNr+xvmwV75yKHulojx92ge8e3o3FO31bg9PG2vewle1GZt3DD9mQUc9YvLMlvNM7+d4Dz2igE7yrSHp9GD/G2vbYiKBJtvTeSrKuBusQpoUYlp5Z6+POM/ARoZX3rbHOyWDKci7WvKctRaow9vjRNhHc9CJbY52XwdwTj1u0MLAWL87Ru6cplJIqhb3x2gBbmcUWHauPAyFJxB4v7ILe8b431mN0AGE1L9esx4/37Bi/ZKSvvse71ocAfQ0tK6+RPAgme/yoDiRzdLo31hig3sPH1WCdM2slKHBtfdzd1fNU3gHs1ljnZNOikvH3lF2KfAyLIRKyHqk2zR4/QB1P5NAa67xyUKDSbriXDEtQpnPtALwwXL30Fi/O0TW+tXN69I7faLfQf48Rzx6Dd5kSXbNheqejPd7ZBVlpm+2NlVW5YY9/8rqXqgLvgpM+N7oE0mgH7fHEPnrG4l2lhnfybWWXs3Wd5+eDdI1vvGjL9uiS38It2z0Z4Z182RMZ87FMQ96/CqxNiHAZskUYsoyo9dF/5Oh6vhhvjXWO4qINItO03j1kXOgCPDImQSpAa48fAI93cjCWMj12FW2efH3cHHSjiXH4npV2xj6d4x299IEmOsl0AyaywVscx6/rAFHwziiN45j2Y6wtmZKVbJxtAeyzKyx2B6gBj4xJaY//oBudeFdpyI7jODvHC94dy+PoNctJQoJ361jDuXsIVnhHO5rwHwE7eGxt2YfWUTmGHMxFXoAQ75H4yFzhhO9n2HleEw1sFu/slH5ClyVP+TsdSjjwlY/X9o0hU/ZgHdf6numI/cNgLdICKMYZYB2Tjd4yVgp1NzpuMo5e4+h86FAG2nLao9fHeIbAkIFfDYw5CcByh1hGGtedtcWrLEBZK8gw3JIWwYgj1s7lsYIwJ2CgtbEMnXytxZnPzrTwLjjTO7sv6RFM0MyhZUmZ17zPCckIEAdA5fP2gYF2Gb0bV55f/V0iplQHougZkTCZQ7AW2MgNT2SIdzfZ+DtgW81ruZ6ggRa6b4Foed0139kOGXsKin/A2XKew2BNqADUs5cyh5nRH8EBEvpaNVArGZr9XQ9WH4rThUABryzYM64vv/zyw1d8xVdcflvaSyf6tKUDA18vGhjvmVc//+k5WPPkLBLvjMUcs/nam1+A1oP1AbDBOwdDo2d844MfgQb9mR/XKQ29VfnhD3/4YkN+NQ4ok2eMtQVs5KyMBBh79M08z3k8+4t3QBO8Axq6Cb6NwRfes87xwhmN86yzrWfgPRuvn21s5l0QB5AC1ky+euamM/+sAC2ZJ0HZy0Uvvvji5Z8fvPbaaxebx1eNbnIT7Ni7XwmU6AHBHJDIQBXGN2TePfTNHCMpwQ+bDf3MWo98BCi4SgZhY3m9w2ANnKXrHt6myK2UPS9yy775lcsMg4EAgFvmu/Za2ZRsiMPKevAec5GJR82AkBczgI8xnBbtFBFjbRkjIGKsWgoMNww08+c6WZbzFDhb1pnGvC+IABs6EP0zeAIy5xi0j567m08ck77yWIAcgE827IgcABM5Zd6tL0DLtGQ4pQwzfTP30S8LBMp4z2uRi8QleBeE8RO8czgf48xBj2yDzgUh8jRW0lPKKexHK+EsvVsbYEkkVBRZB3ROz87hC70+gBo/pZzISNaIf3pXVQGnyKxjPHsia3Z0ZnKGLjqSnOE16Ju5FaS9u0LWtez6EFgzPBMCGRFndrQhGAYi+lI0hQOtmQLbmhs4c1bGBliycwVYO0/QnJODlfIhP/z4vWX8+G49/AElgM1BggZjtUmM5eAzq5hYs7bVd6VzvNfaAHENfhgZmt0RB16+O++cUlJmyaFDPsDAvECrdE7yVLHIsrK8Y73ZWzSjSTBRPaC1tabqg4Pj3db1IRPX4lvANwddAnD8OZ6DPxsgO2uyjTKItWgYeU6bgm6AML/P9gzAgDTaVVeybjrFb6bBdz4L1FUR+Mmgn8faJxfr8Qe2Vp5f9Z2++B068LdiXcmMpI/tCHhZ3tY/BNYuJkjZHgdewYA1GEEA9lkKFGlFPUpET+Y9wFpWFR+GKXPIAud0HEDGCICyYXNi/xmilCuQ0t9VYpfnMg0z9/EhC5RFttYhF7TKuABczqwBmWyKMZJBdljGSbYAIc9PXvrk5OX6fG7FPv2gSWkaILu1Lt7xi4/gPeu3vK4F1mwG7wCbv5VBrJxr1nfJEbtDa7kGsI6WIJtXMQnoEpU8lgzYrfYQvQPu0i/yeLzjV+VFjvncyn0YJ+gC0FXr8gnyEwTpvsSZbrAmdEpjjLKB3L+azYy1AzBEcobccoTR9MgOBQnlWQk01kIP42Kw0SqgaEJncCGrKIeNK8FaJNXvLqM4BcpI9flWZ1lkDCSjhN0rB4GxVpD/b8iRAVzwzuhl3ORRyjAqNe2OrDuOC6yBAfmUN/by2NH71hag6QkvpV7yepyKffiNEr+7wk7obMtGBeCwJ5lrrdVB7xyWrQiAK3nHmyDFptlwCcDO0wccEJjxIAMVVPGuCgz5sB8VhL63ypH+Zax06njJF5nBGTZhzIpWa9Bqix7BRbKFp5WBEu/0jm9VFfvLNtQN1pyOgghc1MkMrtjnLIyDAdnnTCvWtQbQ0UOjwLIcdJ6COZ8xHMwTDLJFsuLAFI7eyKbCoLMiyNZ/qS5BwRhAxyk4wcrsGs14147ATwmmpfw5nxtIfhQKvb6Ho+MB/YJZWQrTKZCvza+SkY0DzVofr6Rh1HdOI6jgnb3n9lS5BrAWqNzHkUEG71m/rvEdUJMpntmB/m05X4xVyeBd2211ZSGw4h2dEXAznfSJLmPoBv/AzQ9EoTkSKvbML/zLOYmeJEa1oBUIkGptTeuxFeCvWgkbyuvP2g8fxQv+cntq1prlvFqCZANTMs51gzVjFRFlOjWnKhcc/R0gylYYj+y6LBFGr5fnY4yMjJMdWZeyATbAoXRGBwAc46TZmQUBT49wgry2fbxbm5HnrKUcN/o7wOK0nI/Oe3hnXAAJELnZGsEH2AAfQMYIzR30sikZXC0QcR6ZpYzMNl8X18/YkjmQEVzoLTvN1nrG4Bfvgk95DRCif7YEiATorbkcD+CIllpr7Ohz+I4gle10bx16ZC8CsuvYrSxZEGPjridbtgxPJAHlnOQmMEt6zBU2VI6b8V02Cyyjgi91OGPNck40qGbpgKzifDdYcxT/9p6B9ThtLDBqS/ERMCiwFu1HrRXzWBPIyB6UwjUwibG1LYFzWi2cyDQI3002kTOcwHlBCIhvZXAc13lGXltr9DGgiBa8AxZBJOhtrWUMA+eIWWaOAXyPrQk4bMgxrRU81W4wWscYxqsNJFNfYXvWBCzKe8HF9xbP+RyQwbtAla+TQeKTTAAUnnz4E0Cr2TNZAiw07N0vyDTcss8+VYKyYGAt8B6ZD98CayR05oMdHtGUbJnLMfZOHjWwNobsXMdXZNdHaLh2LF4FGTqSQKxKDEp6rStYCHDZLrrAmqMCHiV9LfMrF5v1HWDJSCmZgQPAWWuZl8HIjgErw90qiQhU9syhbAGQ6zg74yWzDDJ6UnqReDFW8HGMgWyVfNbQBkIL3jMQzJBBZHXWRNcW78BJtghI8e4DjGVY9JR7fuQgW8Ave1I6+y7TlMFv8Y4WAYO8ZFmznQiY0DfeZddb8kUvvjPvxuMdYEfgEvRkl54/j3YAPRrjo3LDY20dAIcOvAP32bzTl7XYrgoo222mT/BBN96N86FDIK8SCHshA2MFWwDNR+hd4kEGwDHPG/txHeA0L97j3KytAC14SBzYNBpmrbU3L3kK0uQTttEF1pTCwTARSthbbMZ5TsR4CdSn1u8auS5DVdICHetuGS7Aihce9GwBr8Dm8UYgk6Mj+hit8X4kn0JkHcZTyhYIc1LADkQ4wxYto/hXRQBRvAObLZCQGQJcj2bhCf8f/OAH38igw9DQRU56+rIlvc2QARnR5Rbv5Md48S1wlPIcxXPMg2b80FMONnHeliMLHHSsevLUhI9+PRkIRsaQG4eTJX3Zl33Z5R8evOtd73p45zvf+fDcc89dbrzR6VZPmswEQD1UwDibd1Wep18AKl/fAiyYoEePfwkJkNbGA8Jlqw5v8ANgm9t4L9Go2loJFz2Qo3ErKgsJluCA/my3We+r9gUn9AjmkjN62AVrgzgjA1xF6N46DIVjiH57Y689z8k4CuAVGFpGFWsoo4AOw+LkHGvL2AUezsCRewMggAZWnOJoeRo09mytowSld7zvXQNkOSR99PBDLozRGj1yjfXRw5lmOhLeBSpgzc5i7a0tO6FrpbpgOgNM8SugyXZn8o52QRGoksGW7YYsnEcP3l1nfyvgukYlwj8EhNa4mN9WokDnEod8fOQ+PvCu9RBP34yc/9q50CSRU1mQVxOsDfZRwjGUaxcdfR1ly7JkdVsZ361rAhFlkeyKEwLXvTnRAkQDqFsG6RxgEBBs9+Z23vzAUE+QY8zkHfAq6fG+Rxtjj+DTww/e2dVRHpTnslBr7AHJHs218+YEKIKITJZ91cblY+HoAi66WjrP1x3ZZ1OAxMc6M9ZAD2AEutoueOmhke2iSbC239JL+IfxrXF5XTYiYaB7NtZ7XZ5jb5880S+Ttc7sin2PnjhPnoIHH2QDTbAGWD7KsBVlSBC5t5WVufGiB4o+CiVsxjbiw5jM4yYJcLTOLGDc4zWfZ1RooQs0Bu8jeDYHGZKlfUAlY1rRK8w8tvaBqCASvIeeRvEPqIN369hv0bPqHKelD0nKDN7pPbJeMg5wWMVfax1BnR36sHd0jtS7oMTmI+MnZ2u0aFp1jr8LIJJGNDXBehVR164jyuobyn5FIC2LER89MsbBUK6lbfZ1godelqxjBM/mcGNMRslhZ2Vvo+QSPWwl8gj+zaOfHk8sjKJz9DwASyBxL2EE3+aIm90qwnvWO94lKiN5117RF7+npGTLZp54sBYZZQJ6ucr2ER9AIIOV0WwJ7uzjnErmJ/MfwbM5lNmqKE47o9wcKTNBGq0AdgT/5rmnbHpLVloBUV2N4Dv0LjmRYd6z3vEumALsUbzrB0tO7iWb3tK7411gDRQYSGuilecIVtnCuERbtFGiEmbEx3zmllkDLvv3kHFwJLQoixguOcgIRvBsDjIMueqR0bv1Vuq2tRZ68EsvSmG0qi5G8G8euiZT87MBttWiZ9W5CMzooxc6EaxG8B16j7nDn+4lUVFBos2HXrRs3PwcxTtfYlchV/vWWaXb1jr8HX1snT66wFrfRObRmnjlOaAisnIwoDVjbUbCKURevcJZ6xyhndMyUs+nMtpZDmVeQCiDwfsRGmeO9XSG7J/jzgqeeOewbjTFix0zeeqZG3jwQfzT+6z7J9bBM98CED20zR4jeHiUjh/an5H5mxPvbJ3Ns6/ZfPXMzxa1fOIJqy6w9jSIvhYHngUQPcTHGIbrWU1laxy7ZiuLYpyyNWBcGgJePT+qj2vsNWuMvAY9+mueUZYJ5LmBl5YQmSjr9u7m4wfwM8xaIBLRPWOO97zOmfseX0PTVraPDzZ6K5gBKs9Fk/WZ/Mba+PUEkPccSt7pPbLNLV3GPLZRgdZ07jz78Wgo/Zf+kOdZtS9w0rnntGevSd96+Lfiyig6BRAvUnU9uheLQnY3smTXZ4IWsFL+CR4eFmd4QWNsGa8yyRhAI1qWwGZs3KDyCKDHEj0Shs9c+lrPOTccreV7rLN6C4D0FfHkRZpwNvwCFz17URi9PvYdQ3N2OrKIx7PwbhzeATfjCL4EMOfxDgTO5B2vHAhgqSpCR46jjUzYg+ewORvwCj5iy25lpuaQeLix5MNOvAAS42zNbx72fnb7Dzh78gnd6Ane6UpQlgWHrdOXyoPuss6jSuLD5Af0gR8/KQObahXv7gcI+HmeLKMV+3gFVHhHe16TP3rXApCHLtmyF4f4A7r5Bp+J87FlJ3yI3Wfb5hd7b5RmGmbuC1J04MUx9+Tw05VZYx6QffKTn7wwd5YCQ3mELgoSdCmwGCM78MtelJyzTApk6ADN21SeAvAWlpd+PF+a5zSWg3MGRnNmoAJMgBPvnDaczJbhqjS8UcbRvEXmX0Y5RukBtPjhuHh33tMf8QYew6XnkKd9JSHeGc2ZvAMsjghkVFURqOga7/QoA/F74N4MFNBLGwVgZOPnW/26oZ/s9MKBl18AWPBtyz7Iw1NGZJDPrd6X4UZCwQeDdzJhk3QNeNhxvEEK3MM+0AuwyE6VCNxsvfZOlvTKLoIvchIA8C7RyfPEmBVb+kOLwIp/gJXX5ZdvfvObL/9WjC59VJzsRIB1PbunR/r2tnCM82/3nnnmmYsPCE6RzEULCO/sqrShvP7sfcmJShLvUeV0gTXCMEIYZQY2m+g8P+ABMIwzZ4F5DGBhwICKc5ZgLevSjwTMMqoAIeMEI0rK89mncFFcJlKeW/Udnd4sY7x5TYCFZwYmq3COQ3NsGSewjeyQ/HwHTnhnjMYCfw4c42J+jop3cgHycXz1ltMCVgE6Ak+NBjy/8sorTbDGa03H5XwcGMB5lbw8t/I7PQmoqqS9dfmoIMyWW3IiT/OxJaBX86UIYgFke2uPPs82BQsAK/iU8zvmZw3YfnkuvrNfwVZykpMwwRyG8I8YG1vACD/IMAexOL9qa30/nMe/Y81usAZyUF7UJcSYYNUW0ZwRyKIhMoxYn3FyQtmnMsc4pR6mc2a9BdZuYjBeyrVWjqoyEHPhm2Hnc7H+zC2HYZyyamVuXotBAXJAHP3Mo2AtQ2O8spcIXtZg7HhXGp4VpOlLeSojlCG2Mr0esJatAGFBS3DLTpzlSoaCuvFoaIFfvm7kPtqAKrDBe2tuNLJhvzHDRrbodZycZOJ8hE3Xxmo9CNQC+GrQsp512SVfFoRK3oG0jJldwAOBXDKVAw8/5ROCU/BIr2RpXvot5zVWdu6c6rJlb+W1o77DMbKno4xz3WANMKTmAK0EjFFEtuahPMDLyUqnDaVQLkEbR3mMsQRrYBS9qSivABEHlj2HkjIg6w2axznKXGm86ADEHJZRoqUlJ7QZT0ccTmYWwYrhkgvwlV0rAcmSzLSBBKoYaw1zWY/MybbMvFt0jDqHPhkQ3veAowXWgC96laozwZd9kAf9l/RyUgFS8BewcouoHDvrO37oCWBvyZ6OADX94Ev1a38LZPDKlmSleJNl1sayH4Ah886AMYvXPK/14r6K9fGXz9unG5mnihA//JeNwCg+nv03X8sO6JzN17JyerYmfzdXzmzzPDP3rc3m6T3rphusESc66QXLNmYSW5ub4CgGI2V2iyFlOhDCJEA1vgbWjJsCZJJKLGUuoKJ4PU/ARGFZ2UBO1mkcBUeUrtE5+hg6gKo2ABpy5lBbi6EDaP1Lvdw8Bu+cU8T276e0ipS7+NbTY8QZrK2NdxmbDOaM/i1944MMsuFmvmK/Bdb4oluAxrnxpL0D3LQZYo7Y4t01eI7149yKrfWBKR0JmFs2R9/AGR8vvfTSBYTpf0tW9Kiv/7a3ve0yP1+pjXXc+myeDazgOdYAtsCUbdqv0Ucmfr0xbrwCa/eo6FS1wNZjvrzlQ5FV16oqcpbsmE8luxUk85yj99mbtQUpdhDzHwJrAgCGPiJfnigmHL21BnAFksCXQ5brAmYO56cnX3jhhUvfkkG+9a1vvRimjDlnpK5XKQB41yqzZNkAHCiU8/vOeBm60rkVuUfyb12Bg4EBWPSWtMV6dBNPwQAk2UEtKzAueCdLcuGUeK/Nbz1jBEIZJnDYoiFoGbWNCgG45iCyNX8LrNGMdrwLeJySoMS3SgAAIABJREFUHvHOwWttHrLSw5QkyPD3AuUWXUePo42j6q+jrwYqMSe+ghflM5Dj6HSFvxgXW/ybW9DW3+ZTtXF4Z0PsAmBZI+aYuQXMZC5I42XL1oxj33RCr/bZKfAGxo7V6BSkYYWAhsdyjPUcV0WzO9hQCxbldSO+kzFZ40FWXcr8EFhjhEMQJOetMTuC6DwHQVGCACHzq93kA6QhXOWtzB9Ae0JA9FXO1QyeQhlugBwhMeK8fuzLLsyDd467ZQwxfsSWfAVFvFPeVimOFoCOPhkBgxR0ABzl12h1jNwYo5uTeAeONbqBOL59ejLc2hzXHMNztGCAzN4cLbCuXUu+wNANJUBXyom9kwmn1RbAe22e0ceiFMe7cr8GprU16RvA8wG+spUR4wuvfIO9bI1j59ow5uI/rqutO/IY0GXHbBKg9s4N2NiyQFUDaziCB/NKfPDWmpvcJXB8acsvWtdfc846dM7PYF6Jr4fAGgEMh+FSNAHNVqDIyWllP7LgWraYBYNBAEzRFAfogE0wjl77aDc3fmRVFCOSb5U9wAIYcFzC7HWgTNvRfTRyFqXwVnaDF0bIQJWNeMavoAPAySGyUrwz2uDdcUZLRtaJcSWdwMM8eKeL2Rlm6IjOgclWdhP8sAn60LJQXeHJ90wnOUVW7TiwMkZmGU/C1MDaGA4rOcF7KZsZ3+mOPkMntcwu2zB+fNgBGvEkKw4Qdj3eYpwtmWlxsHs81vhgczJ04NZqLdSuvfYYHiRaQGsLJIP30Cfe8Aof6InNsPFMA57jXpUAvZWUxTXO83PzAc44PmvLluGQakcXgS86ltc7DNYEBQSU2hjaA8+82NF9Agc8wMSNTYrcmwPDSjePcL3lLW95ePbZZy+PvFGka9ELdClUX9ebagQkAPXw4jqgtZXl7tHXe56iZHvAFz+164whH2XdU089dXnuVBvoHe94x4VvPUzGFobJKTlf8B79WlVJbf58DL/Aw6dHTvnao/scC1BwWlnW1nqcWVvKs9P41od905vedOFdT979CPZqfaW1nqYkA0gJBP6rizF4atEICFRre+Nac/SewytQoXNZ8tZ1Ahh66B4/ZMWOPT9NZmgO3ulcwNcLFZgEdeM82mqtMkjlNdmM6wTrWtDIY2/ZZ8t4hy140YevzQcT+AUbds8JL/igR/YsUEnWSqBzDIaQg4qyhxeYAefIqEbLyGPAmZ68K6HSL+m31mGwNglmRW4Cm1kaAggMiISypi2nzUIzBk2cGABTukwrsgxAALwcl4WIYpQiEPQoELDJwPHfU5pn2o7so0WQkmFYa+ta/Mh6lKr4JS8f/JEZXoNOY2UJzhnLMVzbEwTJNbI2wW4rG9ui88hxQO3OPr2jr8ySYi7HGTkgwbMMWDaEPw6G1zB6MsAvfRunHHYN3ddaa7GGLd7pARCwpS168jXX7gsqwBbvEo+tefCDbrqgS8COL3YfVVjwDqjIEb/kyobZBj/hYwHqtbXwrkW2VZrXrrnmGBrwzubRCJBr8+ApeMcrnvHP/umcTASf4D3moDMBjkz5QXk+xuVtBET0mHem3tHOxnzopEbfYbDGTAhLRGMsmcGR+zInRuIjQIwQFhAkDIYKyFpZRY0Xzk15jMo8tTEjjuHVDU3GyPlGzIl3wIx3jlEziK11yAlQAZLoYW6NvfU4J9F3ZcDAuAUmR9fiqGyJHgFRT4DGO5DHO6Azx9F1e8eTsYwZmPbYF9mwY+AGlLd8BJ9kGXa/Na6k07gIbpKG3uvKefa+ow/vKhhBNpKr1nVooUv2EgGqNf7oOfgjwAFQgX6m3iMRwvsWJl0F1pgmKBkm5R8VQu94wgKMBNZ7zYpxoiywZvyz1iNfJRhQmbXGNfPKTBjWqABSoyHAmiPWzp9xDJjgnePOdFqAZQ3B9Aw+t9bkg/Q+G6y17SSDW3SsPg44BSnV20y6yFa117Ktq8FaVqYUpjzZGiG3Pvq8MhOMA/nWWOeUshyEgFoMrFae9dCFd1kN51Ie7/EjG5WhkENrrPOyOPKVWW1F2TP4tiZ90wkZyDZavDinVYb3aB/tjZch0nfuuZ7Fa16XPvAuG0cfHe3xIkMO3vfGCv4SH/ruzfgzfbP38Uzv5KDS3bNj/EY1sse7m5xROYdfzeand3784t1H5aLlssePFpbgRqd7Y42hb7K1td4WbVeDdUxochkwp2x9ALQsWZ+JEbfGOgfUW4TH+mdvgTVj2+NH8IlA1RpLTsr/s/nqWT9u1Lb4EcjwLnPo0busemTbo4ePo2MAKh21+HaOIwbve2Nl0zOr1KM8tsbzY3a6x5PH34zdGwfceu6btGhacU7yxI73+JEhwzk63RuLdyDdQ/9NYA1MfWRBgKj1EWlkYgxSP6411rl8c+geQTto0hKhmD1+3OBRRpNDa6zzcXMl1uhR5Mox6PLRK23x4hx+6FI7p0fvnBZY3zPvMmw62uOdXeBdQN8bq8yOtk/Id6VO99bKNAHhPX6cZx98fm8s3qNHfY96D5pkv+x4jx+BnH2oLPbGshHBP8t3SxdXg7UFPArDELcmv/W4nrDWwT1lmsohDihLnNmz1mYQle8l22JMeOd8SsGZPeu4J6DsvNWGRlyPd2CC99k9a/qWvXkkcwTtt86Bd60J7Rx0CVS3zlm7nr3jXaYJFGtjVh9DEx/H9+yetUTGOnB1i8+rwFrarlx1A2wmWCs7ZGYeS5KZAostRlYdF1n1X/XtIhuItRkymsmGgVN2nCu3zjFKTlkzTueV0YBxpoxLura+MyJ0xA1fra9yLJrpyOeWVoZAQL4CteysJceShhnf8c5Z8a6tUbND/DpubA+9xsmk6T/3admOdYDjPQA2OtFCH2RQ440tCLC3yJ783FQF1rLNqDJumfPWa1V58Afv8Icsbp1z6/ro71uvhgeuOwzWIi0jEgVmZ36CgmwGaBEYINxidtVx/SiPlRFqOC1DA9wcTRUAYNENaNBMZpk+xxi3DN08DAFAZYCzz0n0fGVz+foz9gEKHbhhImD5jg4BSvbBJqLdwem2DM41ka2RD6c0NstIRg0YyNl2ppP0yBKvcROZrgKwbAFV8K6HH/zU5qVTcxmjTJZNASa6j4zVufCte6go+aAXdNi9Nl7YKNunJ7TTkSBG73SVdZnl4Fp+gnfXhv8Y45y5JEJwZeYjwZmm1r5Mn717MIKOQ0eta649R7aSUm+usqmaDA+DNaFSjN/NpZze5vi1TFA+4+19g/HadXqv82y535LImSUZyAi8DektOW9JebvKPwtwI6YEG3fSvXnmDTrzeZvM21cMOZwBPcDAzcutNxh7aR4xjnN57ls1FUBtXo4HVPHy5V/+5Zc3CemKcdcMzjWcVPboP3Z4Y2srm/CWIUeZbWN78hGMvCGH9xiLNzx6284vIr797W9/eP75599w7BiXt/SLb28a8h/XCgKCXw5uArnnjVtvMOZ5Z+5LLLwNKnGIIGU9yQi7jLdAvUnox9PwkkE402Yu7UNvFW+9o8Gv+A+MydeesS8IeXtzFS2CA9ug/5rvHAJrExCmDIuTUUoGlxkCFc0IzVtUSoWZfeIW/QADqKADgGTAYoQAikHLrmUIAhlHZMTZEa1BdhzfGJkUBzav8eYKOjiHTMPcpUPHmBVbOscbGgXO7IwCkfOyZNkXBxa4WmDtpovfmxCwOOYWWAtqnBswlAFvBd/snT7wFbznddkmXXMyNuFVbnLCex5nn57JRWCj07CTyDCzHxmrmvRhI1ne5bwzv1tbwKBTFUWmEU3aBPROBs4LMHTGT0u62DL+JToAUOCvZc/kbR4yJ9dynlXfZboSJT/3oGJcsS5ZkrXgUPOfw2DtTjBBMrqsvFnMULLsTStAkGDks9ZqzcuplGfo0LvN4AGMOaCImGWCXtl2mRnKRhhkHAdejIKhZ7A2F4Mmb+ueFag4LdDkbHSRM6wsM6BKRviuGRtw4+BRLQBATrsF1o5bUzDLwTGvOXMfWAMiNNIv3mvr4UswpdNwtHIcuxV0VVqATZbtunKc784BPLyTQbaJ2vhZx/g6ngRoAbmW7VmbndK3Ej5aV5kmfOLfXDJqY8iiBtZ8SRsR7wJfnmflPp9EJxrwvmJtGMPO+Adfylhi/UNg7WLGJosATCsYsAZlU6z+0Vl9PNmOzIkTbTlZKY8tsJZZM1aR1DUMU8bBQALAYy7GK7IrmVfKPNa3BS4cUY81Hy/398AaCOERSNOlrE2Q2gJrsgAUnJwhl+vN/g6cBCqZYCvLYw97YO161RRnFAAA/1YA4md4Jx/+JsDN5rU2P6Bid/RWOx/HZNkSGEkIbChlJdiwcTYvmNMpe6qBNd7xG9VMrLF6iw+2SVer1pYEsQl2QvclznSDNSFyGIZL4FtRdhZjAAsTAFCGuXJ9WYMnExgb4NrKLDPv+q2yCEZXCl15698qffEXf/HDyy+/fOl36nEzanLO8+BTVqLHqR20MsuyNt7JnM4BUqat3G+BNRkoLckEYJvXzbUWWJufY2uVcGyBa5Xe6QGgchrBohUoW2CNXvYagdtvrGuN+aU89zfwj6+a3q2tXRS8l/Ke+d2a7BR9ZQJRrssv/TStXz1UBdFtjIlkQ4ICxJ1rgbXrrKeSlBxJknIVG/PO2qKXj2tJAuxVWXXmR+KmypYoZHvvBmuIz8kozzZPvmJftKVk4MeQegBzFF1huNanvNKxYh00cerIiGQmHD7G2zI8gAWAyFLGIcvglJyjzGLC2Z3jCCsf40Mv3rVAZL97GV4LrDkA0BOU9KrJwA1YN6/8VC3Z1jJNAA/oOA5HD1mGzGdtAbBgIrNVTZV6yeu2wBq95AZ88E3X/Ae/2iuqDLIBEnlO+467TlsgA2A5bsb3aL1JEPDXWkO7JIAd0KgejGe7ZEjXfrLYOT1ZiYd/o2ff/OXc1mN3fEOStBIwoxWB/y29lPSO/g43rE+OGee6wVo5IILqyUX5PprI1nxATobJeIHWqmjL2RgMpwK8NcNllIQqC+CIsiZGysFkCREdjZEZyzIAYBwnW87r/1vWyi5rirKiLcdtyWnkOeviXe/O+tlwauu0wNo8fkvaEyAc9bXXXnt48cUXH55++unLd0Bec0ryk5GpagSqPRpqdF1zDHgKEtZFQytIkNNWGyTAmvMBq3iyQLbNKbWD6LRWMVkXmAkYq4J02DJfFyCBV9hpS474FGxVjGRmrOv0X1UTKkj/65P+/d46vb/++uuXDLac13WCI3sS3Ph9OWbGd+vyWTrhj2ygpfcZNJiTzNmGBC7jXDdYizJ+zJ7TziJyb15MAA6OveIOOeXJigArwdWAFM2cNfrKenxkBVQ4sOwgBI5mmbcWiahpftc7buwWWBvDcc3NkPbkNOI8nvCLdw6zxXteqwXWeZx9ugREqoutnnVcA8RlY8ahK47P2nJQAYKtyQr31mmBdVzLPlRTEWyBkYCu3N4Ca9fKWoH8qmqWLQIs1Y4Ac9TPBGRyC77zlr1LaAAhm5I95/N531g68EjrXvstX3fLPh8jbzpHY/jnLXNeey2bEPhyxdUF1sAH6DCaWvZzLUFHr0O4klTJxdFnPx0BcK0ls+FYlFmjmQEq75977rlLBgF09faV+DKKKKGBAOMH/PpxDFalALwBceupB4BAgfTAcWdnmPQsswImsrpsNFkGgk9kjWSgd+k/t3AyQAzAy2sBF4fWs/UfXshLBralT3JHi4/5ZgM2eumG7q2X+c37AjkeAZtnrWWMske8q8TIJsDOvkBL93i379lt1wuEWzwBToEd71pCW+MyXbfsS8YkQ2xRRrtlZ3TIL1R7dMdOBCMYAehKGtg+n5V1kxG9a4NpGZZj4zsbNK8x1ovjs7aCgnszZE1fs9bpmVegkijRPfsQOLrAmrAIWSm7BVg9BNw6hqEiHAOUODPLJ5wAVkKjvC3DZVTxQoyH2vUmOSIQcoe8lJnympMqNRm7SA4c8LPljIxdG4YTGRvZ+q0yrV2P93BavAs2W7wDE/zgQXsHAAMrwQogcYASrIGOeclJ9hBZXK0VgD4yYbzAQWAo56vxcO0xvAsabgKS9RZN5qd3PAIpeseLCgDv9Es2AdbmURmwW2AIzMmMb9GldWs0ay1IlvAepXlt3IhjbIy+0C/rtfYWXaFDfOAVT5IOtuBcSY+5JVrsnYzYifFRaZTjfadn1+C9Na527dFj6JMEuY/gqaeZNtZDGxukAzZCJ/SwC9YGAQd92J5FVowhVJkoJmatB5wIjLAYYAm4t67LQTkwhbQAIa8DtDisIDDTmKwjk6F3vGcaztxHj8w0KpUZtOBdYAbWo1sPfAl4SzgE3toN1RpP+AWGgG4m72jzaKyMlwy2gDpodN44rYNWBRLjr9kKiHQuIFxzfc81oRcBQVK6IovvoYs+VGzucwgmTbBmTD6YUBr0LLBijPIMaNlyrhlr4ls2p5qwnbEOIxEU9pwi+KMwtGidCCRb2W6Mv3YLEAQRYGW9a+cZfZ0ymuFyYLIYPT89RACld0A0eg3zof2I3jkt3mV8M/UuiABe/t4bFPDCN2bZoiRJRRLZbq+vHNEb2vFOxj7upxy5ftZYdGnFaUPSRxOsZX8+QPGenBbhynSG64M2kV3JNOKjjFPC6kV78oUDzwCHo0oOMMEvI2ZUMrQRPJuDowbvjJcMerP+o7xcM54+AKiqwr4MSCY4gn/zkGXo3Tq9me81vBy5JsAEbWxfr1xrZATfoXf+ROc+bH5GcnKE5xiLDnz7sHnbkbxLSuBb2Du7Ehxj/TO3MIc/Sk7gcBOsg1DG4hPfz95GZmLLqZTqykTl0oiPviiDAArW8Dmb51gfYDNgn+hhj+DZHNoMsnYGQt/3xjt60EUGgrOsQ99/BP/mkVGSqfmD/5D7mdtMjwAi09L7HsG3OfgO3gUBfPucyW9eO3hHE7B2o9/9jlG8u+egigLSYe/WzDScuc/P0YWmLrBWhrTu2q5mJkAKqDAwGRYlKpFHfDiDSCtzNR/gFtlW81muR2l4ZqyiLQPzfQTP5qBn9wHMKwgqPfFe0nHWd22ZABUZFlodG8F/tHzwTrZuYsu4zuI1ryvToxs0RvYrWI3g2xz0zKfwHb51LxUVgAam6FRFqwBG8q6yCN7ZOlnAlCz/s/YBtZurcV+rC6zdFReBgNc9RF0CdiMAqAJR2QZFMrYjH+Ueh9dW4ASU5HqlJgeRWcs6OC6jOUtpsS7ZC0qeNMFz8J55Bjb4Abb5eLkPiMiR8cc5+g3eHfcYE3CM9c/eyibZIV3TD1qD9hFbMjWv+T3hoX95Ns/WR5cArZKgIzQC08wzWwY67Dgf79k3J/tmT3zKzXvB8B4yTLqIxwOBF58see/hMRIb/JFVBGXz493cgJp98Z970Dt9uNnL59HXBdbepiEwEY2hnMWIzJLhAk9lUC3rY2CED4wYL2XkAOO8eRg1fihIv5KCgDWhBH/2rcNJnHNdnFu9RTejFDg9WhV6CH4ZoApDFKZczlbSiB9GaqxxbtLqUzuGN3PFNcDeY1l4j3ZQnFu9RRtAETg9FcAGjtKAdzrnrAI02/FhI/jP8wkCngYRqM4O0hyWvujC88zBO5sGWoIqvUfvuZYRkx37Dp5jS/f8BL9h284BCFs2lm0iy2jFPp3hTWImUOc10Yxndhz8qDLpksyCblsyw7/gyzfYALmFLGNe1Yt2mHmtHcfP2JI9H/RIMIyiny6wpmyKBVz2zyDemhyHsL1UoE/N+UpaCJmwPcfpdVbjAHaMw7R5/C5B/E6F54MBoICUHZdDCAz6uBR9puMyQECNd04bxuQ4g+Vgfn/BywZe5649coc3Tm8snmXoZMRAS0AmM0Ea74zb+ZDh6i2n8jIQ3gWYCFRH6MC7xzC9uPLMM89c5OTH8j0bLQjkucwvkyVDAT2fW73PYT2JhXc2GLwDZa1JzuzNYnr3TD9dlTTSYbyIYlx8vuiLvujiJ2Qa+hXk2ZdABchzolPOO/M7kJUg4VuFB7Dyelojn//5n//w1re+9Q1+vMoO2AW3CD78Awh79t+HzbN9z/bDkjwnsCcrciX3fG71viCFb/xLKMijC6wxLjJ58N+FBLCaeOsJFDKrCBo1Q5I1URhleEuwBGtzAGBCsKVYRkEwyj98Bm8EBKA5izVrwSHGzt6iA09uAgIvtFnTlj5k3RyNAQpUNbCObMxYPMsuIgBwTtlK8EHnvrvZas0zeUcvUKIvIBW8B6092wBrPUD9T87o43iZjZqffGRzAL5n/lljJEnsGIAA6uA9kg504oM9qwZqYI3fyBiDb3ZPpvzJHDEvG2FffIHuIzjM4m9rXvQATwEIUJd0qIa9IRxvG+KL/dNl4AIZybrJhi5dw/9t+ZKglNeXAFnTizECWMgkj1m1zx8lUuwzErMusEYgZwVYolStxJ7NBEASKELwZcCgGIrAJDplkECmBGsZI0UwUlvfGYJMigIpq+TFOAoE5GEI5ZiZ3ykL74BDW6K1FieUQdTAOl/HEBkCY5dZ4jGDtbF4dVzwOyvLEqRkGd525GTXyj/AmtOyEdUIWW1VS2xClkXmZdWR5ThzH22Alu3t9c8Bq6yxBtZ05/rQLxmaW18ejzUZ4Fs1wz9Wg5b10IpmPNF/KecAa4ALkPktoA5gMx4muFYfmt6Nw7stX3esnBe28QfB8Sy9wzF+qQLOQaobrAlP6YHBPcMpBTDiO0XIGoGVgFE6LaZkIVoZgBizaC3BmmFyVAoB0JxYZuE6xgsUS3q1VczlOtevNl6ZjpYEwyxLt5LWXrAmPwYOiAU3FUmUwjGnMcE7A685dYydtZUxASyVD9DhgNesFWANhHy0wQCc6qKmT05vXXbBgcvk4Boajl5DlyofgFqzyzxfC6zzOPv0jCfZtsBV6t0Y9m7tW2Rertv7nd1ZVyXF32vJIQzyq43xs7P0xEb5SqzDVlwr6LBz1zjPh4B1LfFRxZE3ucCFDP4x7+wtHAv8yut3gzUCXehV57LHN5t48wOTaGsA5uxglEspIigFcEzja2BNgUBHmecfvPpHp/4JgJ6e8ZRV8iNQ6V165X71zQd8yui9dtpzg7cXrBmunq0fn9Kv5xwlIFk7gnT8ZkIpm9nfBVv03VrVyBA5IYDi2BIPv02hCuHwJR94d40SPNYvx8z8bn0gI4GQHWanra17BKwFacFKAsBX+E85p+PWZ/NsoDw/8ztA1a7S1rFfo49M/MKfCloWLJjH740A7QjqbJqu+Td/9w8S3LOQtdbuR5AzDDCfpO+M9h97s7YMmx2ErA+BNaGJUATJufNEMeHorTUia8aAqBiKiLUAFAf0u7kUBogpkoIEFxl0CF2G7nlVcwF3Rs4oZZcACciXjuG7DExGBuRWZtfWUtpyGjKvGW7IwbYXrBmkzIlsABjjZBx5Lvt4Z9ScQkXj+wq9W5ujyq7QBzxKvZe0tr5zWjrkyIDffPjSKpMEsI9S7+wOKMjCbPdk31r/yDl84l2gisx+T+ZHwBrf7j9pJciqa3M7Lrv0K3oyzFtkf5T3CBR0Qye1tfmxxIleVF8CkGwUPvHnuI6u4RX7ZevkpJUaPfkyGFiL3s0FH9hMbf0jPPWOZV/4gkXWLyueQ2CN6HhCgBPVlNxLWO84azIW0REDlFJeS2GyJA15T3j4uDMsa3711VcvIEtprpOBA2pKsx8OKjrLYgBSDYwBGeWhgzGtcFzyBb7KcQZXy/pLWfSCtevIlnFor8hiGH05n++CBEOne9nmKuOlV3qREc/I7vDBDtiOtThp5p/8gbggDhjwns/P2uek7BVYx32VvbV6wRqPkhU37mq+lNfBsyo6WmAr/F1QjTaAZCLT09rnj2yfb9MXPh3jz6E/tm4O4xwD2nwqMCDPHz5Xaw/mcSP3BQ6tVr4mKSwx5hBYI4zTAGqReYXTUh6D5VDRM94TEKa32iAAiaJkDUA5eKBUimagNbDmQNETZ0TW2KPj1vOUBUhlATmwtOY9AtbmIV+AGNllbe5oB8jyAHYJarVrRhyjc2vq15aGO2J+uucY5MsuyCLPC5zomf2hwzafn7WPFiAZbbkamJRr94K1rBrPqpWoNsu54jubk5zwl9xaiPMztsCTPgRoSVrvGnQn+ABgH9/ZDPplqoJfyFGyRbYy8C2wllFLDul9L6j10rg3Do1wFQaVLRDXHgZrDJuMI2F6puMSNoVRHINhxAGuW4wbwxj1IuOZY4YpO3QN51P+6dkpbwG00omB2AKG2hocF2BrF1B0ROktOm49bj3OIpvXfmF8tcyG/DmgMX4nWG/7S77kSy7P3urF5hs0DBP4KwnNyxBdh3eGu5U50gPHDgMvy7NbeS2vxytaBRC6J+sa7+V1re9sFa9AEO948V2Z7/uWfNkCPZAZGbXWGHGOPiUlAEZmTfY13jmz4EFG9O6fPnjm2ONseJKM1Gw07Enmtue7fJ3eteBueRKnRy54RI+gwB7xhvfy2rBF/KmE+S9/t8W3ChS40puP5MUxvk6mgBx24UnSiceafNkDnrVi+FdJx+jvcIlOPAO+lZwcBmuMmYzhKhU4wWjCYz6gIEMGODKHmvHF2NiihxIoRt+a4gEUEDeGcgCB+YAz46VAIMxAtgAr5gcexiqbzRXHR28ZmnIVqKB/a35GhRbAy1gZpUClrSFIMerIUPAmi2a8wTcQMv9euaeikmmghyytu0XTrcfRyVHQVnvG9pr5gRsZ4Z3+8B8AzElac3Ik1+GdLOmmNf6Wc+aXDaKvRRdfcP8GD/TuphTQBkLsmdzQXdLCHuiRn9RAqhxvDuAWNyN7rinn6PlOpnjng+jfAkhgzX/xJ/DSKb3Y+pAJmtHpY19yGfo2xj6AFxhatEWmDufY/0y9w1S4JSnFX03Oh8EacwSAEcCgNdBi+JZziGZYAoOyZDRAUIDSg+Gauyagkn7tEopGk+vL86O+CwQCDnClyFHzMjjh78JFAAAgAElEQVRgCODpbi84xboCJwcBWsCEbuLc6K0qiMMKVnQz0km0uMxvbvrrCbh450h4ByZ7Gekt8nAzOWQcQfaW+W69Fq+COZtn+7Vs99Y1XG9evMtk2aXgujcvn4ULKhE+0sKHyMjpnt57+JCUwB+8S2Zm6p1dSSIkKVvrXAXWhEgwJgd2e0K99jxA0B/mWD1AenQdcwKCI3MbT+Gy/V6gO0qX8UBEZsxIjtDXu9a1vAN5hrXX7+ylozYuwNoa98I7e8e7imzLmWq8HD0GsFRvZDCD96P0GA/Y+CC99wS3a9fAuyAdmXHPPEfs+MhYaxsvUMusZef2e2i6ZgzZsq3WGleDNdBSRijHCFfUbX1kZSIgcFeqtMY6J3NHOKPVM7xGALOuicqC06JNubrHD1lxdnJojXUez+Tbm2HM4rM2rwClDyhDtW3x4hx+8C7o9OhdNmmNvbZMjbaZxzguuthv2OUe7+wieN8bCwzwLqO0xsyq7Ro5sXP6Zpf8eI8f52W92hl7Y/FOtngH2D1Z7zU8XHMNfmXYKjw6Qd8eP7JjOsTX3lhjokJQHbR4vxqsGS+HtRBGZIGtj/JGOaVnptfUGuucshPh5p8Vza9RHr7RBajtA1Q3N/b4UU5paeiTt8Y6L4tBG1BoKe8a+m+9JnTCiIFRixfn6F11JFvs0buARufka41b6R11PV2zQ3TRCyfc451duEkoY9obq48aQIX/e+MdTT7kyY/37Bi/ZKSFsMe7bFowyH41Sm+3zEPn9IBvuo+27B4/Og4yZTrdG2uM5M/81rHmFs1Xg7WJKUwGJOIoFVofAATYRBxKbI11TkYi0uqPilRbDKw+zlkBCiOUDYi6ssceflxHDq2xzkeEnd1mOiI7RoR3mZKAy7lkTi1enKNrfLOTHr3LLs2rzdTTtzzCw7Vj8c7G8S7o2KejPd5zVbE3VtWh7cM/ODr5XkvvyOvwDkzcYIw2CD/e48d5mXjPWLxHReFekGA4kodr5xI8+Di+JSZsU1Wxx7tsmX24Zm8s3mEpW7GO/S16rwLraAOIGpENYGrv4zqK0DrZGytrN46Dy0o5yj0okSLQE89aA7DgR4WhfYNmrQzfg0/8+MT31hafDAVgWeceghU+OZ4skWFxLsdafDhHNvim+5BT6xrGCrTwrbpi9GdXVvgURPFOt77TUYuPkvdyLDBm0+yJrZAn3gUqvKvC7G857qrjaEIPmwc+7JIuMz8CMRvNx+yTUzm2HOM7uzAWv8BagiYJWsXj1jr8V5BSHUk4wo5rPORjgjn7sM3Ha/vGCIjkR8YSITKr0XQYrE1MqCYGJgytNvGIYxgWDCiQo1DqiHlvmQPPHpdiuAzMXEolUZfzMTTK5dxozzfJIlKLpgCPgvIHGOY5jZPBKztvoXnEtYyKDpSsqh6Ge+285KWkJC/BjV5z2e+7cyMf3buWVtdxHo984T2qnmvmo3984xl/gAD4A+4ISM7LxpTHbOyadUZeg3fPM/N3vIeeHJc5swX0Ci5smV3EmKDDWFkjew57Z+sAmY8bB1fwzn/ImXzi+rO2AJoN8mfATX+zaIGjZCQBJgfyKNc6DNYUQTme6QTatzhtSUztu8iOCS0XgFgbs/JYvEhBoLEuGQgofh/Yb5Mwbq+8+7EYj2HhwViAxzn9kMxTTz31xo+mx4/B+xWxnE0xDkDtBZ5Y66ytzM8zoIyJ891Ch4AkW/OTAF4CIJNw2jyv53uBxGwby2vW9mVEfqoT77XzvcfoH9/eUuM/3gHwjHB5MxWI6e8DwN65Z40TOL1oI7BksAKm7NJr62TjuX4/DIaXSDjQBHS0Dt70pje98U8f2PvLL798uZ+h7ZNp51f8B8bk42fsC5aeX19FC1mwDfq/GaxNIMLIsEwqG6hNOlKw1lAqRpaVQXLkOntzcTQliptGnCgDCGf2TLTMAag55xgA92JOjLVluBxRiY8X4yOD9jZa5o9zxA1ZmUjMs0fr6PN0jme8M9zsjNeshSdADKy80LEF1gIdMJONRcC7Zr1rr2Hb9Ki6ke3d4rSyZ/cg2LF56F3QE6RKP5KUsB2BmgPXAtm1PB25TgWgR+8msSwzZ8xoZo/APLJs+sIffcY6ZGgeQB7tM7yTK75yAHCN+cyBf1l7zLN6K+jgR0VVBpRZtABpCYHkVNKW5W3NQ5m1iwELsGZIs4EagdbERPTNVgmuVAgDi7v7aGCsMQZ4MUROlmWifJJtB8gCHGMYgvZIXK/0U/baxtjgnZMASoCBhrhm5VaJxnDpnS5KB+ulBf9ACy+y9LhbvgXWQBpYWPfWbL6XxjyOLtGrmpJZ4j2fP7JPhqpDvNMpsMo2lOfCq6COdzYBwPL5VfuSJDSzbfRm2840sActEQkLcHNdnHcNsPbv1FRJ+JKVS35q/PMlLUS8S2hintVbAVWAZpt4X7E+PeNdgkKGpZ8dAmsXUwbnYcQrGLAGpQI4zo2JLaOZRU84rfLM+jUjK9c2hpyU+RmAy3HmJlMZJictoynjlWF4W5RDnMG73rtqQKAu6T/ynTFGT1KWGdn6FljLvGThMrtccRxZ85axdKFPq8S3vXYuOgNYApQALmuiUzyxk1Kn1sU7+ZCTyubata+9Dg0ClOoHsLbmcV5g9f8so7cd44P3Z5999vI7JrJm+sS/5KO0d+PJhe8YW8om5p21tR6a8CE5y0nVrDVjXvgKK2TXktOymuwGawwQrrIeuMQCq7ayEcZOiK0oP4MeGRXDDSMrI15tzSjxOWcL3Bm6jETfrzYP45GV6XHqoa3MsqyNdzKXWQPtGo09x8gAYGl/yNQAEH44xBZYm1dJKEjKxhjyKuelYxUUpwEa1yYn6OU3ZOg3W/zQlhaiH9lyX4NNAeYaaAFrfeHgvUfOo8Zou7mZTj+tZMN6aHz++ecfnn766Yu8sqzChvyuvGQLTz7vfve73+CtpNl6Muv4JcgStMrxI79bm52zdzo7I0mQuJEVv8/23g3WQEWWg4kz7lIz+Hh8ShTvAcxRSmS4ylfrtwIFQCJgLSKGLhNluFngmSYOCsw5hPH5XOy7luwZOOPhuHFu9hZ9eI+yjA6uXdM82gmvvfbaGz805WasG03AC2+1QCQLBdh6mAJHCWrX0rN3HV0KIhITzrsHWFvzoVfrC/j4kSXzaQWwDXr32QJj2Tz7oHtV1dYaM46zR9kt2lrJhrUFYcmM8Xi0zTSpDumfb8hUffAkUAmEeax960nOBErjyK8cM+s7GydzH/SifdZaW/OyDeuTY5Z9N1gDHVkRA86Rs7YggLGIz55zGStyZqJqczrPcRkRRlZFW+syREZFebUggQdK5VwCGlBinMBFZHZ+iycZFnDnwLUxjlmTs+qhrerjBU+A0rpkX+N9i+byOAOUKXl6QJYFqN/znvdc/q2Y//Cj3K8FA1knuaqqtMJuoaGkqfVdS4qzKElrmW/r2nyO/bMBwCNjipuU0RKSQbGZWqCyrsQoAD7PO2sfvWz+aBXrOgGNXvW5W/SxLZWVQAXcy7HOR9+e/PldOWbGdzyEn7F7Pr3luzPWjzn5AcyBtxnnusFaj+mll166OG1MurXlUACdkTK4rXGOI4aAenpDmAAc+qcrIh5Fieqyaq2KLRoZt0xA68OHrMgAuMgIs8CzLBx3l1wfNx+v7XMEc3Pu2vnRx/CEX7zLgLZ4v3Zduuxpg5ifHWkDSRTQde2avddxWi0Qtibw9l7XGsc+tHMAs3GqJQFM1bIF1sYJ+kBeVdeaf9Q5fsV33SMRrI76mTYpubXoIV8BmC1vyZfv0YHWET9qzTfqHB+LChBYnwHUwQubcA8g42cXWCuFZH+ibS37iQViK2p6hlaUlTHF8XLLCQGv/pVnkrUYKLIcF98ZTtwll6G4Ps7N2AIG9Gv9kMGW4TJu5bx/xukZ0ve///0XQXtu2r8Wq2VNggCwAkIMZI9+tHBY5TRFzs4w6ZDO8c6xtnjfo7t2ng5lTJ7f9cw5eXHwLX0yWM4DPMhsK/jV1rrmGKcFIgItkL1mjvIawY4tAV49Xr7k5jP751Nb+qQHwRzvQGs273SNPpkdu97yRzoUxOlRhowP7Sxyi+QD2EnE2CsQN4YM6Jq/C1RaKKWs4js8YO8q6VblGeNv3fJDvKxuvdToVk1oDdI7GZJlF1i7iHFxlIz0tUUcI2TlvWyUk22Nk11QhLEUWXsaIl/LoDm0VoDScGZ5RDh4xQPQ4mxbhotfWZOSTulCVoxYJixDqckMgDNU/HOKzGdt39paEQzJ/DOd1lpkSyd4B15bvNdo3TuGD20BfJAZp2cn7KF2Lb0zWI6uDYae2rgRx+gdeHoChKzZ5Ih5zQMM+JIA6AO0BGCB2Lq1ddiODNN4dj+TdzoWELwIok9v7S26Qofoohf+iB9A7VzwIinBt3PAmT2p1lzn+JbOXS9BkCSZmy5izhlbNiYB5LcrEoI9HsglqjEyoIddsDaIM9V6S1sLYhwAAdYaUOXrgE5vGySuY+CAcGZ5hAcgLFMAqDOdJPja23JqoKbnuyfXvbla563DUOgd762xK8+hR/BsOfit9ODdvQZgPbr1wJcAkMAvg+0NBPgVOIHWTN7R5ua9rJcMtoA6ZOy8cUAXoMTx2tZYQUeGrE3YG/xhCJ3LeGvzjjgWelEB6LePqqZupY0+PD0kiJBXE6wZho+SaHZkO8IYA+FIIvisDBPflKZPah1OfITGGWMpDC10IZDMoknWz6n0VHOWNIOnI3MCBY/9ceBeZz8yP6clV8BjndF9+iO05LFsHO+e8UefRCKfH7UfwMu37iE5wZekBN8+aKKjUfzGPJFcWoPuyTjOnblFl2QJDvHJJlgDAx9GS5FnEp7XpjS9PIDKcWXYQFVQGfEBVLJ9c1tnrz2TaZu5z1DRQheMGG3K1RE8m0MEZ6zm1wrA/704LbmiSVkt4whgUXaP4N88Mj7zclbrzKxejtiJwBT6YPOqVhnwCL7NAZwBAj8Pm5+VCBzh21iAhaawRRXJSN4lJHjnS9Yg51kJ4FHe+TscAtT00QTro5OvHo8ZhivT1BNTwoz4iGb6yfeitJpcGbG+cpRuI/hWauqpcogZmWuNj2uPCdBuvmgPjODdPIBr5n2Qa3nN1wmegoqbn9pCI3jnO3gHVjMy10z/LfuRZbtvMYJvc+idC1Z4v4W2Fdc+0WBNQNGuECFlhiM+slXKA4grlHDNGpxKBiiojODZHKoTICi7uGenJS+ZEFo52gj+zaOnei8l8JZNyLDYpgpoBN/m0PIRoGe1GbZ4OXoc7yqfkbxrfQjQ91RBbsmlC6w5hTukW5OsPi6bBs4UpyT20R4A3CM+Irg5KZBh3FPPGs9KdnwG7yN4NgcZBu8Agd6VYav1u7UeepTAAFXVg9ZRvGd5Kjs5sYCwRcvK43jFu/Yc2uh9JO/0HnNqhfCtewEvdPFBn7BNtI3Se+adrUvUyHilfrfWkix6oEAwQWcXWLtA6UFY95BxMVzli17TrOxXG4BR4JvxMpotoa46jldG6/EiBlXjnX7QWjsXdOKNLoGesWXLw3dBQTsI73Hd2Vv0KP8Fklvs0LXk41PO45jKwgsb7Oxsnq3PDuPVazor9WUMuoF67Vzmgd7NJ0steXdMpaYddquM85q37APleNYafyXNvXO7jq23eHcTVxvwXhIU/HoaLW6udoE1YQEIDkyhvQKaNU7JOvvRPbTj1TqeDRXZZvHTOy969h7dM0ZGyChr84bR0iUjUKXUApFqwssReK/Nc8axUY/ukVFkZvZLXgRCb86RdXnujO9o3Xt0j30CWA7eopG+tTwEpBqwy969zCabuxYYW+sfPYenEY/uCWaqBnyRp+8lLfr23pO4lyDNL7sf3Qtm3Bnn2BryZ/b0ZAXokPW4ucTwgsbYcj4R0puBHM6LBJlmyvILd6+++ur/+Tz33HOXtxA94B9ZBYXKaGRz1rV+rLN6iy+84N3LBQEynJNxefnGG4H48mtutUctOahKwUtIfmfbb3WQE3kw1ByQjHXzUqBWwZzJu8Ajq3YjDE214LKnDzbMfv02iZ9N8J969OgdL6/FKzuw5tmOy8bZIN71loN3gCOYeCbaj2O98sorlzci3Xws+WErMmZvGBovAfFGoaytrBoFcVWruQXsGqiV88/6zgbjhRu6yuv4/pa3vOXya3/hy+xeVYCHHGjYL1tn92ydzQsAAlOe0zi+zs8Aez63et/9Ey8PCdL28dOVWTMQRoBRgjhLgTKeuBNMsLXsUQkjG2SUPhwugzUDFD19CMNYH8brXXygxVkJxwe4CwwAEoivVlqshyZgQ3kcL7IiugA4qg3AKvsUjfEd18ZWxu3FCh+gx/mBujmBQeaPzoN383KcmGf11treEEWHrPAa+2MrAi5+gZTA5uZarS9tfo7MLuh9Nb95PX5H70AEgATvgjT9sFfnvMQDjPVc8/X2+Sx9s3n+w1Zc5xq2nf3IPt9iE8btZerlWqO+8z2+CmCBZ5mYCTL+oUFUvnSFF4mapCP8l03j3Q+xkROd83uyKCsnOOHeHF9gK+YYxc/ReQQj+nGPJnroXWBtISAI0GQaOQM7SsS14wmOsTJcn8gw8nwMGQBRBIdUxpdgDdgoVu83AM/cxrkGGOQ57ctsgMVZvSz0MSSGW/tJyUwvGlUUNbAmv+A9ruGMACx+OziO25In3snRvGcYLx0BGxkx8IiKItN5dJ8N48l8NbA2H/sC1CoWNJzFO1BCg5vKLT4BlWSqBtZsXYYqY45sGU9+m0SlJksv5zYXUMtAXo6Z+Z3t0ZOWDPrLtYCyX2ukQ4mMj2uynvAo2OGdHQtu5mHLMmuBq9Stc4Eb5ivXXfGdjfNflQK+Ys1usKZQBsOAz3gyRHRhuAQs6pSC5FwUKGsEaG4UoLUE62A8tpQr+hrPcAFDnIutKGsu2RbjzQYRY2ZuBUeZEKAlg9ZaLbCuXbcH1sE7oz/DcelDNsThOBvnqvFx5FgPWHMY67InWd0ZGSZdApmoKFo8tsAa/bJIPyIlU+PLjqk82XUt+XI8AG6EzFu0l+f4Nl3LqPl7mVUbD4P8UJoERvJGT2W1vQXWArTAFcErJ36wgLxl4xK7EclByd/ed8Ep8Cuv3w3WBIj4iLh7C44+r28TIEzY2YDso02ZIxsAqpTZA9ackCG7ThCoZRkyUhFcacggykAxmtc8n8AAsBilqgGf+Xy5fwSsZeuyasbOOKLcijmtjXdjyLKWtcXYWVuAKQsSNKK8vXWtHrBmU7JQTqsPWgOMW+n4f9TdXe/EtnE18A/Wm6Zo0rw6dWIndt04jRMHadIa6E1v+uH94LfAKeYhSInaJbX/XiyklShyzrycGVLS7tH1dC9Bs02wH7U/Imt6Q9JmJz7WbP3SIZ+i31q9ZQy2RlqWBO5O0uTJjI4NRvKpuv0YmLiXzCUj5C5e6M+HT7Oh2UmqaQ9LqMrNwPVfydpYlhkVRgq9ujQY3ezesjk8CqTKc9NkTUAk5QedRlOnXSCMK9tQNgeWbRgi4zEIorV+xQAyMvIlK2Ny1JHDMY4kIDNLCL0KShskbalAEqjGjQy7trAymgAjQ820vTFnyJoDSEqwwK3C0HcPF+yqeWvhkkV1nt74K4+xhaDNEtSqJDlD1vwLyZmtIbV6n2Alxl5fxoYdASOWmXX6I7JGOIoNlTQ/8vnuu+8ehZd4Ej81nsjkGLLi8+4ZtOd7cq84ZhzjiV/kyyd7Pid54iGxLr7hsIyJI2CNr9iKH/6LC1yDIywxaNtWz9qLDWQtUYX4V2A76wNOePGY4ogN6jWXyFpnKjCZTODeYUBjCBrVBQUKtArAvoDigJ7o8MecfkP6s88+e9wt9p2T9q5zrb6TgFrl1HE4vIwHN2PehV31C5+xR+urVc4zsiY3h0DAZknIUPVc+2j3JTGkLghcewd2MsCrKuo5bivjle8zZK0/OAWrZOEa2K+M82xbCRmJmNGIt5nq7oisFTLIyjImf4LLh/0dZ9+QW5WZryM0xHhWJNTrXtknhyUQiUK8z/aFm8hpFkTm1lb65ef6NmsQT3x/1D+/U91KlHdhl6CThMx4WptcImsGjhMxdC/jjcA/e5yiOJsKA2n1CFUbx8nmwyAck0GyLtUCJ4+2CEg77VWRIzlV5pwXccjio0p9dP0zx8ksWN3wEFCtA/b6PCJr11siMpNQXaimEYEtPUhcvT5VOs7Dzha92UfvulePIRL2E1wrA+YKWfMrQR3sr2KauR6pIApkJXhn9H1E1vxVVcn2+gpZ068KdlS58yWkpcLkf3fEu2SCbC3BGH9GX9rARUayIuyezsjPl8Ux7O3TIHUsfdFp9FPP7drHW6pqMaZQYac61iWydqGA15k1IBXmyiCqgtmnXMEiyzLgTJZj7BjD+pwprKkSI7X9mx4hLkFx1jecAkeFaV0M9ra/1d9hyVqc8XoJxzHVn4A045F4/FVY/oRWgous2pnW/uUvf3lMAzm1/lWOppyjCpvNLQNoyxZHSW2FDmCSDMnFNu09imfGkIj4rQCE1aN7ZlTsj5D4R0+/gl6yQAKwPzP2lWv4GV0rThAWXfdI0nFJlm+zuyc7PG9sKQAe52InyUmy4bsISnwoTuiBPkb6pTP9sINlyJ5+rmA7awu7NWSEZVbRK4jogj8HOyyWQRQTfIWP2icrstMHEiQ/+0u89Gor5kcyiT3VLf+gv1G7VcfFGBnFLV6K7Wr/l8maAmRomQnYUTVWB3l2n/EQDHJ0c29mOigjIiyE9Omnnz7+ZsssgAJaOSwFeJaRUVJxtG3a7yo9DkGWNvO1bV/5rm9BiyRURaO+GJVzWgbyYoS/FfvJT37yWAb661//+tAFZ3U94rZU9MknnzxeJvBXZF4Q8Xdk/rz2yHklTcHgs9Pm5IRJVSWxCKqe4470MTou0SLn/Envz3/+8+9/+9vfPp4o8GcO/EPA9K5HDoJWldUjzt41zx6jW0t+bI50R/2YFYoL7wawu2U/mP7lX/7l8ecU7JQCxZaPwOnxW2SIFBQykvyRfsmjnfsbvWp1JN/V4/zdWIhXciBvr48QOlvAzqYKOZhgoxN49cdW7C7J4gQ4LImyJZ7o9V+PZbmEPXbbHZ/ADAOZe9xymayBoVREorpGABXgyn0AskYu4+50llm5ZWeOoppJxTp77ZV2nJITqjCOSPRKn6+0FdCqGMlKVTaTOJ8dT3KRpDjvqOp7tu9nroNdBQu7ynRE6s/03V6DIKJjhNyef/U7IuBPCG2GgGBF/Hye7++qrvULuyIQpyTRHOHFB3hB8QhTyw9JAKpwfY5mjqMxFIr4B/bd9yz4lSJQshr511NkTbEqLdVur2Idgb96HCHIioCYzsw419UxrrYnE4XK4HRw9frZ9shadaWi6U0HZ/tZ1Y7NBZDZCHsg0VV9t/2ErFU/ArBXZbTX7PyeCg12/jgKphUyICy+tYscJB7+NKtXds/atSqcX67A2fYRsrY0h1Rb4m3b+84usIjDET/oV3FpWeOq3ehKMpCokf3V63syj46JKXY/Kk6eImsDUoJpmuzDgAY5+wh21aiK4awtA/gIkDvWjEZK7B0nv+qSEzDoFTxnuJ2nI/pVvWcJoyfHO46xt2khWwqQMzx0w46CZUZPAiJTV9e8A2NvTMQAu2qfzdn+CvaztooA/bJ3ZhQ9Od51TAwqUvgl25/hcZ6OZtrCzu6I0bLXTlK8qj/cpnJXlPJ3PnmGHR4xbDvTlm+JKXY/SoZPk3VAq3oElxsbRx9TemW+ab2bJ0dtnVPBAJFxPuqWA1sPO8Pjpkae7Dhq68kPieCj4q1yWRY5wuIcu7uJZSptpnDWXlAghDrOR9tHJu5znGHhF+wO+1nbu25krdClOOanZ5joyE3Ns3Zm6BLhCtl29iHxKKDO8JgdqMbZ9KytNpLajNxPk7UMoGy3VqRyQsJHH8Krkk3zVORHbZ1zZ1S/yHDnUsuMkmob07NMjWRPlZApzAweGZoejto6H8JSZXwUJ5aUYXevgh1VDZYpjrA4x9ZsqXKYsbvE70On7F91/6592FVVsFsKYHfroGfYtYWdD5+1laDZ2sfSl1nIu/DWcWFX8bMfuSRSSfoMj/P8Y6Zt7oFYbmH3j1JZKxbZGm68xefp4Qy7ClkMS1ZnbWGHFzcYZ3llLWiV9ypkIAzGMEcfpM4RAUZwR22d078pB+Cc3jrWEZDqYDv3ETWZVEzIxCd4GEhwOk/5Ajo4yS8A871uOYCbN9bFXCODCwo3Njj7RyBsuoedLTghLOxTcfT22Z0tEbB9bUypYaWrqiPnVBnwmoU4TxfvnmHBzrawSziIO8mqhznH+AXsbJ9joy3dJvkLcD7xEZaB+GGKjNxgZJ+Kg6wSeD1mn/xtW8clPTGCnPRNT3TKP1SufIIudsbxTN9im6+yBznJxI9bnO13SYd/sGl7rv2uDR3ThXH42Wi9/nJlLdMKINVCyHoG+DNtKAdZIS1B8hEMSA7TwARtxaUCYUwyIzNJjL5qm95+qlVGTkJiQMsHngxgxN51dx4TTKoe01rB+UrVmyAWyL0qCsHRr7GQ+sh578IPu+Scu/U75eEDEhW7I4i7MI7G4dOm6kiUPPyybct/Jdb2+Oi7PpA7ImRr7SRk2M3WxTvSGl1/13FJhCxsL5EkNneMT3907HV48dHjjctkTakqKw/hywoceYfw6VNgIAnrfx9hamgNyssEMmdkpAOK9qyzF3E8J+o3pf/nf/7nEXS94OasnvHW3rOi1u1UG1WfnIOzWB/MWO/aStDWnCXo2TW2KqtrkDydeNYVZvryfKzkhhRqe87qLUvEVXVS29y1L3jIC/vVMcWLypp9PQPteWgvLdWP53/FUvqWxLT/CElaUvYCkVlFJWrk4n6EZ7e9xwCDX8HLTDtYsuXLSN/z3X7Cl08j5pbkxZX4wTG59l1b1S5/vUsWVb+xYb8AACAASURBVDf9KPiWkDXjcSJkLQB3ZhtG0r9g5rwy+zNEscLYKkCOKGkg0Frl0wlHdCPJGhQHtHXMix0tESFlfThvP+vygroGhH03WpGEYO6R/gpsZ33AimjZAHm2eM6ud54dBaIAkKhgFgSCXOXSs6sbNQKaE+/2sx4GAUMucrIB7L12R8eQtSLDtd5L0A+bSu70iej4QSpMffEDbxzSi+PvwE4OY1v6kKj4dPVNyVs8xn/5u8RL5rYq5j8wqxr5vT5dq3LVT9WfxCjGtKeHeu7OfQnTzFaBQtY7xhbjEpUYESstYV+qrF0scBhEpxxxNwgOgiTzQgIl7h6z1z8nQsbkoMw6feeMpuymg1UnHM7fZ7WVoaqCQ5oxIOB6TR3bcYnK9FvbV5Year9X901PkUum5ivIAzZ6U7kI4h42+hPcqrpnEsRVnG17/o6wkKqk8UzQ6gM2yzkIDUEZRxKQAOGz5FPxIzD25m+u6yWyVtYd3+FlG9jF3chPYZSQ+AddIfDI45xKkZ35kKWPo6IDVuP5SOrp5+6tGPdiFsIm/x3j8zVJ2pgSXqvvS2TtYgZRJdxJmsghjqMiu0Nx7RgUqUoWYLNkNSJrFZYglQDgqoHajouk3HBRtdyp8yoHx/FmmcRRj7+yj5AEo2kfXSDutj9JDmkhgLYCa9vu+I5oVDuIRpGycgwEYOaAkNm4BqZ92M1gxdu7lv8kSX7Xs03VRWadlvRwQ9UVHfJbRQuihrtHROkPdngRlhlHjt+9hSMv6Nw1tsJUsjL7YvuWZ6bJmhKRCqLB/kfZcTU4Bmdg1ahH2ziPY6vHGfWX6Tslcrg6HRxdI8jIqyqOrji1ysparY/1b9lbQOhbgLa46N3NDb8ZYCp6Z5VFFthzs++ZyrKnH7YUiH7bQYBzzHb24TrYkXV+IZD+Wv30+l9xzNiIRTVsKmx2saJfffAfCdiar0RlrBaXY/TCL+irzuRWyXHUT2bQkvSZz0k4bOl3ZxQotajgPyptv1OTdX+2t/xDtz1cxjN7Fx+SdOLnSN5V58gjQbOLmQD5V/V91g8fYHf+jmMtA1W/mCZr2R9RmcJ7/vds4NXnOYCpkYyHvIBaPcaoP4HFCTkQOUZjC0LVMj2pBjONDbkjJNNaN1hUa4iaLjkx5zVO65iMparPskmm0SNZVx6Hk0z0LkmuIixEIBDMVOC2P7rbTl8SnipP4FTnXYm17YvNjB3sKyt7RY91cDZFyO3Y+W4WBzuyu5M0jC9Jsgu79wg1MtrCoOAwS0LElhAcZys+w8fzY/9IUByJAYSEGGtf9o1nXdsSDBsczTzba1/9bixjww7H2azi1fF61+MNHzPPyjXTZM1ZKI8R7ySMgEFiAtr0SKXXThHSbsdWsJgSIZmjcSU0AcZpVQ1ItpILw3MET0Nw2JzTP+KmX2TfYoDd2Kp1/bbnd31HWEiFbGx+hP0ZGfRPD0jLtoedziQMJGCbxPfMeFeuoXMkk8qyBs2Vfnpt3duAB3G5H9Nr4xjsAlbgqq5H7XYch1thNJsg6Ye8/i7LbIBM/DsVumWQEDPd8mX+rghq5dcXX0DUfG9VkdCO0/suZiVIHKO4Wmn33ni9Y2RQnLABXaXNNFkLlD/96U9TVa2AUsKrRs6yMmFMN2fW5fTHwBz9rN8AfGXL2TirYDFlJWevPyTGKU1fPNZnuQJxC0TOGJLTH90gc1VFyNo6vDFGZG1MU0M3dd3I7Mmw+hiZ2URlaZbQTslWjCcQrIPTBWLokTUdkcPTRxJddLli/FEf5JKc2MNMMnYatb96PAlb5XZGBgiLX7nm6jjPtBdXbK1SVhjx49l+6IlvK2xyDX8XGyprxZbjbMjeCLtH1trQC86xXGimmv52bpGz2GVzRemZbXbJQo+ShSXCqv8pspbZXKwixPpnQppKcDCkqmoctUdAMgiCk80o6ygw0l5wqzR8H/W94jhjkc94pnoqh16/SMZavmRmbQ52gW6K70894arXWQNVTarckJV916jKq3HqNZIaQleNwb67woRJVQ07G46wVxmP9l0vaM0MfPQpIOiC7SWsEXbX0icbCPjd2BGWJEXX7H+E68o5ctMru0u8MyQkaZAFdsXCbuzi2ywHdvcoRsnRciA70g9b8hVyIvlKwOIZ+YsFfbK56yz9xZd7Osx1YkP7ug7ea7/iGN8KdoniiItWjHfUB92rrHECnyHLFFlTFuJljJmgZRwP/SOummVb4VRMspi21rBUsUfOyHFMpTi7rL/bgMZDJioAQTOSjRx+9N+P2fsxfz9w788PvATh/yDbNTeBZ6oo+dnC7nljyWeUzY0tuAUCeUZB1Or42e8SNJsby4xmhH22fz4hsCUlROXmkTVr02N+hSRG2CUqzitZzayhzso0asdeXljKMsCo3dXj8d9UlXzqrA+yqK5hV13vnFEiBIWA+ymSp1gfEZYKlA2Rs62CS2Ei3tsntmCQ9BU0PmLecgk9jBI0vShykgSOir4zHc6ch5N+xbuxdheCZzLhRktgYtCy2RRZa4ThZcKzAXJeYKsCkO+RMbQXiIhBMOf6sy1lcpKZyuSsr9F5GGQ0jogg2+p4dN3scbg5MRKynblOsKtMvDV2pteZ/kZtjKOyYPdaJY3aXz2uwkZAyOoK+ZDHctRMwXBVprSHXfJF1rsJImOebeG1FGUJbCd2tkC0igg6GBF15HVeO7ZE3jk+2iJAvCAhjBJzey0OYfOjoq+95up3OGC3eqCS5/tX+9jRnkzehJaw6OuwskYIPjKgzDgrUMAjpDOjOE8obWf7l2lU1oL+1YpvNCZyRibICqFekW/UZz1OR2TnwLMY6Mo6uCUBBD97XR13Zp9MEqEqdkdC5FNIx/bMP6q8KnOzKpU+/dVzK/b1SS5kYjqcNdYVfb/SBz1lyYHdr+jsyriIEfF6EmK2gBC7dDaTRMgtjsTWrP34Ij9UpLh29roruMmlkrUkycdmlnqv9P9sW4WDyhr/0NkUWWts7eTZQVdfx6mQFqUypu8ytgp9xUd/jKcvgWt/FzFe0Q1HJUumqLAjrhWY9aFK0r8PolJh2L8i4862kSnkQLaV2OmST2UcM6udeGb7FrRkUqQgUfjJuQq72IHV7NY4YgsJz8q3sx2ChtsHYcG/EjvM4Q9jKNCMsxPTbN+SiJvQ4vKUrGc7fVc75MVhVdmmL5YsVnxUFh/JYXv6lTzMLFT+KzDrw/q59WMkvat662F55piEZR3XFHkFfv3kBuYz8tx1jaA123EvYQVufYgd1avk95HtDrvqdyV2yysfqZo+8qPDyvrowo9wDlmrCFT+1nWsOa34WH+TvT9CNT3Ss6DKDGMFZn2YapsGC9od080RlmeOqwbJanq8Ar9+zKJU18/Ic9c1qmy+aaa7AnfsDruZ2ke2O+weMFBtrsLupqKKGva7bPjsOFNkbaqQB9qfHWjldaZC5LGVbZGWCtsUZsUHWTGetcJMET9CxSGQYOZcpqlkhH0FZn3QYbDrm90/ylIA/yEPGbPmjbT4wQr8+qHL2N13+yv99tm+FA2w80X+HtuswB27S1LRK+yr79E8ix1Bw20pgM/zf7pYhV2/wc7X+dRHWQLCOWa5/JI9psjaXXE3dj5K1s30H2mtcCq48olTCRBrg6ZIlkRWjJO+n93GeG72cjCO3OvrVTslQNgd9t4Y7zhm9rRiuk4/o+QLu4TF3xHCO3C2YyIPtoCf3XszvtZ/2z7y/aidcWC2tIYUc807txKTGDTrk6iOfDvYRm0cZ/f2vO+w83WVNvu/E3PG5oueALJywB5TZO3OuPVMWWhEEBngji3HXfXoHkPJXNYBKaVWU7Aax9poPX4Hxt4Y5Dl7dE8b1QHH7vWRY0lGElKvklBdeR4W9lzz7u2KR/foBSHxIdh7/iwwPPtO1+/GbHxynj26xz9TgR3JrEp1ExHp9xKWGPC8NB21pHbU765zMM08ukdHli8RLmyt7IotuC2d0UHP5yUF7wHseALqGf2QcfrRvQxgPUtF40beO0krCncTzFtvvcqHAyIa5z3ixvl6xCUgrfupUv3+gAymouAcwS2Q3cxww3FVFZ++r26RK2dEnh7cT6XvuCSahMrZkGzv6R0OrTqDWTsvKLArcm/lcQxuH9POHqm11+z6zmkFWV7M6tnzbGx+q2rSB9JnbwUIn+Yj9Xr907EbjpZd6rm7903NrdG6EcZWwW7JAqmwJTLzopE2I3n5Ox+BW1zkpqJYqZW6mILdCxlioUfod+mAzSRMuNiiHdd5cnoTUrzTBR3BELlhMxN3XsJjc/pi91ZX4ks7MfLu5T/xp6BgV/4p+UxV1oLcBd5S0kmbtVol7voe4wk4QCqxZkyyypDejPPyCAKuiic7A8rADOMtOuTGgRlaVk5fDM4ZOLkbGvrOubu3yJlT5u51AgyJckaO6GdU/VSlN0fhbmWEjZPmDbI//vGP//sjTW1bWBE+7EjundiNLaFKnIgriaqV+ei7qS2C8nKXJyD05a1RwUCv9Vr98wXYTb/rubv3EQ8SIi+fTdIMUSEev5vC5nxem1ZGyU6xEV+XrCRq8cy2tcoUUwhSkpYMMl7b5+7v4lSRAB9ZWlxspIgUw2wowdCT2JeAxK4++I7Yja2189KPGbMnSyoO5K2t8ejrXTxHJomDrOJVMUaWKbJ2MacxNQSiGreC3b3PkWRGZDOSAcFwQgYUlC1Zcz6BSxH6gSfEN5LfS0GMS2mjNruPC05OhnCOxuJw7NQj63odeyL4o7VZeoFdFW7qWK+/c1+BYDooEJ8lD7bzGnVdj4RPEhDILR6VKyLwmxbtuTu/S07kO1uSEdRkbUmNrI6ZjfrwjxCZ9giOb7WYvMEpidFDe+6O78gJGfsBKLOqdkxLGpIPG42WLeB0reTEj/m8fmwlbde2/SJ6/CF+XN+ev+u78f1sRWZSxp0ma9Uph/AZKWcnEA4l23Ag2a8NWpkW8VomYBzbLG3Uylp1mapJdc6RJQH9jTKpDKzy1laSGLXbhV/ACFp4ziq91WQNu3HflaSRK+xs6s74WWId2YB9kX69/ois+RM/M4uLf4z63nWcvGRQVSOuo3GeIWuJX9/02saTJIbgJOm7SYtdJFfJmRx8usXOHxVQliwQLDlbDPqhP+Srfc7TKx7JEh9bp3/+5hyOwBvVX9Jm95Y96J59qmzTZI2kdGJaohrbLXDbP2OYlnJKiq8OhDytyak+OB8DITVVQ1tZ68dSgqpSX7BYD0MIjN6r2C0zaKOvu50XNg6ENDgQWVrd1O8ryZqOjUdPdPuOmYXlN3aEnR6q3Svuq/v0KhHRK19orxekihI+B3tN+G3bXd9VhfyZLyOYo3GOyDrEZzbJ3/Xrkx8Ss19JwThIMHZvzx3JseKc8Sw/KhLEZdU9u6V4sfyjjXgXn2RWNYdgkbOYVUVXwpd8kaGZBv+uswfLJsZ23otXvVnHCoxHffA5ssETLNpPk7XGwFsH7jn30eArzgkc0x7Kb6tbgJCo6hdIjq19j6wZU0b2W7Gmgfq0zstxXcuQrbwMqKpndMssydBtux3fOSeHsgxAhl4yqeOuJGtjw44sBHq7xlfH3bXP3pYv6KA67qvj6YsvW1YTFG1/sCMJmDN+22bnd+Or/Czn9SrfduwjskZ+KnM+b13berWlla+++urxg1V8uiVkMWR8Ps8H2vF2fkeQkpSlGPvV7vatZcP77//+799/9913j9jV1i/5ZemG/sQp4mM/hVhkDlnjB7PlutTgGuctkSjqjJXr7tqS19jtUy2XyFpVQ0mMKPtQyG4AxmAwDmVpo7cEg8RkWT9J6mdKbX/zm998//Of//zxE6UMyShkFfRuxCF2huCkcCFq5C0wephUdQJb8HLeu7AjDJWPsc+qK3KvJOvogc5UMJaN2kSZNju28GYZwMxpxRh8SaWMtPhNGxB1DDamT4SZJbB6ftc+wuBvqkXx1isg2rGPyFpbWPi5Kps99Q+X6ypZ1X75uvs6CqG7ChRkrKCSpBFvlcc+OaxXO6fowgdw8RXEbNkkFam+6FByqgkvZO2c/R42foewa6XeyrL6Oy6iaxgUSDVJGesSWTO4DG2KYA2RklYL3PZHYIEiCzJCL9MJOHe1k0gY0nKNG20qA8Gpjb45q7UgbRgilaprVdkcuZXBdwRtCqmdIG8rkd41rx6jXwGjykCUMxXODrKm8xAH+/ec+1WsvesFrMKAbetUtdf27BiZ4ZDwBSE7ClRLaqP1YP6uDf3DP0rkZ2NfPS9BW69FPshoRKa1X3hGNxhrO30han7iBjyfHvUPryJGG7qjj9rXjn3J1JjwKFLaMcSEOMAFZgd57FJ8sxHbhuhwh2UU8c6H2FJ/4QDjiP8ej4lx55H2TJHUyvnMd+PgOTjwUCvXJbImQCoTywYIa6cB9S1IKYxjIe2zoBWUslOm7ipCmTgEE6Mia0SoLedlGFUEAu8pmlGNrz/Jih567VYeMybjqYAYMhjqGHSkHUeExYzHHXQzB9eoSHMd50UEjnNeyUk7enD9yHEFh/U7gcAW2lUZVu/DRFY3hhClKazvr4xDD8jftFlFBo+gRYhwjfpGZHSl2oF91G7VcdjhzU1y9uphF8h8kC3Z3bTZbEFhwp+dS7C7ns3Ykf/r30zVNWw/sqd++JPCh++nv1VY235gh4d9kHUKrLad7xKsGbMiRjsxzpbihcwwkxfpiXXxjfy1ZXvVtsTd69sxOkWa7H5HkiarcfwtGjnZij6qfJfJWqeyjmm57DzKynWQZ/dDvBQtO3Kes75USkj3m2+++f5nP/vZYzlEYsnyCfnJbN0969Zna9Z1TIGNsFdNy2vfdZ+hOKCAgqeeq/uwqDK8debfaiz//MM//MP3n3zyyeNvxgSaflyDnBC/tb7PP//8+x//+MePdq6hC/0gh9p/9uHl9D47bW485KGSE7QS44rxBOjf/d3fff+LX/zigZ2urNn+9Kc/fegtOHtbgcNfYO+dX3kMVrKyObIY9U0/iOlvf/vbQ364fvjDH37/2WefPRKSJJdKEvEoXmAQC0jdlj+M+s9xpG8NVYXaSxpp9+qWv8OOW9idLx71CT9OIBssvTVr1ysoJVuzbB9txYpCwFhHY+AMPMceR+1WnBN35LScyy4tURvjMlnrhBMwHiLZmXUQBCczFaawmaAV6JxTJaB6YBCVRCpy8iNsGdw5CpKJkTxcqUJHBlBdCRLT1Bl5Rv2cHRcYAk6FQdej9rDQE0LmXKaF8NCX6oMuUjlxXI7AZrDTjyzuGtcjpVFAwgozmfS9M1mRGW5EzS5nNhnpph4nvyqS7LDTlQ8d2Na27b5rycLu9LVCnnaMfGcHFaLxkmRzrm7JwF/ph/xw8RPYsiYdOREBX1B1a+e8mJhZyhM3qkv2MM7IP6psz+zzY3jpWIwpBI/6gY2fwMXfxbGYpxN95Vrxzq/pKe3oCP6z+NVG9c0W9qPP9L1yy3Z4zpLTaNZ+mawJGEKU/bNmtFLw9EXxpq4AqKpXK4sj6hfx6LuXzSJLtoiO01PsTsIijycwVBgzM4rIt2srsDm8ag9p75TJUhSCEFQCrQbfLnxH/bIFWfihRwiT/I6uefYcwlHBC17Yn+2nXkde9kLS+pzx81wPO5JDWJYcfM+5lVtJAHaPUpJzRFh1TDhgk4zgO0okKWq0E/czPqVfyRx29t9pd5zC7rCPdPwUWVOYDlVZOq8KXLmPrAWIrLmy31f7Up1ammHMV/saXU+/pmBnVd/o+l3HETbHMg3dNUbI2uxn1xhX+0UEsKt6dwYtwjKGSu6qjDvbi0F2HxHJq2OHrN1DySz41T5XXK9IkaQkz51y0a3Zy5FvPU3WFAEIJQsqN0SOPtbLEByhLJ8ctXVOO9mPcxxlzBUGudpH5JLZZVwOdoYnVRk9HLV13nSdTAw3UwFclf+V9sFuq+o4wuKcSkk1zhFn7I4Q2ZxvXakAX8E0e22wC1o2OsPOL2BXmZ21dS/ErC1j2M7KdUc7NglRm1We+TG8dCTmz7C7ByT5i/OPZnc+SC4fNyfN9M/wWMqxfMumZ221sRyj/+h3ZM+XyFqnwAChhD/6WPsxhZShGPCorXMM/dGCtadEAaYSOsMjO8NED0dtnZcAemN9tGOq/iMszrG1qozzzthdRfnRiKrVO0JhozPs/ILdYT9ri9CP1qhbGd75XRyf4XHeEulMW4ncLPqdmGbGtoRkWfIMO0LP8slZW3afrdifJmtEahAZQWawrnX0QdKmeKa4gBy1dc7ySqoMY8wo8442ybSpAFQEbtqc4VExCkZ6OGubKfBHrKxTAbCN5aAzLPCypaQ2Y3dBa4zo9w6bzoxR7a4CcgPsDHtu5sF+1taNS+up8fmPlLBgr5W1JH2Gx3k3AGfa5lG1j2Z3uGMP+PHdjC0lcjFse6YnPsLXE1dHvvg0WRvAozMI+GiAV85ZE1aVAPRKPyuvRaAMJmPuXLNmPFOknfcEruiF48LOAd2t37lmnXsCZmxXZNzVFnZVFey716zZ2xIgotuF50q/sLvZ56Yyuc6m6lf6rm35O+yWWGYrzXr9jn0yiXG4FR075TLrNg5eHWF5iqwZj2LdANtJ1p62MIU2rTCl2qmskYLa46oA8vi0d6w5MoJRRQvuVxybo1g2sOZpzFaOu7+HqE1ZOVaPSMmsHTvZH8loJobszTR6NnUua/xmYkd9jcZYeRwmfmjKalnjKKCOxkV8fAIBqKL127ZXkQV7Zlhtmzu/w8oH+TvC6tmCvV6VVQWrD2RNxxL2nTh7Y7kXp1hkd48IPmv3Xt/tsSybIOyWV9L2MllzOFNAxrO+unOdTSBLBgyIJHY+KheFnG3J4qaZ6U2CjaOZvpvycTTBhtBU4AxOZ7VfMwWOLwHloy0Sy/TXFkG4WYG06/Xv2Jd82MAjdWxCVnLQgWCVoGCC237OV1kFOqKSfKxlCgJ6dL1AiJ7YWRs3JKuea1937gseN8FgV6T0COtMHvjgZGd6Ylt+oIJm62BH4gjCeNqd9bv7POxeIGEr2OOf7Et2tubzZlt8ufow2fiHGOAXbBp/z1af2sEvhlTwbsyaxezGdtY/bHwQ18HwjN3Pxsh5RQkdKoDpIf6Q87aXyZqxLLL/93//9yMT9oKyDvDqPieXbWbfYHx1vLPrvfbOeSk0bekAiXszzNtR3hL0yre3pTze2GbkX//61//75pw36Xz8YhiyTwLQN+eQEI/eYIwMu7cqac99c6aa+SVrJOYNSD+iBQtbCeTW4RC1ROYtLa9986Fvv/32ccdcJRUiCBZ/eoAkdvtYxhttye13N2AftTk7Th/0xCe8Uux3LfiIpwUUJRU7XXjaQkV71u/u8xKnN16RaCUrZMov8xawNwh/97vf/X8+zP7IGPn+6Ec/erxdG3+31V7MVAziSvycvcFYr9m1L1l6Q/IuWeiKb7B/GzswXiJrHcgwAkjA1Wpol8JMG00RVLOycyXJXWP2+kVQHDaPolUCEcyITLWkMlKFklNFLDhrW337CyZEpNKiTx9kCGs1kuCQbQW04Gj76cm54xj5VMKqDFVfm1DohvxJqtZ1e2RtmiuoJTbY6Qh5IzHX0GOV35q9mUVuwtRzd+yzBZkkTDLC/uy4ptF+VIxP6NPslE71y8Z11siH6Cgz16rvZ8d/5jrkYTYl+ZoR1IQi9vk5u5NdZWg2wEfEacZDPMjOzx4oRviSY/rl14g8bW31JcbgN2Y9d+e+2SPfI1+q/93j0wseEUf8o3KBsS+TtWxD0YC0ne0Aw0Gy7JKp2I5xzvrklAKLDKZHdT1aZcQhOWJ1aNMnlUNLssjaD8lwCFNDxNVbu9WXIEdobmiS4UzOHecFInuzO1vUCquOJ6EgWLhbskY48PrxKElNH/xHf7AJXHqo/UnSSJzOazVf2+zcJx+ZzKYE0CvrsrCrznODki1D1pJAJWtY6VLb9txOvG3f9I+oLXOQdxTvbBmiQdiuS18Ind74eXycL/AT+Gpb1ySWkLUkln7u3opn8Q57W0TskoUPGDcFShtnl8gaeVCyoBWMu4Ru+0WM1rhkOcYdOU173arvCVrTM+NXoh6NQdFIywykJWv/rWbZQxViKslALbmlX86rwvDjNgIix+/cIhrTcuvHR+MekbUq2vUCQIVVHREZI/GWDOktM4t3zKj4u0RlNvBqdcWGMFoWkwAkKbGkiqTfEBn9Gtd3yyDaKwKO9L7jHJ83k+R3CPdojCQXS4AzBRW7Wl6QrNrYMC5b4xi6uTvW4TQmHOKzLSCO9PDqOTFBl5bbFGjt8uk0WXMg2dUP98uerwp29XrObopAiTLdnUZEkhxX9afSrUQzwsHJrW0j7JbcVdXOqSwQNUL3TzCyeM95EYb1XbOaWoGNxl51nI5hp3OkgVSO+j4ia8koy0gtWWe5qHezWkUrSeqbbu6yOxsjaEGDNF4tThCuuLFG7xfyvvzyy8dH1Y6YxVfVLZzIWjIP9np+975KmF0QVuuT7dhk9Icfn3766UNfR7oSC85b6x5VzsYTG5IbsmxJqx1/5Xdj83P+zu/fUSTgBoWpuK/+Pk3WsqvAUQ2cVVgrlZe+JArEJuNypBnCzLWvbo1n/TBToqrA2jdHVB1ycu1N95FdG4jIikM4Z33SGp+pDxJvncNYCBppcB4zjDrmzn1yIwqySRRscDTeEVnDSX+qBu2q/ZASB1Vttv1zWEEteHu6bNuv+s6W7Idg2euMsI7GhVWSR2rws6Mknsoavl4Sliy0VYHCfjTG6nOWIeic77fFRjsWbGTk94oU2No2vvNlOMSwwmfky8ZTnOlHv3yn19+OY3xcrBlb8fCO+wX8zvhsX+NkmqyzdifgjjJnjELhBmqJqlUwA2p75hDOhwgBuSvbwpCKEHFU5QULDOQhn4SGeNwU45gzswBEoL217J5ujalvSwicN+Pu3MLEUeEx6o95fAAAIABJREFUrvF72KsMR2SNjCwhqSQRv76MAbvgELw97KpOQWNW1VbkdezV+6ajgsWaba/ynR0vvgE7v+BLruUvkpNEaIzedJtu6Aqpwz475ivtyMs2V2ex4py8lkLg6cmQ5K8osRbfs7fryED/yFxyE3e9/lYfI5+Y5e8S6Ct2f0U2CYOfiJXKc9NkLXv+27/92yNozwRhbIZQJQJ81D5O23PW9jogKNL66R0Zj9PI6m6AuZs9klEiybqyyiJLJQJMhVIV3mLyHS7VtT9wHY0hEPTd3j3v9bfiGExkGd38641xRNbaIydPRHBE/QsOuGEy7WxnFRnDcctAKg7X5fiuLblUtXxNwLwyTojHbNSSAvLVnzHMVhUeI7LWTmWL5BVJr8gxe624ErsIVQV8Nc4sk9Jbbzy8oNj485//fMoL9MYG/jDgrkQlxuibzRUpZOjhuOOYZOFPUSp/TpG1DGdabxqHWM6EtT7nJhryUTmM2gtC64HauomjCuXEo/YcByGYnnHeUXCPrr96HDEgER+Vb1Vc7Qup/elPf3r8A4lnR60/w/6HP/zh8W8kuUHDGchvDZYu07e1OR/V12gMslgGgp0jcfwqw+p9NjStJaOnX0ZypTpkP+ux1mK//vrrxz+YSHAwwU0+9tInIqAD5OVpGclXshslNWMLctj1N2q3SgfkZZ9Vj4+F/FWJsNvC7FlrOuIT0VGLgR0kN8Rp6Wx3sjKLIRMfU2WO4hGBil0zIsmWLd009Ehq7xFHxMfGeATuGRviGjYw87qDsBG1RGM8em9tced3duDvZnfsQH9TZC37mxapgkZBW4FQsueLGe5o2m5qzAm1VV2Y+oycQ/8ISqWrT1PDndMjyoGV43IwhDySTZIRhJwV6crMgt2jWhwzOrNVLSBADq5q9bHPKY+SlbEtRVjfZYsZZ682ubIPu7EQCuyIZISdUwtsgavyR9qqZ7ZHzAI01Rn8gg5m7dmQ3SUhvmDcnpzsTh7t6WlEbL1rrx4jA/+Fg6755NU+eu31SU9sbx0cFjowhnOj5AurZOk6fr8TOxuzDz+2NdbIJmIPkcABDx+GR2LpxaV+JHYzC2Q4k3T4DQI1Bj319LrqGP3zQ4mUjDvja0Zm8WCGrqhRLNPfKVlrJHsKwJlBtAF8xzJIxldVI4ad2RYG5Il4JavVQaLKZAQfhgm2oy0HF/Cq9iSAo/bPnjMOkmV32J/tZ3SdIETyxriiV/JInpmpjPp/5TjsKhlkvXrpQSzBLvGrnGYTAbwSJ1LciZ1sZpCKp1RzR7qERzuEanZw1PbZc+KEzVXuz/Zxdl3sYulB8cAvz6654zx7mKVLIhLpIVlzDB8EIRteEZACZttre6W9DA2ADL4rA8KtorFOapyZSmAWb9pdxZ3qmi0kkh0ykU3ykESss/aqpMj/yvYqdmMhErM7ATyq9F+ViV5hZ3ek+kp/R9de8Xc+jhAtAZFvVIUfjTdzLsQrtmaTaOx4Bc+MLGmjKFHp+hxV+mn/zDbFJf3SMx0/08/qa8hl9qLCFpOHZI0MUmkgyNXCPNsfowkkhGoKaS1PEHOyFR8VO7xIwThnyzPP4rh6nYAgC9k4seqUIVdg1geCgl3Qwm7Jabb6u4rlmfZkglnFQUakqvpdgV8/KiozQj5lnFnCegbLlWskJjLBz+f5JFJZgTt2V5jAzOb631UIXMGtLcIikw97KB5WYpcEYIfZGHS8qwC8il28W/5LYXZI1ulccOycdmec2S0DkodSBa31LDcGTGFWfEz9Ba4xYOe4uyqHWcxpRxZOC7updKZuK3Bbc5TJravr3+ejBC38bOGDvBC1GzCWB1Zg14/1VjrVP9vzs+j9nVu+F+zIWoJ2P2AFbn1YYoAdWbG5sT6Kv1fs/B65uo+yCrt7ARI17Hwd/h2ztmf8B3aYwz9TZK3i2r3AfwWMgLIUICNSMmI1ZV9VaajUZVrVjD4FByNekXFHW04Esxt0qTJ9X4U7lbUKSxI0W4F9B5Zn+hRUkhObq4DNAlZW1pIU7HTrZt6uJaCr2JEn28DKL32sEa+yOzuLKbgTW7P3Ua5iudoeWXm6BFYVpkpzJXZLH8HO1+mCf12Vc0d7JC2ZKExOl0EigEpT5cqYH6HakF09EZFHmVRBKg6AVnxSuerX3WGJyrHo411bxhOwbn5ZnvCdjDBzZMsj1nU5s/2ruqBD/enX9Wz+kZK0pwJUgbBKnmxyFaP2EpGpdG6Cp49g178b6gL3Xbau47K1oFVRttgVFIoVdpe8JJvg6W3FDIJCTOJZG3aXEMS2855gopuPUF3Dxw89Akw+cvbsTt7q+/RU8fueJJ9CzHm61SeflxDNLumz6v9d++TyUxT8kHxTlTWCyCvHHPpdwqssKR2BmAb1lMrBGEE2QloMBGhkFuSMxbCMQxGqcm1VUhSUtq4zjiknZ3jn9MjYZLBMgUgiJ7xsQhfsZMZBP/ZV3a7rBZ3rnddOgAZztsYSJLBz6HdjZzNLFR4RI0/kvLpN9eSmOey+t5WU/j12qbpGZFfHWNmenVR+SMSyT7CzByJD0JYw2N2sI5UhYovdbRGctjDxIY/Mwi5Wqm35EezauiZ9rMQ025dYFceeAuKH7XXiU+Llvwo4+MUyXyG3D/vBJN6dZ3O+nfipfdKdeNdX73xtu3uf7tndS0aSKyxTZM0pVCIeobG/W9BR/wAwBhJR7TNK25YBgfPaqx+41w7Bp53AZPi//OUvjx9D9wM0fgjdq97wMX7acnjOLUgY0Pg5d/eW4wpI2FVYSUBkNDVE4H7JzzOyDOztJ8fIrE0rL5yeDf/ss88ebwe25+kMCcAuGN6ZpBGU56thR7KvBBLdePTRc+BexqIDeq349W+pie9I4vXc3fvshFxhryRCRksD8HjLj91VYX/7298e7ZFUSJjvIGY/nuQlJO2++eab//1ZBOeDC5HxL8SmeOn5Ttru3CInsQq3GRUibcczM3DO260+HrMlO6yw++AtMwXx7k8//JFCllTa/hQv/F2xU3mgbXfHdwkGNviR9jRZa+gCCrGu90qwvAKUcVRXedY2zlj7FFxeSPEcttd0R2RNEcnCHBshwNX2iRQFi+DmyHWsO/eRLqdTZYSojY9EOSQys7bnO6IV2GZDiMjUOLLCBy+HRehe/aXTnM+WzfUFuyWnXmJM291bQZtfaaMHsl0dU5FBH5khsrWq0rIKwq796d85PuIlp3ru7n0VIfmQZyVOOlElKjyQE1uxs3YwmjWyM3lVp5ZRPKeNBBz38a8kMKadtvyDf0n0+n5XrLMBWRUgfLliJ6cCRZyTP4UUWSWe2tZ+dIMLzFC0rwVcbAo7nkP6CLvlgrS7Y2t8iZeckWOqsiYcR0AUgpyi7hC4jsEIMp9psOxZqwHtGIUDA4lcBCESGpG184iIU6scBXOUUse1jwRNj4xfibJtt+t7sEtSMn8dB25ESrYkE+0FqGDTvhItx+WsnJzjqjJta5/Z17fqmh458TuwIxL2QViIi0yR78pWolel0AnduJa9VdAI2fmKT+BbKqBziXzkG1dkuNoW9vge7PV6Sct9BYQmsTinPX9GzOwWEhazYgK5O4YIfZAdYldFtvjia/SibR179z5ZkJRiim34djumolFBphixTwdHvkFfdIk/RmRtDLGCG/CIa1q9tHLs+I5rcZPirCbLabLmsBxBdu5NSXYIXftEppxNBUnZrWGQkOUP8iEiRuSIPbJGYBzVxw1E7QUDg/eMo3IV5PqPs1fZdu4LFGNyHtjboO2NTRfawU8Pkph2+uII8ApGpIUER2RNF7AjNG0T/L0xdx1TGFj6IIP9nn1mxuY/SIxO+I8g4NPs6pVeCaEGBuLm73QlUdHpzDgr2xhX0PLhswKJbWGkKxjJHnvxAaRXn27RXtHDp9i2LX7oxbiSQRtrKzH2+qJ74xoffj5b2/EB9rK2joCRdQouOGCr7e3PkjUdGle8SWKtXtp+d3yXpBQKbFALiGmyJpQLVWK9afMOoWufbnhwOIoUVNUgnElVKWsCyLja98gaIXNkBKW9/lRc1vEYX4DUce1zessrpoYIuyqwbbv6O5yc0WunZKiE0huLcyEjJGwds7ahlxC44Be8dDoia2PDLiBUZu9I0uwDBx28QhoCHBbTavcyTHW9Vv3HP/7xsRTUkjXsqjuYM37V5e594yNSiQRxnfmcChhRu1dDZ7W94qTFoH9kLYHB2CYjvmJ8Ph/S3405/Uui5MpTT9Xu9lW/yMz6M1uyo7ZsK6nDAl/6s50la3qjS0lahV1npbW/nftsZWyJo+K4RNYUJbAFvKlJ7WiX8MZAUCo8pIqI2uoK6Viiscbj46aLNU43URgTKZsykpExKAFZOabqtOW4qk1ZjWErNri1UYn3zu/EznGTqI4qSzrhZKa8ZhcqEmuZZIMFJsFsjdrNFg7uHoQbrH76lm61N17FQ18qL84jyfledVPbrt5HEioctmWnV8Z1LTtKeHREF2yJDAUH3K1fSXz83HSbbmBfjbHXHzlhVxEjLYXICLu2CgwELS6tWSPa2p4vIF0JSXtjOs/nETlsbQXpu6UU92r0l+t68q48xgbwkovPGbdiYQOxqCgT53mqhS35Cd8XL60tZ8naWLDTp76OYm4lbn3BqkBQGLF9W5hdImsKsBRBQT5ViasFT38xHicEQIWVc9lyVtW+6tjdbp//+I//ePxUp+zLiJSe9r0tXNoJZIHSYkPwsq0gNz26w3nJAK8xBRYZerKThYNzWMGtuuCwjM1JOThMgs9NRRUIR7f9zW9+8/gZV8tBSLkla+PRneBgA6TZBkJPphXHyCNofHpyPTuGviR4VZOAlIR7fdE/onK/gm7t99qtPsZmiBVu/pg16XYcFSTiYhe+KSb5puudi53Y3UwCBufg8lF4IcXemrWxFEgIU4LrxUQrz4rvfJacEgxcbZ98nd3oRgLi59ooVBxTmJkJtvEJ98yadcYz25D86GCl76X/3paOYRfrxo390vYSWbtIhx5ncye57SydrtzKcshKhhe8lH7WP+UyImUzoGx1do0xVNaMFIeu13B+ChTcksYdBuRwDKeyQ8ajyo5NOKmlD0HrO8ymz5ZtRsGOhI+WQYI/ywGwC/w246fd6i2bG1MyboPv1bGQFRIyoxgt62nDznyDHLavjjtzPfIkE/9FQiO7s69EwoYhdcmUn6qW+azxEL9k64PcxS1sihv4+UtPLj6XJTD93RHv8PJ3SQSWnlyOiW8FBxv6zkfZh85WkLXYkDDYvXeDcyTXK8cVZnhVzLZLIPq9TNaCxs0r1YgMtzNwjaWaYTiVH+fhZEcKoWTEZflD1egPADzCF4WTGaE5pk/VBVLgIK4TKL0xHJM4XKt6HRHgkWxXzhlPYAkmVRFdtHL5zqElmfxhqT9BsBTkGWKzC1U2vbVjS3za/PKXv3w8a43ocwO1bStIjSMQBHxIoG236js9Gy9BOyKTK+NJwPDRB7urythdcj5KvMHOT6zhXhnzmbbiCQGxqaJgRJBiEFl9/vnn33/xxRcPW5pFsr/jro2Pwq5PRAB31uvFAPyjGOZzyNNTCcbz/RlMM9fwZX4lsbC7omCEXX/i1HKBZSxc5CP5sC/i1p/r4ebbZpHep6Avy350JbbEBn9rZYRV0pMMbdvzq7/zcVU1DDisp+vLZE0JyToqbEpbLXj6i5MJkup8Od/bci5LGoiXIQWmazOF5cDOSwCIBwH5yKKC+ShwjWeqiaxl9lHF05Pr6jGOplLgfMbsXc8WjMwOAhBeFZkP3KawMCVoax8SAUcUGK6jYxXsiIjphR7JYwlhFOB1jGf32ZDjsqF7FL1guto3XAKXzWGAd9Z/YY+fCO4jErkqV9teMZFljSOSYANYEC6iYnPLeEgeNqQXWwp8yY/P811YEJUKVPz2iCFyiUF9kmmmWMp1V7d0CjubkJH8R33we/dQxAZ7xj5snLjUJ66CWywkRuChK/gRe9q346l0M5vUbqfdzZLEl6KgV1WT7TJZu4jzAiLQjxyqBX/1u6BFopRN6SuCNjLoi6Myrq3vyC/nR1sOYmlCQKyo+EbjcCCVA+dFoqN2dx0X+AhUIHFyttk1NiJCJnQtya4IEvqUoJC//q/IDjuyQggS6M5EhaSiYwR7Rc6ZtggRfoQwo1dYk+DY44jYZ8YftdEv7EgUp4zuz9TryS+ZSCIwreQH4+AFBCreFWc77c6vzNphH43zFFkDwvk5FdKuCly5jxAoi5Os7PfVvhiRA8u2r/Y1up5+VcecZNTmHcctJ3EsQb9r/JB1ZkO7xrnSLzKBXeEwCqYr/Y3aIqwUJ6M27zguBtmdX+4YP2RtNpUZwY5xrvYpAZiJS/I75aJbs4Qj33qarGU1QaW6NM022NHHGhTAnFFldtTWOSRFObLmjgrjqtFqe9k8lb5qLY+CHWFSwVsnpoejds4jBVW+qVFvCaPKcvc+eyNqtmH/IyzOwQO3Nc8ZuyNoY5hNHDnu3bjZw4ySvcmVpHWEn1+wu2rpqJ1zyJCvs7cx+NjdGI/GE4PsLu7F8Rke5+lopi0yVPjArvjbVb0f4Rudgxd2lT75ZmzpPgCeS4I70hXs/IluFYHGG8nyNFlzXgAMJMBMX44+uUEjeK0fHbV1DkBZnNN+pKClTNmW4ewLRtXAGR4zBFPprC2O2jvP2PTLgVdP7UaOMHOcTGyBtNjGevgIR46zu6Ucy1kzdhfgxkDYHy1oI5dExUbBONryC8+JeyJp1CbHTYElZ/aOfmdsckcbfi4OycUHLAGe+TFcls3MQINxtLUujKz4FLsfEdYdeDMGrMHO5vhuxpaWyxQmbDrCnOPa0G3Vb8Zvt0+TNadyg0oFTMGqiKOPDCIryZwyzlFb5zwqRDlAq8pawd/1XcAKKjc1kKlsKHBn8LiOHo7aOp9H1Rhy5zLTFR2GqCWn3GwyuzjC4hxbw81PZuyuitGvIGf/KzLuags7H4fdEoV9NjrDzi/4MexnbREbwmJvhYoqexeeK/3CjqQzI0So4vgMj/NmCDNtYWdr2CUCxHhFxl1tFQtinD3MEPimWeIZdkUM/3DNWVvYcSlfMc5RcfYUWXNWTmhNVbkv+zDo2QfRESZZ5Kh9qhggrOVQgOt2GWa2X/IIWBUT+VP9H2FxLtjP2jlPRxyF46pIGXRWvl3tBBDnQ6LkSdVPXv4g2PiExGp5xHnn2Awe+GN3RCQwObTrqk7gRlr0Czuip+NduGb6JTuyYg/2r7aEXRCTk34k74pdW5+K0b0YRFax0w3sEpXqDfaPkKjJzt/Jk8f3+ELFgwOcq8fss1ttS09sjvDoLe3jI7DTsZmY/Rnb7GzDT+OHZnywVDyRv90GT/y9PV+/609CpD88x/bO93BdJmsdU7ig1flOpXIUSjKO8QRBD8Sdx9wZNrWn3F4WpHw6Ia9KTAD25JPg4OMMElGrR+eNkceSen3ceUxwCSRLGXFc4wcvEgvJWPIhu+WxEC09ICc6MXtAfoJSO+QFb/AYCwGYamtLTzn3ji154PZhp8hKrsyWYOenqiPVJOxihbywIyp2NlPMkpik1OLh42YgllA+QpJGHJ5Thq9itwwIO0whNDbN8mDFJU7Yk4/E7vQgYSU+6Ip/wE7PdFj7eMe+4sNyBXvx0ci6Qxa6oBOPYfKV+E4d6zJZc1Slvd+VYDzZo3a4ep+hBYAlFyBW93+1P89qeraV8XrXysbWrH7wgx88fn9jpB+44PnVr371+HEsSaDtj3M4zoDtubu/CySPEppN1cyvkiSjV/z9CL4f1PFCkh/FSvCS1TUC22+SeGnDedcgAgGK9FtMXlpR0Y102Lbf9R2Bkhf2Ogb7OQa3HzjzwomXL7TlswLOB3aBqI0XMryc4bdr6KP2l306laiQYI69a4t8vUDClpWsJF1+CQe87P673/3useTTJld6YkucwfbeuPTyDr9pbSuuPPePY96FOeOaKfndmLtkMZPy4hL7v0zWOlANmBbptBovAFdvVWaqL9WsKutdhK26Ul14/lcgtk4GN0JjWLr5/e9//2jbOm70wxEEN+LnyCOyNpbA1b6SZPq5Y8vmSDPPPtcZherK2rpKiD/4sJmbRogsa698R6JPG1t4BLkqEim0WPKigwpzpMf2mpXfyYw8YPGRVNK/c4oVhEUHMMPEP7WV1FOBuybYtUN8fGRE1vpQpZtV6buXyCLHzq2xyaDSNZuueOCvtqQnMy9FlcQUubRDQn7dUHXtGnhwCH9q/Z4fOG5maq0//dy9lYzY0ePJlvXuGF+s0J8ZpzGrvo1/qbJ2MTLiSIiLIXaDMCaycFOLgU3Bd4/Z6x8RSxiqnTp9q20FIeJCbH7ZDglVYktbjq+NCoKzmmq1Tqst/WqLsPU7qubT764tGYxvOmh6X51I1SmoW9m0r2TdyiZg9avSEhCSYdtGsPI1JNA737Zf/Z3+BZBkqlCAvY4h2UhSVTZkA7skXPVUr9PXEVkrBEzBYef371r+kyTNphRLMI7iXQKSuGCGvS5hxIf9tIF+JF0fsYQMxUzVjXhRmIh1HFPP3bkv4UgaZKn23SmDcSRwOqR7ia2Od4msGQUAimwdt3a6et+4bkpEeaMgWD1u+qM0BM0ZORx5cs6WPAKXAyJeujEd7pE15+WEHNV5yc+2R9b65tjI0HJBXTOs4+/ch53uYeO4Z2Npz+lgck1vXVZAqhyQv6kx7L2AQOjIKktgI7I4k+nZ8+RUHJjmSyxn/cRPYEdyIz89I2vXwa4wELh0eDd2Pq5IUFD0bFN1YSbAjy1/KUKqrsgtdsSDc6prtjejgs332pf2Er9EZUZJp3diNxbsxmfHnv9WeVfuwypR8x0c0c4mp8maA6kuVUKIZqWQM30hLCAYXKVxpwGtIakAELGKh1KrzJxZIjF94ajO+ylSxq6VtePaWv6Q8Hw/I2s4OTdSQ5a95YIqy8p9Y8NO56rfNrB6Y2nPTn5/gby9pRtVAwK0ximIR8tK+g9hmJZy5Lvszjam7xKKpJPlnB7mHENKyA12GEeynpG1/lyLrC2zBHvGuWOrOrYUYQmkt+RXZSBjfkiMvlpd4Q2x44fVPvnkk8dP8vrxKWTd69sx8WFtG1nWGKrj7tg3Nj/n7/y+nTHuGLPtU1GIO8R99aFpskYSDKEKUl22A+z+bnzBL+PZCqbdY6Z/UxPrp8ZFtlWBkevrr79+/LC/m01uonFKxxAzgucEKmPBnF/90s5yCdL69ttvH87bI2OEZ1rGge/UPR3DznERRk82OqIP1QjZtLVsYQmDrnrVpeMcUXtEyDElrR6xC3zkxu/unFnAk0SKtFW68Ye6hZ3cyA0WBCvYYazt6v4MWWuP/BUAqiz6qn3s3ufvYq1XnLRjS9BsyUdVzHWWmNmJm8mJXW2thdNXbZt++R28ZlUI885ZfKp6XAfXnYki+MVauJYf5vg0WRNcplMxnCmPAyvhAe0Fawa3zZSvLflrG/uE5ryMy+h3KdG4qjtTMg7U4hGUlgmQtJ83VDEi6H/+539+/Dwrcs6jbqk63WH20c7PmSJva3ocuEeInNe1nJsRW93s+M6GWYZQXdF9L0E6RmYEhaSRNYLXXkXVuybyOgcPXGzaW5vlF/Tuhh09H/WXfl/dwg6T5GjdnQyt3Y3hmOBG1LCrFJEb7I7rpyfLLFnTvwJBMhPAvb5WH4NJbJkdIEp6GOGoY7uOvJ4OUUXnnERGdseTcLQ1U+ZX7Jq22RpPcSPhq9rrskra7NjyLQUBuSQKdp/BvloWOs+MsvLcNFlzQqQCzJlwQKuIOOyoIkkfhOHcM2tDgt9yA+I8I/f0/8qWoazHIVHOOyNjxustg+Rctpw21Vuvwkg7W87rVw4Fbj2+a1+Sghd2wTfCnqqSbIhNFcqmCBs2jjeSEX7P3qriEEOPrF3LjywDeRqjVhqjfl89Ti44+FqPTNI/m6gmJV1LP4oYyRvBCrZRoM+StXEkAtNi12TcnVtxJXbdI5FAr8aZZVJ6i4xiViVNRwoOx+mFTdl9pF9t2EARdNdTIexJ32Q6sl+w7dxKFjik8ucUWWcqjCRHAVUFF9im9n/9618fWaqeq/uIUOb03CmjMOBR5cRxJA2BTZlnFX4d65l9xKDqUy2qHGuWG/Wn+qPkH/3oR49nqP0BAGdFajV4OaJ+rfWpwr/88stHUNJBr296MasRQKbFR3rqXX/1GBuqFMkoyEbYreX7g4esRXp+1izh17/+9ePPW+E0tv609WSFD3JDQiou90BGlbtr2R1ZqV5tR7JcxThqz1aSj8qaXL12bCkufvzjHz/s99VXXz2WwTyiBju7s5F2YsbyCB+nG7b+yU9+8r9+b20YqfXG4Q+SFOyIZDd29oKdnsWXxNWTiyzsaObIlgiO34vnmlhcj/wzmzQ7l9TpB5+Iq17/jkn0Zl58XgyN2q06LskqTBDlyB6rxjrrh99ZAlPEKZD50RRZc1pGQEQzmZaSGQ/R1WdTWwEFRQI4NxsqobXtGZ7jI2rZe+f0iBwyrYpaMB05bpUTKWnPkTklZXPWVm+CkAPSkXa2qjRj1v6yH6cX9Ppu+0u7FVtjmbIKJiQhuzvW61twI1sY2IQdfXwXZHF6Fae2MOqTXujJxzS5TWZ1LKRHr8ZR6Y90VK95dh9OtrH2KmhHY/EPSUzC8bRKsJv5wA6XNj5sZdovjuiGXsWT6TYdiavROK5lC9chrlG7Z/HW6+iZLIhVUWRs8tc22YedLWFiS3aBGeGlgk7bxLkii+19tOf/R8WfxKSqplPXpr8dW9jhYTtJ+I4Z3BEOOsNvZiQSIzscknWcDZHItked13MJLoF6RioMgsxU2bWPo30JQJAw5MiZjq6fOQcD+VUNCHJnkMzIow0H4lCWBHbKYxzkwu6wz8o32w75IAXVw5VKkTyI8WhpZVaGUTvykMsygCWaUbuNDn9DAAAgAElEQVQ7j0t0koFZjv1dY0vKCNTfeInJs9hyXhJly6MKOfLyWe351ij5p222EiebI+wzeXLN1a1+YVcE8rF3vcvRyo07/+u//usxU8FHh2TNMXxUvzuCthVu9rvMbaplenAl2Gf71w5uTiUxGOfdmZZMHJwsbKEi2SUTMhSAll2Md0VvO9uqMBCoAJ4N9ivyCFp6VenP3Ei/0vcrbfk47Co+8gncV/obXSuujCO2dhYDo/F7x5Eo3D5k2kHY9Ck5GYPtj6r9noy7jpHLkiceEpOHZK2xj+C4UvnuEj79yjiqXsYjl2pAVjRNXPExlVP9GYPhOMwOJwme2W0qAJjpQJUiuFZg1oc1shA03ME+K9/udhyWTJIU+7CTxLUCv34EqqpaojbO2axwN970LzGRCX7TYzIqIlbg1oflHsmZP8HN78V9xn/nFnYywS7eVb0rsZupmqFb5jQOPe8qgq7qUbyTi83Z45Csr3Z+d3tgOBhns6ZnCrPiI3Ctr+6q2lfoifFUvWY9KzDrw1RT8CLCHZXrCtzpw7Rb1WF5YAV+/Xh65SPNJIK1bhUOCMta9wrc+nAvAHYk/RGKkoq37sOuMLNOvgq7tfPM1upYH3H//zRZU2iWK1SEHG7FBxGYTXyU6qLnOIJKJSBwV2DWh4pFlfHRg5Y+VBxkNWVfgV8/EjSd9vT9UY6p+vimWcAK3PpAVm5m7VpmWKU72C3VrMRu6UNxAvsqOXf1M0XWWcfaJcTVfrNmbTpoqsqIqmD7Kz768jH9iDE/wtRItZs1a9PCYF+BOX1El5ZaBAVHvmqfXe35oaSMUGOjyL1iG+z6l7isY+7CcqVfWGFXVbJ75FyBOX3o0z7MEhffvyLjrrZ1zdr+aux0G+wSFp//KAlbsWj2qCBjjymytsxguuCCjzA9tr5m6mbh/ZXql3OqIhMAdQoIp2zrwX2By1F2OeRsv7AKWI99kflV7Co0ztqOD7uEaLoJe3v+Xd89vuUxsV7lz1aO+xzpxTl+bPlMkLb+7Ls+PF4ncN+FtY4LG+wCF5FUmfksP4aJj9ZztY/s68tslN2rvztPN4jhXT+cFRnrlp97JBD+nsxpy5bsRj/0UbHZd61zPtrW8/pwTGHmscKPshRGZs+xuzfDtlNkLWg9f6iSBSoKetdW5vdwvWlwlYEBOGv7aQ3jGseQlYrFM6WM2AY5rMZBEIKhjvWOfcZzI9WP2B8lj+Af4XacY8Nu22vHYT1jDnvv/N34yYBAPUqJbOr48PJNSRzB0k1PZsfYUQXFh9i8RwAIwgssdN3rp469e9/45IFdgVKxO8dn+TF7SUCIaiST9pKw5R7XtP7uOjr0opL+3o2dPGZ4bO6eQg8XGX3oiO17y3jimJ9b3nR+RNh554MOemPdfYwt/ZKhpSo+PkXWCWzBa/9uoTOeqsA0mOFUGZzTOcpX/Xtj8pe//OXjrUBvRebjx5IA1hZo/ahOvUXlBQD/hCE4ERMnznic2RMSkpXs5rqcu3uLVNz8g52cbdLksI5xWG/ReZtMlVDltM7rxowfkMrvmHAGibityuiU88LOyY+SQx1jxz6ChQV2BBpCghf5+OU+9oOLPfPmrACOPOzqenglOy8WeZvQ89T0mna2+jeT5GPvrq7hU1WSnQ8GO2xuhPtdbJg9G82m3odASPy8YrK84UWf6Mhv0nhxzUyNb6WtdvxLPFkC6xF62u7c8mdEDbeHB3rPvLOpc9478IGH7Iov+H3ss7XnlekKfvve02hta1bB3+mV3nfiO+vbqgFs8Csu6GOKrBnTxYz9zuoagQgi0zQAQiCqDVMYyYTBBBmSBVZl7BPDaMvpcxecEyByhIXA6xSIgjivO++elOA8Z0redR5W+FRYZGyDUVAJLnJySsHbkrVA55AClL5g5wzepGuTEZtzWNjpvCaxXRhH/SoQvMmFtPhfsLMlvxR4zsEEm1eG2Z5d2VC/ErspJWKW8CUgyYjdferY+tevwKfPeu7ufXKqLNmBDYKdffgmzGZIPrCJUbgrycJuJsF3xIVrMjt1TS1C+Bn/ohOJsRL5ndjZjT8jV3K0/uc7YmVnfs5/6YrsEpnr6SD+gIDjH3wFgUtIFRN/okfxIDbiO7XNXfts6HdWYCKXcafIWkNBggCQXq1Y7hKek3JODueTCsP4HAx5AwiciouiZVXrXYwZEua43gSzFq1tCJ8Bkbpj1dH1z9CM2yPJO/DDLlEgrB55wMomAlClKNAEeEvWVVbXIEGBwDkluNau9CCYJYlKkrWf3ftsSe9+YtP6ue8Zk7ySDxn5RoILCUswAjnkRn+SvISf6+GTrPh1jmWb6lqlGn/Kubu2xkUa/JJtj8bVlr9L1PRR9cSnxYFP7EhXsIkDxBfdZQznJKt3LP+RRZLANWZM7XInGcV7ZIS7ZyO2t6TBt6vd6UBhRh/Bm60Chb9Hh61e0m7nlu/hI7Pj8JPxpskau3uAnHFlsZ3C9voWmCoiCha0LaG211AywKosa3RpL1szMpJKILtWBoZNUBirGklGdo7hVSH1XDvuju8CBgEJHjpox2BcclvThFdyScXRts13+sjNJM4pIKpjaKdNsAuIWoGln91bwSMJw8N21WajsXtk3WsL34isBb9x6VQieEeFiVSQhgoSOfUw5BgZkZLlAL49Q9Zml/SKFFt8/N3YszqPHCu27GJcswDxDlvbr5mPwkQ8OE8/LYb2mnw/IutU7KpuCb7qMdfv3rIH7mKDOv40WQsS2cn6GAPvFrjtP8QChIrwiDDJisDImaow7RE3DByxBj6yVnFzEEZKe3L4zilUq0iNM7Xy7fpODpWlKREZaoVgTBjMFlTcqkmOKKnCflRZq7Zkbr+S5ze46YXOKg5jw85xkdY7brwgXrMaDnyWKMkvyK3dImGyVzx1n94smUluSK6es++8RGF8dqfXts3O73TPF41taj5KlIKZbiwF/ed//udjPZafVB/N9J7fa8dXEPWf//znR+EiIbdEJ94kCfq5u7pWNIhzsiLi6pfsIv7pxv0Hyz5inJ7MQCQqWGr8VjspOszM4aLXes5+fEgswd8uv7Ttd3znl+JNAqo4psmaUBzAuh9j3wnCuBzS9B4RcdAKolUYYyMfciLgGrQUwMACtBo1ZC0422TAgPrLYzTVedqxV38nY6a3AqgGIR2YBXAq01/LJKpqUzzkrvJwTS/QkRoSdE3W77I2VjHAaibFuU3JjX+k+3rtq/uwS6rkQ5wCddSnJKba0l7gqop77cnvRitM2mlPR22/MNKbBCWZadPrr71uxXdj03tmhkfVLTxwq8L4Z3xAAk9Vpo3vEjiSzjKgG7GIrvUrGPgC3eizt0yyAmevD9jFn4oaafGBqndY+IJCxFMrWc6ACXYYna8+Gn0qemBChEidH7Qy6F9yMr6EL0nXvtr2K7/Dye50bhbdxuMlstYZB6KouxbgKYryZH8AeutXrcKQMwJD1q6rlQHHtwwCh+NxBGSt/1QxrYE4rDVPuCmxPd/KsOK7MZAQmYzdOhfZBaqnP377298+/uMu/4X3s5/97PvPPvvsEYyjKbTrBYZAdyOHk/fklqg4uKUWznQHdnLAq6onn6TUky3H6EigWn8+Ihc216cnQhBxO1NJf7Zw0ong4Xew1/O79pEsH5Z4+elsYaQdkpFYFR1tsJM3Swba5sZsL5lry9eRuWtC/Lswp19kKUYVU+Ixx7MlB39W+YpjM0Tn6MtNWASroNNPrrGfZAUPW1ZOSLu65SP8yVh3YZeY6BpvKTYqBrJdImsXcG5TEMEdoqsgV+9TFOXLoKrrMyUbH7kIWo7bEgsnlV0ZG0HHUSUgmRn59TCo1hE/0oI/1/XarjrGWDAIKhmeMdu+4XPcB5mwj0DltDDqo9VB7cN1SMEUkkPXc9nXp/sEnJct7iItNjcme7aOG9nYQTs6oit2QvJmI5YDgp3MgtQSiRkaQtCnChv+9Fe3rkV47E0OAVTP79oXsG76sh8SmiULskqoqswRWQeTahpxISU662GRqPSD/MXFHfGueJAcxePIH2GQaM0ecQLZ+SgssIestdMf4jfLjD5xAFseLevxD4ky/tfTz+pjEoOlKn5LRvLXMS6TNaeXcWU11U6PQOoAr+xzDkagbI5FgWeOi8yBRT6CrB2fY3JU00HTYH2rwvXPKUfVpcAWOMi6N0Vpx3n1O0MxmPEQEVI6ChbntBdcDO4ZcnfS2YoOySOYkS6n1s5HUKjajeP6ntxszJEEAgceBXfv2meO0TU7CloETO+t4+pXMMPi7+asv1oKYlf6QsiCMzozBbZG//vf//6xtovgEaKnTAT9SE7+xl+0hX3UbtVx4yFG8qsUxVsw1DHYFNnElghKe7jYVIJLUmV3sSMxiQnn2dJSgCJglAjZQD9iCSmO2lW5XtmHnZ/hFnIe+Rk8/AOZass2lk3MwpyjM/Lyccs97s2IB3rVzrPW/GMkb2LF+vbMbH7Uz+xxWM0OFRPsH9vV6y+TtaAx9VC52Z5NT+tgV/eRBMUL2Nl1coQja5JP5dyOyYgU4zzFCGyzBFsVVoitvS7fGRixIYoegaTdq9voGW5J5Kw/jklXuXHkb6Ysj7g+N8dUnEgHVuvAnNb6ve8qsqNZC+dlB/jpqEcgZzLOnpeYBG3W0kdBK4joxnIPwhaUXvaAGwnDHjm19ddj+Sd57bSnJ9sj2WDnL7ALop12F08SrASKaEZyKSpCUOyIpJEcn0bCbBnsfJV9YUC8qky6HVWudUz9mHGSaedskk7pWUKBxXhVjnZfApdw4IAJcYtjxVdshPy18TdrkrSXoNj922+//f6LL744jSuzM/6l+NPXTruLTQnX/REzq95Yl8ma0hhQtcHoskGryFXfES+HVAmojFZX8ZxD5UBR+u4pqMWiMhW0ZHJ9e37Vd86h2pdAENeqfgUwspW92e4sOWVchCmAOD+nGlXhaf/KVtJBLAiGbUI6r/T5yrWwq95Sjfaqnlf6r9cqgKJjhFTP9fYlabZU+QryXoyIV/GDdK7qE1YzST4/88hsT8aZY3DAjhz5peWLs+v4hQQCtxjpYT/r4+h8EiLskv1Ou0uwZgkKzNE4T5E1JSEqVRxHOQL8yjmEYH1ZhQHADJleGY+DCERGniUElY/ppypzluiuyJS2yNoyzZHx0vbKlg7h5uSC2P7M9bG5dfvRnfSZfmbahKxtd1c0M/LAjjjZIpXbzHXPtEFYCgFVHexnfbAnH2bLUcHBxuJHzF7VZ7CzuTickelM5t55MsJu5kfXM+PEl+HewQ/6zVLb6jhsdUC/7C5JjbjoKbI2EOWqfIABSmAdfWR2bRGwaflRW+cYjHNREsdtwb3zO4VmWoi8Z/CoaGA6w+28JEC/EtVoDf1d+NlQsiIj7Gd42B1u+O2ftUc62iIG/b8LZzuuAILdNB058oEzLPwCdtedtWVn2G2N4bpWhnd+V5SxO7+cwQMvH1H1nmGnJ8WDbQqzd2KtY8OLf8zA45tneNgQz9nOtDUG3bL7UZJ6mqwDSHZjEOtmRx9TemW+aX0W+Y/aq2BGGSZjf4StZGJ98QiLc25iWtKxHnfU1nnLDB8B25kMEtYRFufY3Y0vU2kzhbP2AoPzno39zvOqOPdFzrDwC3aH/aytWeodN7JW6E0cn/kxvHTk/s4ZdjfxENsK2Xb2IUGrfs/wmB1YNmPTs7baSAIzcj9N1qpphpBxVUDK+KOPjGkKrT0yOmrrHMeVma2zfSQnhtv6GOJNVc0pz/DInKZ59HDU1nn3AxAWx1CNzhhydxtJGXZkmrVkVcMRFufgYT/rkDN2V1ULXLMK9t+Na6Z/2AUU7ILQjE+ldYadnmC3nnzW1nqwooe9o98Z2Xa3gV3VKzGTUeWnAjzD4zz/yLLZUXt4ESHsijnJcDeumf7FoBiHmw1Vy/z4CItzdCWGXXfWFnZ46Sn6Hcn2FFmbBnIsFTICEsQUffQxxRGIAlAwHrV1jmK0BcbjSY4ZZwTkruOCFOmoFgWtTw+PII0BkLtpbRwSFsckLo5vW/UBN0dRkUkE2t6FbzQO3cPOFmzCPhy5yt3bZ3e44bevTaZ89MOp63W5YWRmRTd85t0zLARFZtgFH/9noyp3b59f0BPsziMvtjYba+0unmDXRqIS8B9hKSTkHJn4pWWQFi8fpSOEg9CcFxvsl7a4QhuxkWO29ESnsCtQtOEzI1+86zgbsxXsZG7xVAx1n35cm+Rbz7X72tApfzCOpDBKVpfJWqblgCpe0xfOt0t5qhkg3I1NRbNrrNl+KdSMQsXIwep1SIVzO84oDM15GaO28z3rX9owLgPRbdppg7A8N2qb4+/akpcNYBeMHLeVBX6krm0vsToPp8CG24cv0VklZCRFvx69Q+i9vtqxd35Hom4owy6YyNuOF+za9uRlW9jZmv74tUDVttrdMT5mqcFY7Th3f4cnyznIttqJLMEtcUvmErkEHDlh00Y/SFkb9qeL2pd95xVBfN4sJn28a0tOT+aQSTz37L5KNsnAOJZQJKrqExnjMllTqmrPr3sBwAjpbMeWM6tmOMxHqDSsQXkuGcm0eONsXkjxgoZHGyU0jlnbIiJruX7bQH+e/fTAPgKsDoywVdfWB+v179jnQNaczaaQcU8GAeaZ15/+9KcPfDVJcXTnPdftVW/PxPrQFRJEYhW7/j1Da7lpt4/1sNRjqiTPv8Jej2cfTgTlZSR/fkFPOZetChMJ8Qs/uMTe/vTCo2qSe8XOj/iNJYFc/64tEiYnn632JA+ZkQyb5488xIa2kZffKFj8AQgd+rA/Hamg0y5bceWZaRyTY+/aSqhsepcsEhn/YP8lZE35Mr+H7wVRa8DVihXkqeJVJJxn9Rgz/Qko4wsiVVatLDktuRCr4FOBqorMOkztaiAaC0F7jlh/DJSMiphqv3RL1xKVdi3pz8i9og2yEnCwk6eVAz6+IKl6G9DvkyCmipt+6MQNFX0IVB8VpOpF/20SoCM6RfI7q5qRjgQMmSx/sCu527YwigkEJfn+4Q9/eGBv27Gf5AOTGYVlDthVUvy7YkfseZY/1Xfb3x3fjQ0XMmarak8+QE7n2FpFrfKWtGpRxW70Y4bEjj5sLVlVUg8evsbfxYJlsxy/e6sQdXOY3eG6Y3x4+QjfoNuWsC9V1i6m7LyeXY23CwzCQnqCFglS4q6xjvrlRJySHEi2Epbqn0FVXsgoU6ZW2elfokNQOa89olOJ14qdfjm5wFVlkSF93LnlRHCTo0ecAlKQauNtN2+KCbbqH5KQNqoUlYNzPhyTXrVv8SFJfdLNO6pr9hE0yENChb3VOz9AZBK4WYOf7YSltuPDfAaxweSc5M9n+AH8leAkNuSnT9VdTeC13937kqtkAg/ijr8al5/yTZUn0kXI1d4j2fgK+5tN9pIfO9O1tWukPupn93EJ1DIcGc36do+nfz4Atw/faPV5iaxdzLkYj8LvAGAMBhYQlKcquWvcOk6qCA5KnnpOMKmYUlGTlfMK5OrguaYla+0Es6liq1dBLVl5lbg9l/52b5GUCgOx9sZCLs5LVG6+wsdHWmdrr3X+iKxTravo6bO9fvd3tpNIEZLKuDeeALOkRUY2DPa01QfZJSmkzDdyjh+5H2HaX21LL7BL0OKtEnmuvWOLhPldL1kgcsUJzDBJxNod2ZwuxBFc/jcziaticT28CJs/1XN37vNfieouooZNUjfDolc6anlmmqwpUVBac+JAOr5LeYyMMFQ4QJDDsbvG52CyPCXKeC12VYbpv6C2xIG4rMdaa5aZW6ULWlWWa6zXusZ+j6zp3Y0O5wVGL3B26SHBlRuLlWgyJpKBEekIWGuYsJ+RNTJCgKrR0Zo17KpqU0N6HyW/yLJya2wzCuOzeyXTjINUxAL9SKg+1hxhTxv9CPgQb9UhvzBLFVPtlN91ronPwZ4+79jCQjZJqC7RZGx68cNYEg0ZJSz3seijYkx7eCQs7S0ViRXVa87XrfGMbf2bjns3bGv7lfv0LN7MIiWMOtNdOU6vL/FGT/ydHvlc5blpshZcqlqG6WXE3uArj3F4QeCDFIBa2f9RXxIFw2VK1I7NofyKF0c0dVWRUDYSdkx1XPvnzMhNIJjmy+Da+vEhiaG2ZSz9m1UghVGFV69ZtQ8nkiQjTKbCtW+4VNICL0lcovILZ45JcK5pk5VKU2VGB7Cb6o/ICPkbn8/RQ6v7Ks/KfTKbRRkbydQlGjYRD+R2Y42N2Zs9v/nmmwd2MwZFBVzkRrxsKOFGTmP0KuucpyOkQcetX6TNri1fQ5js3iNLeBQX1t3FRfDxg5qsIh+75YkHZERnsLdJSnvj0T2d0nHVffrbtTUWfcNO/71EtWvs9Et/lkL4XS0Mp8lahuFsMqqbZun4ri0DynhIU+C2BLBTDuuHSAVR9sYVSIIWUUsqIRTfHe8ZHB7BjLh9jKES72VybY3NeQXPTqy1b47CYSzxsHmLHW6znc8///z7Tz/99PGLdr/5zW++/8d//MfHL9xZEiBvnQ0gOkHAl1RObFrHbPddq8ozJbatztu2XfmdzpGQ5MN+sakxyCAJmRH84Ac/ePyqm1/zq9glXvKSX3ISN8gc+URO/ThOh73ptmtVnxJGb708/ezYkglp8Mda3WUs5yRlfilx5biiRUGX772tBKZ/ukXYbRu6RpoSG9/rEXp7zarvfFoCwjFwVbuvGuOsHzKIG/rhh2k/Tdacxc9QvusGH4E5PeNx+lElFmArtqlqVTemeb2AMo6gIpdsrHoIoXBEQVuduScX57AswilbQkx7fVg/RHI5tnNLDnhh5zQj7K0MyHe0DMIJJT1Y6UZAIgM6Q+AjPWljiq1SH+mnleOV7wIUCbGpGc9sX66xXNWrLBG3ajKz0hAxe/Ibvt0bB2FJapJ57/zqY+JKInKzW2E0ijP2QsqqUDOHyAE/veV7b8uG7G850LbXRuzRp6dG+Eevzepj/I++2VwS7SWp1WOO+uMnT/27uQBUZZjiVMOMBtp1nDI5LQJRjapMd42lX6QLN6eS6XoVsnayH3kQEWIzhUTACF613Dq86kp/HILDC1jXwDfK5MYQPKp1DpWEsAs/8uAwsJuSjrDX8QUVQvLonmeJTeUsWcFv/Y3sps5+bxr5mg57ekRwwDaa7iI2crAF0ttN2JZ32E9FO7qpWnGzheUi6+9ffvnl44kQ2CWnVEYSsdkBn9Cv8/A7Fh3VPrPvOrqBPU8Z5dyOLaKma/Ip0EZ+hgdU/RJvbIOkfbckEtm0Exsw83E+pW/JwBYhp23dIsokd3FyR5HIt8jJT3HeO8maP9GnAiWzm6nKmrIyZZkJ2qr0lfuCVNBzBobu3fRZNR5DCTQP73NGzjJyXG0FuGUKzmqKZ81WYJK1JRfJxuxAoJo2qsTOsCBxzqQSQe5tn6tw6weekAvskuIIex3XkolKKD/wj4QlJklI4PMhU2f/6qJq8PHD/0iOPUdkzQ6cl96QVnsPoMrw6j7s8JKJrkcVbx2HfIoIj6P967/+6+PH7RExn4ms+uELdJIEZQzEIJmNkrREhexgp9/0V8dftQ87PfNdBYGxHev1z//oyd/nwcrXLXvxF/K6Jn6kMBEXealKe4WfqrwtZOpY/AZZwa5tPbd6n6xsSEZjGnv1GFf6Q9C5Ryh2yHdK1hoJMg52ZbCdbSnVksDO6RFyQh6CS9DOGk8yo1zByRHpr9UFI5hGnhF0e50AkTi9AbYzaI0jMSRBt3K86zt5kAIS2SUD7OyCSPnZynH4Ap+wpKRymy184JXcrZHvxE42vmkZiw56vtvTh2rc7IBso6TjOBKXBLSf7RtpsblZa2/sFcdiF1W/Qovvr+j31T7YwwxVkqa/Q7JGUD6qGdODVwdfdb2pEwLl8IJrVb+1H7j1b+qGfDOdrW16+5RKych+5JD6RrZXZdc3R7pS7fZkPDuGRCRCFRHsZ+3vOs9p2UMiHOn2FVn0qVpUXfL5HTfSjcHu/Ik9Z+TlTxIH/AqI2etm+q5tLDsgUzM9eqjnjvbhIeOZXHye78/GkjH5Ij9MFb7D7uTOsg49v3Opt+qZXiVosUgPh2TNAD4CNlOb2tm79jmsTC7ryuYyNWJ1bMVHVaH6sZUYjHPmiHfogqOShS0YT0CRcwVmfcAKs6C1DEKnxrsD28wYlhXIBDvCjn1W4IedLiv2K4Q1I/+zbSR+9pA8+Dv/930Fbn3QKdzw07FjVwj1WVwz15EDbh9Ej0gj4wr8+oXbxz697py1zmBOG5xjBk42PHxI1rnoo26RF+W6AWP6Yslixcf6qeqKgj4qdgGcGcYKzPpws9Maqur9IySnI92brpvtmSKvwK8fa8qI62jcd59DWCot90dW4NaH2DFjQYQf2e6wu+G7ErvlFZW7ZPVu256N/3+erDNtdVOA0ld8BAPHRYhnCnzXeUGlukSsKzDrwxRQ1b5rmWGlrlQbZDU9XoFfPyo12FfKubovU2O+abliBe7YHXZkuGOZYZUOYFecSdSrsHuiRYKGfZWcu/qZIutMuXYJcbXfLIMILFMW3wWvafGKj34ZT9+mXB+FuOsySOSDfQVmfVhOCnbTbXb/iMsgsPuQlcwr8OuHLqNXs5aPtgzCFy0BkZFdVuDWh9iBNbGEuD/KrBJBZxmETPxSPK7CrqIOdjrl8/R7lZN2tM8yCBktB02RtRsbbuh9lCkSZ7L0YcuYOxSlquYYpocquI+whkf/7h+46YBYjip/5+jGNb1qyTFteucdR16qF9h36PeZPsnjxp9gfdUX4c+nykJngtaLKgi7nnvXPhLNDEKCGtkdHvLH7lflRYaqzKPHKK/2+Wp7yUkMegqKHmB8tc/2en3CbkZNz5JX2+Yd39nRMo11a1w0RdYc13qmbKaDdwhexzRd3/3onvFgNY61UU5TZXjHPnlmHt3TTtB5mYXj9aokeCyhyNq98+LIDO4AACAASURBVKo4L/R8pKeAVj26Rz+c38d+a0uVlufF6bo9947v5Jx5dA+ZSa7ut0g4I1I/wuB6z/6rZncQ49HYvXNw7H50L+MqBjwDjrRz7J1bcTn96F4EVWEAInA5To7fvVXdqqbJkRdVdsrA2Y2VG47vrK7JgnzzQk0ri/PspOrOCzdk53hJNKpRValHs7xp6A0pBOglGzdu0o5OtTN7gd3UsB1vp97bvjmttUVVBpmQUtuGfEjK685uQNmvZIOAXSvwtfGbLSoWM5S2L9NgN912Pb7Xjnf0XSXtfkxuhLXY4XaeLWN3N0r5Qi8JS9BexvLvL/bbsSVpPqFPifzVGUzb/5XvuIYNYLsjcUpUfEd1Te9XZF3d1swWZjeAxTBfnqqsBTEgAlyl9i4DMp4pEWcTvL1AW6k0ON3IEeScRsCv7P9KXwLPK9CCViDVqsm+IPNQv8pA0EpmvgvarMHpA0Ehorw9JxD89oStKiYysbm2ZlUS9TuxGxsmiYo9etWwhELWb7/99vECV14kCJ6QtTfU/KPLV1999XhuGSGlTbYIUMDqj7/l+Du2ScDs2S77savzzklC4kKClnjbBCvY4YLHS1U/+clPHsm/xSSm+Jc+R7pur9nxnbwIC1mJv15iWT1ulv7osE32q8c6689NVNjZC+dOk7WOTYtMDTlML2OfDb7iPDKxHNP7vY0V/Y/6UIlaDrEMNGqz+zjy9GYZom3HksRU1AIWsQrKto3viAnha+s1cA7AloIhb63V6yQB2CUAjlzP3blPbtNB2HpETRYzAL83QVZO3pJ1lVelwocsp/XIWlsVLF15Lbpee/c+O3mlu1dZIjBVsASOXEZ2JzO9wSrp0aUfZTt64UkylxzbSv4u/HyTfGZAksZd4yp6FC/vvkdnfP+4lEIL/qnKWkOViemVoLhTeTESQrIMIOsdBW3ar9wKGIEryDkvR1rZ/1lfiDrPlyKYtn0qTyQsC1uvdqxtR4d0J2A9Ty24tVdFSUb26zXI2gwGdsTwjsAlE+wISaFQZxRkRUKqYOfhUolIaK+SNd3QlRkHkjsiwqqzlfsSJDx8vldZ8kczBfhV0j4jG8GAhCRfMew3WY7I2tIYwtDn3TNpNjauBMX37iySLP+JDXo/upm70s5tXxIv3fPpWpxMkzVnRQIqFwZvB9j9nfE4rSqQHHc6kFmFJQVGvNt5JQaBZkbBeclSdc2xTYUFosqSbXxM4REWYye5ZBlEVelX7wSCatzvvrTLIMagY7rWn2UgVUcd+45900FJCHGaWQVL5EuiIqNEBrNq0/7IR2Yqa3pFZvoVOHWJ6A7ccCoSkCZM7fgqLiTNdpITOcUGIpbUxGt0hYAkXTa2nEmXKtYjspYg9Qf73TNp47EfslIY9gqPXTZQGCkKxQ8dKHB2jTXqV/FkVmP86sPTZK1jgS/IVTC1k9GgK48LMISkumfMOOLKMUZ9MSAnR4YMWbPd6JpVx+lZ8PnPOjK0FZ6gFcyWMUxvbd1bsC7rRhpHj7whduet2X799dff//a3v31UWcjYemXVq33Y9S9ZcJ56fhXGUT/GQhaWASQN8te2qkjJy6+9CW4VmIQmAdmOqswZsjY2fSA5SwISYh179z67Iww+r6qODTOuGYfiwe+le3oDafNPFbOihuz6gAPpI2oFh2odyfuFQETIn3qxjOCNr987yRI+PudGnyUo/t2TL3pYvaVnFbVCRrK4e/mPvfgbe5HD92C8RNaUJoPL3ncFLmGT7TihQIvwd25VNiqYZNuqxF1yGEPQCSpjq7DrWM7L/BKYoKYf5yWzBKiAy/IGMpNo2U+V7HrB6noO4oYiXdcx7OcmF0K8M1HCi2BUGj3CkGCQ069//evvv/jii8dvSf/qV7/6/p/+6Z8eP9Mq2HuBPkPWcNMPnUluroG91c2O7wgDWbKLeGuramNKUqovPz2aZUm+4hqBrnr2nZ0l8F/84hePf/TxE6509Pd///fff/bZZ4/rFSBtEWAMvi7xIaw2WezArU8JGTZJOv68a6yjfvkdwlYk3IWdDeg6s6m2OLlE1pyX8BTJiL1AOFLAM+cIjERMhd2l5sTP9PPqNUjROhby49x3BC7sqlrGQ749ItUGmVqe4lxwMjqdIblK1pZwVMi1itbWGG7Kqdx7Y4Q09YW07nJeSUXAwt7TtyTknCpatQiXNVxPO1gKISufbW1/hawRHhn4PP20fe34jpxhgX90ryDLIO418EdySGj0wA+Qte/akRuJ0xNbS/x+c5xf6R/GXiyb0VkK8ZG0em1W4xdnqmpjstPq/mf7Mzb9s8Nd1TV/Vs1LFBJWq+9LZA0o43MElZhpZtvhrDJm2gk04yFJ66wcqxe0M3292gapcV5JgyP1SO3VMdrrYUe4KjsBPCJJQSkAVc0qKYZmcBWW4E1lxukcM312E8P3JF/XIv2efmEV8EiALXptWtlf+c6nYDVbgH/mPgEZ+QcZ/Xh+rgtZ6w/hsKGk41/I2RJ50dfIlx3Pei/sr+CauRZ28rAnOyGvtsJKP2wiySJiOrIGLbHAjsD5T9pmK/Fq4996VO18QLvoKe1s+U0eIeMvO2PdePonjwRENkmkynPnfgoU8XK0tr9KJjY2Dr/MDLe1yWWyplCdqdA4SM8hVgEQYIzHaTnvu6rqigcZCPLetLy2e3WfoRCpTCtRHfXHBioApG4N0zrjd9999zC8cwl2xKMSdd5LEYLCeq9rVFkh9d5Y8Jp2++y0ubElA1VGgnZmPEs02pva95ZBEDUS9+/jlk1++MMfPv7k1/KJ+wHIaJSEEKZkBntPNyuPwYog2RwJH/UNk+pP4WSpw9bjXiH5HrmaebhPMbMMYmxJkN74TfzoSKZnz/F32HELO0qiz/a16jrVNZ5jj1V9jvqRmKwciEd2bYnadZfJWic6tk4GCCcfCfDqceOYunFIikM2r/b56vVmFSoXVdYMiTw7nsBAoCqMrEmO+mITQYXgZGdVla3k9v/au7td2WkkCsDzhDwCICEBFyAhBBJwwSVvN880o29LhaxM4jgdVzl76CO10rvj2F7lqlU/dvdhsLHwrggJKYtCGaD143SR8Z5xx5iwMiDYPZcZ9ZiP6A9ZiTJHSIJu2JCRWcgQ9NE6H32QB0PQpzau2pObzCnkFJjjqm9lEOk57NrGvdlX84r0G4Ze/zBxJNohOaTieZ8draV1g1mG4UpmdKKHXXAiG6GHI2vRm/PRPf2ae2Q7grSjtlWfk4+1gN3cMtcdUdN5fMeW9zBeJmudmLQ0Qd06s67E2BiJqJFSZSnKnmCOPhPtKi2IXjKja1mFKEjE2JLO0bx8Tj5IFSmdORIGqh3FGJGr+SA35RUOy7O9udy5ZxzppzTf/I6I5M4YV56FnVODnQM5isCv9HnU1jiMFvEeGW37LNmYH11kI9639+++pxtImg1y1rP7j/kZB3bfwrT+Z/obz2VeyZQTxEGumeuOpK077EcyfomsCUiHIg0eJ0tgSIqS8DpZY7zSr+gMWWdGl+Qrc8l0hq9gF5FRLNHoK8+PPBNkLSAYaV/RBplEvTvTaBGWSE5UV4FrdAw2aN2PiGS0n6N2QdayySdk0DFPgamASUaVOS+ytRfW062XyTrA8OxSFhsdvZcoXL1XZIKEem3d482OUrkY+wlXEZB6+hkeBqikoRbZa+u+yP0J2M7m4GhXD4t71p0SihpkCmftlW8Y7tnYK+8zKFHmGRZ6Yd1hP2sronyaYz6SsSDtTI/hJSNljTPs9gMEQEfjPeVzmYuyyBke+0zKpNb0rK02IxkUGUwhayBEmr0XkNJn5MZ4e23d48lWp78jSiLaQsJneBAbTOTQa+u+9H9k7NVtRIE9LO4hK6cpRCfen7VXf326kxZtWaMzLPTCusN+1lYG+bRo+ki/RIFneNynHyNtBWajpb6jOVV8bi9gZC0RNZ6zpmdy0mY0Yn+ZrBGpmg7FVV8yud5L3cumVrsZ0msvFRZhAdJLDSoWqR0jaoSxiaN2G5s7PTxq3YyRHHrt3IvdYGOQbzv+yvewx3pbG6WQMyzwWkvlshE5Rd1VtPEk0jYX2M1LKcAanWFH6IH9rK2oOrCzpydlF7CzQy86IPs5w+M+/WDzZ21jb4JcydcYK/U8xjYP2K0HDoKfHp/h4aTohzU9aws73K18Y/zt9WWyprjSPBPbdjrrbzVhJQGAZ/V5tx+LRgEd48qsWTNWZaPMPYErsqC4sCNcG22ZNWuKLiJBXlfmmNUWdo4TdtlBZvBgvUWjTzgNQZ6wI1BZsXll1qxhl1kirqy1vNIvG2TjcGfXrGVgxukFZy+RNcVFWNlH94wDhLIJwn7CDrFFY7Bq75T4yuJfaUtRKK4U0ZhXns1oi6AcCTQna3JEpOYt42J4sqie8h3NkyMgX9iVmbII4mj87eewCxpgt9F2hAl2mRbssihEt+3r7G/PSY1hl42dtc++Dzv7U9Kx/jBmjCmChZ2MkRbdyRjnSp/0UEkDdnp4tO5X+jxqi9+MY+2PeOUyWVNAqR2hWkQCPprA3c8pSuzAGy8zkh2dq80imwKEm7l4lJdxxBdRRueX1Y7jtAaO1FmTNvqhE9aKLnAsNpYonfmH4rkvYlbzE6W5ti/lknDGyF4KSc7I0bNZuEb6hQFuryjPxXPWyX3YOTHYYFenb8mac0P4spLADZughyz1o0/tfO5UhD5inFVX2OLLSTDGPGfPh6xgJxsbdLKY2WNc7c/a2Py0npxwlqMyL7KlOzbk1e9b3Yl5XyZri8UY/fqeAcLAosPZV4TI0z7lG4x2d30NumJDhHJwDnbeZ8v1an8MyWkO2VQQcPRhnoiYkfkFOLoRBu457aT1HE/8kJBf/fM+Xj/99NP/RJLxc7zZOhY4jq6CBD8KBfu2Df3kvJCrX7LzS4ewC2Rag0Pkvi35xRdf/I35q6+++vghJXbUOiSyRBKyi+141X9znL7tikgyySpwsSvfxMUx8dmqq8DDtzer5iIj83Vz69/qTuC/RNY6kBpQRJ1avL1Oo/MZVymwKBYR8LqZX8bozVdkyXjMQ3RUQSDky1Ex3DZK7c0z4541l5aLLLdlACQjXRcRkE04cCTW6gcjhMGxL1ETwvdiEI53qc9v19a3JeMbky2ZZWDc65Num3f8xAD9a9vBCAsHbo20Nc/A3ra1keQr4WrxsZnkqq0AqLUjclBq49wi8m77qnpv7MgkEUlWVN3i4RzoETmtPMpovay7V1U5CkkLSvGLDG4r70tk7WHGiqy3kUMr8JnvjSkqQ5QUWBQzs//RvkSIlEhKRJAVdVQGzEjUzZAcMhid78x2lJXSImzE3UZYiEXk4b55ImskvFU0JOZLLghApAqbfvSJEJD21gEyGHpm3TnLmZhG+jJHuifChxH29jk4zM/a0E/325JG2xYWv8HCqXFayj763nNC5GDjHm7OelX5z5rIplyRaOtQWmwz35OHLAR2tjaz7yt9KVkJTpSiqnTPOMajT2Te2pm5XyJrBCXdo6Bbxb0iiKttjUvZCQ+ICqVp54h4eD3pmSi/gqhjfMrrqJQflkeEK7CLcESOezVUzoRy0Qlrg4R8hmBEjUfz9bn7SgvIGpFvCR7xiTKiBHbUV8hq9tU6wxL/+UHbv7nQCeSLqMkGdmvEscPWtheBK/X4oR61eHaEEBB2m4F4hhxg1y8nyNaqsZsTR+H3sqvICnY4BSX0ic6RRSV2Y8FufHxTyXPG5ag5SEHM1pEPkzWhUUI1OWlrq4gV70VkQNgxjcisYlxjMEo1O7+RXP0NO8ojklcHjginCrexYSdzhLx3TBNBqev5DWkORW3XL/65kpmIbG++FJM+eUa6f0QICIOTRHYUucpwzQ9Ri+6QK1JtcZgHnVTPtTZ+ydDLL/jBbt7tXPUlQkfu+oRZpK0tZ4ict/0ja/sVgb29n/3euipFyCa3GU/22MYTWXMUyHLr+DLHNzY9p+/0fkU2a0+MM2f3rQ4NkzWjozyUTBqXKbC9vhG06CUiOMa01y7jM9G02qnxkUorwIzx2j6NZUzGDzsjau9nvidj2CmucfeIlwNB1hwZUlGmouwcq8+OIhOfK5sgQnLdRhGByxEuJQjRt6h1G31Hu9lXUbVxGc329IuxrAuc/qca8oFduUgKj5Dhb+eKjM3fCwEgf3YkejPG3u+gaMvmkLv3szH2+mPnCBPGSlszJ+ORJf0QYe7Jpjf3O/esDZI2Lt070ss7Y5w9y+asudNXbRY/TNaUS4RDGSuFF8BMmvB4e6RV5W2NiyilZHtF/5hf5pXyinCjZp45VvSNjKIMYVyy3zNaJE4vrIv6dbTxjEjSvKPP9ipDiUxJ361Stu0YC7mLMJXCov+2zez34SDpmTKNObTEazxtRNYyCqQSm6OCCg5IxrB9pp2ne9qSmw3KPTmRP0KXycLePp/13rzYVqxNVa26xUO2IlyYOb6qDT66xSnSXeU3624u7dwq3tMLWakIu+W5YbJmXF9//XW5h2+FI20WiSDOCo9noRihKIPSHEWJ7Ryz3lNeR8JEYVljtP0iT3hh70XIDCmiMO+DdNVaEd22fBBjcPqITkQanx1dRTtKDTa3o/+jtjM+R1jKFnQNke71STdgU08XBWmvHXKDnaH1yBoOQQ+y1seRbnGG+tqeRNmb04zP2BVcnA1nVWFne/MmXzL95Zdfyk6FsDHytubbMtbeHDM/4yzscbTlsSGyjjIAo8X6mZPs9U1x1PcoEc8T0UzvmTv3GBSDleYat/Vyd/p95VlziZM4UuPsCBN5wO0l2jjCbk1EvgjHRhxFVxbhWESce/qiP2soIg+S68nEGEoS0vLt0cHec6/ec5rF3IwH21E/ZEIvYPa/tIhG7ekgOmuEcBA2PZVaq2nrV+SmrWdE4TKLI/l6FlGbC8d21O5ojlc/tx7mGKdfeg7nat9X29MdcvNColefv9peFiMQpLcratXtfNkIHeLMvadLQ2TNsESWBLbK0wKCoETXvI4IMzM9IhyeFm4CEwWtVFxjS5UtoJJAptEaC0lRXNjJ4Qi7z5GbSFld2SuO8VmfPX2xhmqhiHePzFuljXUX7SkH6N98tm1m/Q0PQ0WkjBa2o77pCCxOdQR2WQb9hN19L31I6ZEOeapFunqp+ffkK7LSF5la+0zs7Ms8OVuZtLUz/yP82Z+HM2TrasiZ48FuHWWDSDvTvkZw0BmOU9DDSVuHLlmHskUNbmSQijaMnPcX1WSNF44BWUtzM41kFIPomkI5RZA5H+MwVmSNIEbnh3iRPLLTx+hzo+3oIWPa2+gc7eOsHSPlFJ3SoGdn7d1nJ7AzLnM7wk6nOH2OipxG19AGs2gcYR+dmhmZ51kb5CyLliFxjiuJOuZKl6w5ws6aj345xdibshcR46+8Wg+lEFkO3emSNcXwUnK4YrTZABmT1LCXnt+dA9wWjcEa58gA745z5XlRX6RHyCFrTghHhOWUhvGuzDGzrcxOBM+AjyL9O+MH6YpkYF+xkb43fw4EdhGfdWe4e+3ufsaujMO2Rh3J3THPno9NVtjNKYOwyZNzMoa1J+OzeVXcNy8ZBR5ik12yRgZe6mZPUVxCsoAM1uKZGwXjUKStM16iC5GPFNfLeBlKcnXBIwKwFryuujJSnYFZHyILCquGSmED+9V5ZrWPOSEvTsRclRxm4NePTA12hgE7GWdhudIvx2RO8AsizJHTmoE71h12emUMtpXlEK7g1tY8rIV5sXfZC0c6CzvHJNNhS8Yh56wg6Cp29m5e1tycumQdnaufABF/r74yVgCQqGiAoalnSttnvJQ9eDPKYRxG+xSyNhdKRQYcCic1A7M+bKbCHrVm6/4UwqJz5mM9GDByUQNWHpiBXz9KTGSqf+OQ8WpdNz6yhj3skG7acJyBWx9KDFJtgQ+bYutPIesWO/wctJr/LOz2GGTPsNN1Nv8U7DgnggZyGCJrYJ5UBkEmSMWXFQiZ8vK2FG7Gq/W0+lO/fYLhWjCYKZjoRyTk7xmY9WGdI8LiBEVvsD+BsMxBFMQxW3Npq7n6bAZ+/YjayJRsRW6I+wnYkYi1MUeRlpd0fQZufVhnNgV32NZTgjPkyYmap+haRjUTO/IP7HSdLOjXE9ZdNO00luzZegyRtQjG5g4QT/A6iNmJCMZqPoiUQosKZrz0p1992mCEn9KsXkCLR2kdD4sIwFxnYI4+AjujEL3Avhp3jC8CNCeKSxZHa84AlcYYYeDaXskPOSt5ebkf2JGC0yDIMcZeeRXlyxx9i9bceti3OEf/hl0wwKb8OiBn/YRsUmSJe2yumt9s7HRIn/q23o6gPiVAMTfnzM3LHIfIGjk6muShlaSFQDkMRXdGy9gyjYiAjOOIFeVd6agoEwJ1jNJxHguZiV30hiBgX50Wk3s4D3OSDm+xu490RUZxDl+GtCUcxEdvRGuiZ87I+7Y//ffOibdts9+zN5kjwoJrD/vMOcjUnBMXvZLVVn4zxzrri45bUzao9HHW/u59xyiNhe9W8hwcbI7TcIySDKzDEFnzbiIVUab3d4Xy6vMESJBqqwgbobza18hzSIJBqw/GediR5zLaiHyUfmDnODmSjHGiTxGcejjsSE+EFveqrwiKscJuE3TPUbkvIvz5558/fgBIJCa42JINMhKhf/fddx+G4MeClJVaTPr3GR1DWu296veCBA4Fdjq4h33mnJSX6JdyU9TvZ/Y/2pd1E5jBbS054dFnX21HN+i7ki+5v9rPjOc4aLjhlyEOk7XBLZyQHKBshTkCq6bmzKUSSBV5EBJjYdQrFxBhISNp2paAjuR193MOAXa/8cGI7/b36vPqyH7Jj/PYOikO3NexbRBGukg+Wxl5zikKX1v3TVyRS7TbtjVP+sVYfOvw1XnPeA5BO/fMSc3ob6QP8hDRcVhVdradlzmILH/44Ye/I8ttm9l/G1OGRp84atns7DFG+zO+gKLNpIYiawOEl6M0KzZeKI3FkwbzfiLNUeB326kTS494uy1Z3O175HnOUXTLUVnEkWdmtJFZKBFIwZUOKmUe80eqNlh8CUqUuy1FUWZfYOFUrA+nsm2jL/1oQ39EjYySXI8MElayJnPP7vUZc8y6RnZD92S2WePs9Qs3O2P3e85s75lZn1kTGbxNVYFCdrmznbdsXTQruqZbR/rRPjP7PR2me0pxrc0Nk7UIxsYNICKY2RM8609ULbKS7qrhVBoPsqC4lIcBVSqvsYypXulVmZZTVNilxdZ+RQmMoSr/xL5Bazx0gF74L+YQMYemTCaYILO2LSOk/IzQOkqrZYmi9r3okVPWl009/a6oYUZaDr+s4MxGZt6nawiDvlUHKMYj8yhJcBgzsfX6ouNKn/SEHq2oIggOyZ9Otzw3TNYAEqJfSuPpe4Az7tmlVoqgQARYSZg2WiitlBhpVSovnAjrxx9//JhDpfIYG3bRtR8eqqgbbnXHekvJyaBVXO0QtTIB2XgpcYjEvvnmm78j4uhP3e/bb7/9+J9arKN20kybacgw2sU1nCTMMX7cq7gaX2Aio1iR0XFixicrOlCBOcYQ0Tqy5kSO99t1j3YZV7ZNr5TAlNay98X2MNA3Y3Mc9CDaXCJrQpNGqmXxfG1H0eHsqzFEPqJpY8fO6Oxxev2J0NSrbbDGTnEVdoYiulVHE1210WJvzrPuGY+jlFGJSKVlFdjNX3QsylGGYUDbcRkSR2IvRRSCkKWQggnKjoTjGVHql19++XcErp2ymjU9qkszXE5CRK5tlZNmZ0ov5s/W4Awcs9b1rB9YydYvChq/ijDD1kSWdM7fldiNBTvZ4xvlsiqbI2N6bl9KZN+WQKzXJbI2aWRFkFLjCiEak8AIj+GuqJcHcTCc2CWvMFzYkQTsZI68zows4z4nISUlf06rynBFzUjYuHtlCPJQy0XW9DKMKgxNdBSf0Rv/q4sUU9RITnDYbPT/Iu7JjX5ri/yV/hD8XrvZn4kmZXKwi+yrI9vAYw4IyzqQdYW9C8w4CditVcyl+kqf2Lsrx1kxvnFgl9EI0EJ3Y+xLZO0hisN41Am3nUWnM6+8i01NaSsAe0Y7c7yjvigRYqC8yIBBHbWd9Tky4RRFdoiiwkHszZ2hIg3Y7RtUlWKsuTFFzEcOgoL7ZTJRf7QxR4bWkjXSFSWKWPQHp/aiN6ct9nAjJ+tM/8yj6kQGh8hBqJeLtFatO51DHkpggoYKe4eXvsfm5t66VHwmQOQwrLusrGJMWRxejf2hrXO8TNYUPM5cU6q9zZlZwCipFMzmktSAwW0BzBrrrB/jwo4AvLK9rfEoDDJBMqtwk4ux1c8QoLXIXHPjcQbWmtHKKHqOUVvroZSBdJ1i+P777z+u7caUtUMEjj8yCO3857YxRm/9YUeeHGev3Yx7ERQoz3AsK9cdOdNzckUgZDgD414fcMIuILMmnMRq7OZCTypO4pCzgEiWd1TuvEzWBIikKRJDQih7wp/xGSNVo5YWiGpWpYMtFhteyMECbmtKbbu77xmGCB5BkPXd/u4+by3MQ7Qn0sgkbKQqBbbJdCZnchL10Q+RUJTo6E2bAdBb64UEtIl2yhsRaR/JSDZnHWBXTskkLdGszJVjRBZHc6r6HHaEZU5sPSu61i/s7EtAYE2rMB6NI9Jl6/F7NJnrbg8QdpH8UcnpMlkDZgEprZ3qTK/DaBmglIiDWJUOtospwuA8vDKdB6zSzzgT3M5hxXvEhwCRFsJro9bZ86FbMgqRBh0YIQhELAIeOTkhitGOAxrRKdhhhp1TaJ3AbOyMllPgrOCZ3f/V/mBlgwiUY8siLP3CLoPhpBDW1bnObi+rZ3+w22TPXHd6JTixT3AUBL5E1oRCyXXO+8wWUvTHUEWX6pHx2ROuHIcFzFQo8hXRUJInYI45iKopFkWOz2Zfg6yVQmb3/Wp/yAR2gUOm0SIsY2RmrK/IgA1a9xHn9kr/QdZ+QQmufQAAEMJJREFUCiAza7s6N8TJSdlkzZwX2cr2err1MllLKxmsKBtp8b69lxBftCASR8C9tu5FGiuCyyTFq4unPYHCTnE5KyniGR6LLSonh15b9xE0+TJY8n1ljlnPmA8nSgai0x4W96w17Ix9ZN2lwiJeDvEowsjC1uvXesDOgTBapHqGnV7ALkM4a8tY1SphN0bPaHvzzLonGxHpkwPyOsPjPhmx+bO2olc6Fes+kkll4dz2ay74B34vp0PO8FhLETJcZ221sdbw47oe9pfJOkBZPIM419p7SWt5DounLtNr6560ExkSkEWM8VZfCZOxwiwaQKwyjDM8FsUpBXLotXWfQpDr04wWdmvBaBEpx9vD4p5IifIi6pF15/yQIvlmRXGv6JC1hp1RWX8kfIadXlh32M/aqlGL3BkucniSo4LdnLzoJTs+02N4yUiWcIZd2UfwQ67k2yOsV9bu1WdgpYNwK3mam32bMzzKZRyaNT1rC/toQDaFrAFBwr2XyTNuxijK6rV1zwYDUkDaouxXBT77uYgoLYRFFAGKnEbwiETJodfW/TiqZnMjs8x0RTYUF/aIGETAIv8eFvesNdyc2si6I2n9KjM9oWZLRrDTcdiRj/fW6Aw7vaDHsJ+15aARlvXm3Mj3yvpktYWdkxJomBfyYsdneNyXKYy0hd1aw24vCGln4bnSbzgpuDkeuqmefoZdBk0/PHPWFvZRx3ybrIG3oAYceRHAaDtGQeEtIEN/QoRN+DwnD2s+ooBRPFewa4sYYOewrihZRlsGZA04KUrIUY3iYeBeI3IiT6SlhICwpdKezcA02ifs5mPdw7iysCM4pTDYObnROWa146BFf3QR8Y7ittbajq67dpw0fVc6ODuhk4W37ddamItMgiMhixE82lzBjj/bcY/eTyHro87vfm7BbTYRGEN5QqQltfWtNx7WotzFePS8BRSRMRRjHrWr+lw5yhr46jdDorhZY3OCjIOcOcfMsUYwCBqcUpDSingz03Ry5gyVjwQqI/PLbGMtnLPmQGAfJZarc9JvYCfrJ2TTAgUnsgRmgpPMdR+R16PJGgCELQV7ypdifEHFS/1qRMB32vDOCNLvd69UFIYkBaS41qEqwyFnjnq0pndH1r1nYfelG9h77WbdU1pDWEgiixxH5mpsAZKv6bNB+jjy3J027MqRYNnkap2XRflRJQHDHUyznn08WYteeVlRjQWUIs8Cf6Uf0RXisLFCcSsIhHEYi+GKsqpIcisXEVVsKkUZYNsm428lF1kF7Cuia2SFPKy5/QPYM3Bu++QcyBt+0V2Frm3n4G/1dvKHXzZVQZ6ia+MpA638UpCSj+xGZiu735NP9WePJ+uI6pCWBVz1zSZGK7Kyu89hVEQZsKubcVIUmBFXK4jxlCSc5BDpkUOF0Ro3jgYiLc6yGjv5i3L9NC+HUVWGUyNHjoIDMq8adytfmGV1SFOgQB7bNrP/lkkjSjVyr9n9j/ZnU1GAaC6rnOV2ro8naxMWXavfIizRTRVZhLCMz7v6YSFRfmatOsaMK+VFWtJwBlzhJGJsV1gprFq1Wmp7L/u9aJpz9OUgxxir1934ggO/eV0ZXSFFYyNq0R2HUUGU7XrGpqqf5q10lHByTjILexb0r3LdjUX2HIUAZVUm365FvP8UZG2yCEvNVLSh2F+pvIxFZE95GG8lYcKJKPywPrKUJsbiZV+NDTuZS4el5NljbvsX4ahhOjYnwqlad2sso3BGmqOqPkoHJ7IW2Qb2rWwy/+agZbKiy+rI0njIUkaDLAUsmVjbvo1Nz+k7vZdJtvdXvv80ZM27UyAe1xGySsJEkvHjTZWEEYphTBkF46mqmxqbjAP7qtqpiNocGA+nVRVlxcY2slKKEm3FelRdERVnRedlVVXjGkdUGeNWyTzw0TtBgo09Ol/pKJUajclR0r3KLDrwH10/DVnHAqpfOotZ5W0ZqTO2omrnQKsV18LBznBtNPL2R4s583M4OQnYg7DMY+YYI32RP7lLx0WYFXMQ1cre6JkSDF1bse6w+4JF1E5H5HW3DZxKICJ6uiZIqspmYu7Go3tKn0qPMpy4l3mlWwICmZTyG/lXY+/h+zRkDYRalro10iLIHrAZ9ywUT8tB+H3hlfUryut3ftUwZ2A760NEAS/sHNVK7FJRZSAZVUWkg7AQBF1zfPBMVpn3ZZMclW+2Zo4TfbMrkaw6vci6ws5i7PbK9qyB/wUIabf3st6zMfK25jKaJxE1zJ+KrEU4FtABfWlKNoEgBpFVfO27giiOFJHXt7kp2pGmZc9FGiqiU37gsLLHO8Ltc4ShFAK3vYNsAhFN+iIIspIK9+aWfU+AEthds7HbG/If1Sq3Ve8NbWVpHUS4MpyK8p/TL/bFnL4y9nY+q//+VGQt4iFEXk+qkpkeGctxJekgZUFYPlu1YLw84uCkbLxkGi2caqQyGNiNtRK7sUXXsgrOQwSUtQ7GstYIi54pCWSNNdIv2SsDqSFz1JnYBQSO6fkiCNIWHK2MLgUI5iFoyD7GZywkLTirPvE1ogfafCqyDlC8rLKETa8sZbJ4CEIJgHfPNJLAdXY1J5suv//++8d8srAzUqdekCPsZ/Oqum8+HEjmiRjYbSg6gSKSrcLWG0eAgqx9QSMz4qPjiEq5TSkkS796WLf3ZBYCM9lt1nz0C7usjY5lBoFbfFf+/pRkLUVXwxNxMK4rgEfbMgpeXZ3UOIhy9NmsdqI+cxFdS1Gz5oQMRVicovGy8FztVz1RqsqJZkT6jJZcbWTCvroEEvKh47DbbDS/rE1WdmUctvWE4AR+mQ3cXuaUQdjkyTkZw9qTccj+SddPSdaUF5laSAbFgKOWq6559xU/U4q0lEKkohlK8ooiwE6ZXCkYUrmLN55Xo4Xdjjj5wm6cV+aZ8QxjNSdOSvQjy1CmifnfueqHsXJO7TgZOK72yTHFnOC3Pko0d/C2z1p32NmSdffKcIZXcWtvHjB7kYFseiZ2gQ8HBXuMkeUMX8HfPvMpyToAIFBCVmuSItq9n/GS+iODJxFVYI4rJZauI6wZmPUh1XRUD2E9xVgD7/aqTMPQlAdm4NePLIpMt2M96W8BCt20yT4Dtz7sA8Cu5PCUoGRP5rCLfAVms7BzWgIe2PfGfNJnn5qsCVIUoFxB4Ihrxov3lmo/1cPCzahE2P53kRmY9cFgHZN6utHCz0mbq0xgBn79IMGnpsBBGrIKuom0ZuDWh8zUhrLI9clkDbtSzUzsMgqZCuwh46dePz1ZUy5RIGKd9dIfxZAWUWSE6O/Vi2heCEXaGqWQ2djJEFZkSJGNtxp3jG/DD7mEI52NXX+yKc5KtvaUKFsZDnYBiXW3PrN0PfqB3TgwKzMIgkLuK69IlA16iazNN2PdV2IcHfvTk/Uo0KvtOAHKoTSAILy/2sfs9hQVgcaP61Da2WPoT78iGL+lDXvGGK/0qa6s3JUZ+cOuf+dtnYx4ZZ6zn0FYjq6Fk86KfumXLNVJK846a5wr8rFv5ItZ8HNST5jTlfnPbPsm63//+9AgKQdiVNcS0axWFEarpuzbfNnOQ4TlzCnsjHgldmOLeB2j9DO12VGf/snY3gXsMw3ual+ch0zCkUW1Zdne1T6utFda+vXXX5f8wuN2ntZd0EAP7Sls7//T/n6TdYesGSpy5NWloSvrWsjKL8DZWBHxciSZyso5OXcKuxp+tnPoYUFQomrYpejS9V77u/f0L5qziac+ere/O88jq9hQo4PZ2J0wol8clVruKmeFqH05yZrLbpVB7sjx/+HZN1l3yJrCiGqknw7mSw1XLTqy9KM2Iixfs88qgQQ+zgBe2EU1DCfuVV+tgW8UIs8K7GSLqBA2eVfjbcdz3t23aGFXEshed86AjJVCBCqrTkSxPZuev/3228f+AeytXP6J799k3SHrUAhKy2AYcLaxxJjtVXQj4vE1c1FGey/zfWQW6rerjvMhC3JntDbYsjOKkCfSUgJSBjOHFetuXCd0OOnqyJKuwY8kEWfIpeJqPMGJ88/WveqHnCqw3RnjTdYDZG1Tz8aWKEcppFp5lQGUJKSnCOvOgl95FlkHdueaV5SBlAFscnJSlc6SUzCurIKjXBFh2jdQ+lKKqv49a/pu7EqZh27SO+MKkjgM8o97/+Trm6wHyNrpAKQlwlHDpExVSsMxUFybPuaQvbnW4jI27OrEykAinfZ+xXu1U1Ge6Eq0W+UoRdLKAQhbdG0NKvDGGHAiSxmdIKF6zwBe+wTGz97UDMxxFRQY22+UKL+tcJQxlydd32Q9QNaURWTDaG3yMJwq0kBQNvj++OOPjzPPlY6CosLOSajdSsWNX4WdnH1LEWGIsCtLETAiDU7izz///DhrXzW+cWC3schJirCrxg5ygp3s/aCVPYOqNTcOghZRq5vTv2rsIYOnXd9kPUDWFo3COjaGsKrqeBTXuEGWqzY4fTFGGcK3/CodlchWZC0lX7HBRP6cBCeNtGGvMGAEZa2RpY1F2U3FuNsx6Lr9Cs7CnLb3M/4WDNA3uEXXGWN81j7fZD1I1gxVGUANU3pakRpSXHXq+MnKqs21rTI7xsdwYa/48f8YX9nJmLKa6ozCHJC1dVYGMg/XmFvmlYOQyXBSnPWqdVcr9k1OhG3PoiLChZe+q9OvPIGUub6v9v0m60GyRhZIi9E60pUd6UU66Pd1RXacRYWx7CkSsnAaxJcyHOXLjjCNR75q1aIrkSV57M0t+zNz4Sz8AD7s2eOJYJW9EKTx/L0Ku3W27shToJLtMMlaVG08m4tKgNny/kz9v8l6kKxjUUW6SgLZdUTEHJG8LwbE+KuuNjYRJ0cl+sk0XGOJ5BBWZSR/JFvRNacJu/eZ5CkgcFxPZK3sdDSnqs/hRZ7mkln+I1NOGXbfWLQ3VIXxs4zzJuuLZE2ZGC3iyjyZIcqwwaJuWX1sa095RVlKIaJrqTHC3ms34zMnETgoBKF2uyqjCCywi/Rgz/4Gpag6ZPyEMoDoVoBC5+l+lpPWL+x+UkCQsqpOH2v+xOubrC+StV1yP3Zjt1oUlLWoyFpkSXGrNnd6WEQ+SMvRRYRl86/X/s69IGvZCzlkRrIj8zS+tYbdCY3M9BxhCQT80mMWMY5gjjawi6g5aFmO9Yh7M69B1pw0ol7toGdim9XXm6wvkjXBM1y/yIa4KRbDkrb3XojHxlGvTdwTUVFWBvK0LwSYm3nKKkTXMeejK8cGt9qn90ft4nPEYAxRXGbmctWArId5cZ7IOuQQ89670gvr7rV3v/1MrRZ2TpBTeFpkaX7mi1Q503buR+/JaKStvpVbYJe9PSE4uaofFe3fZP0CWbcLg7Qd6fvrr7+6L7vbojJnhntt3UfS7RhPfc+weljcU8qxUSaVlimctQ9CeCpm80LWvixzhoVeWHfYz9o6T/1ZvlZtz+ZMj+GNb4CeYVef59CfvOZPmNubrG+SNSUTBSLY3kt6K7KkwL127os0nqAcZ3MQLfewuKfujIB9C8/7s/ZPqFGf4VYKsI9whoUzC+xnbf2MQGZp6QzTlfsClDM87tMPmchZW3KSVVyZwz+x7ZusJ5A1ZUOyvRejRdYIq9fO/SdsKI4YA2PsYXGPI4Nb1Oj9WXup89PrlUHWZ1iCrGE/a/uZyBoBn+FxX/lnpC3sTyp5jej+ijZdsv7P+99bAm8JvCXwlsDjJfCvx8/wPcG3BN4SeEvgLYH/vMn6rQRvCbwl8JbAJ5DAfwGIr2NrbT09cgAAAABJRU5ErkJggg==;" vertex="1" parent="WIyWlLk6GJQsqaUBKTNV-1">
          <mxGeometry x="1491" y="749" width="206.65" height="226" as="geometry" />
        </mxCell>
        <mxCell id="i8nNrYU4gZV8eUPDtYtz-12" value="" style="rounded=0;html=1;jettySize=auto;orthogonalLoop=1;fontSize=11;endArrow=block;endFill=0;endSize=8;strokeWidth=1;shadow=0;labelBackgroundColor=none;edgeStyle=orthogonalEdgeStyle;exitX=1;exitY=0.5;exitDx=0;exitDy=0;" edge="1" parent="WIyWlLk6GJQsqaUBKTNV-1" source="i8nNrYU4gZV8eUPDtYtz-4" target="i8nNrYU4gZV8eUPDtYtz-11">
          <mxGeometry relative="1" as="geometry">
            <Array as="points">
              <mxPoint x="1508" y="1143" />
              <mxPoint x="1508" y="1237" />
            </Array>
          </mxGeometry>
        </mxCell>
        <mxCell id="i8nNrYU4gZV8eUPDtYtz-16" value="no" style="edgeLabel;html=1;align=center;verticalAlign=middle;resizable=0;points=[];" vertex="1" connectable="0" parent="i8nNrYU4gZV8eUPDtYtz-12">
          <mxGeometry x="0.7855" y="1" relative="1" as="geometry">
            <mxPoint x="-3.17" y="-11" as="offset" />
          </mxGeometry>
        </mxCell>
        <mxCell id="i8nNrYU4gZV8eUPDtYtz-4" value="&lt;div style=&quot;text-align: left&quot;&gt;max = max+(6*counter)&lt;/div&gt;" style="rhombus;whiteSpace=wrap;html=1;shadow=0;fontFamily=Helvetica;fontSize=12;align=center;strokeWidth=1;spacing=6;spacingTop=-4;" vertex="1" parent="WIyWlLk6GJQsqaUBKTNV-1">
          <mxGeometry x="1266" y="1101" width="192" height="83" as="geometry" />
        </mxCell>
        <mxCell id="i8nNrYU4gZV8eUPDtYtz-5" value="" style="rounded=0;html=1;jettySize=auto;orthogonalLoop=1;fontSize=11;endArrow=block;endFill=0;endSize=8;strokeWidth=1;shadow=0;labelBackgroundColor=none;edgeStyle=orthogonalEdgeStyle;" edge="1" source="i8nNrYU4gZV8eUPDtYtz-8" target="i8nNrYU4gZV8eUPDtYtz-4" parent="WIyWlLk6GJQsqaUBKTNV-1">
          <mxGeometry relative="1" as="geometry" />
        </mxCell>
        <mxCell id="i8nNrYU4gZV8eUPDtYtz-6" value="" style="rounded=0;html=1;jettySize=auto;orthogonalLoop=1;fontSize=11;endArrow=block;endFill=0;endSize=8;strokeWidth=1;shadow=0;labelBackgroundColor=none;edgeStyle=orthogonalEdgeStyle;exitX=1;exitY=0.5;exitDx=0;exitDy=0;" edge="1" source="i8nNrYU4gZV8eUPDtYtz-4" target="i8nNrYU4gZV8eUPDtYtz-9" parent="WIyWlLk6GJQsqaUBKTNV-1">
          <mxGeometry relative="1" as="geometry">
            <mxPoint x="1412" y="1114" as="sourcePoint" />
            <mxPoint x="1506" y="1102" as="targetPoint" />
          </mxGeometry>
        </mxCell>
        <mxCell id="i8nNrYU4gZV8eUPDtYtz-13" value="yes" style="edgeLabel;html=1;align=center;verticalAlign=middle;resizable=0;points=[];" vertex="1" connectable="0" parent="i8nNrYU4gZV8eUPDtYtz-6">
          <mxGeometry x="0.6838" y="2" relative="1" as="geometry">
            <mxPoint x="-6.31" y="-10.5" as="offset" />
          </mxGeometry>
        </mxCell>
        <mxCell id="i8nNrYU4gZV8eUPDtYtz-8" value="int input(입력값)&lt;br&gt;&lt;br&gt;&lt;div style=&quot;text-align: left&quot;&gt;int max = 1;&lt;/div&gt;&lt;div style=&quot;text-align: left&quot;&gt;int counter = 0;&lt;/div&gt;" style="rounded=1;whiteSpace=wrap;html=1;fontSize=12;glass=0;strokeWidth=1;shadow=0;" vertex="1" parent="WIyWlLk6GJQsqaUBKTNV-1">
          <mxGeometry x="1273" y="982" width="178" height="82" as="geometry" />
        </mxCell>
        <mxCell id="i8nNrYU4gZV8eUPDtYtz-9" value="counter++;&lt;br&gt;continue;" style="rounded=1;whiteSpace=wrap;html=1;fontSize=12;glass=0;strokeWidth=1;shadow=0;" vertex="1" parent="WIyWlLk6GJQsqaUBKTNV-1">
          <mxGeometry x="1576" y="1122.5" width="100" height="40" as="geometry" />
        </mxCell>
        <mxCell id="i8nNrYU4gZV8eUPDtYtz-11" value="input은 &lt;br&gt;count+1번째 &lt;br&gt;벌집에 속함" style="rounded=1;whiteSpace=wrap;html=1;fontSize=12;glass=0;strokeWidth=1;shadow=0;" vertex="1" parent="WIyWlLk6GJQsqaUBKTNV-1">
          <mxGeometry x="1576" y="1205" width="97" height="63" as="geometry" />
        </mxCell>
      </root>
    </mxGraphModel>
  </diagram>
</mxfile>
